<svg width="687" height="80" viewBox="0 0 687 80" fill="none" xmlns="http://www.w3.org/2000/svg">
<path d="M32 55.3801C35.01 55.3401 36.52 55.3201 39.53 55.2701C46.48 55.1701 51.05 59.2301 51.05 66.3901C51.05 73.5501 46.48 77.8401 39.53 77.9501C36.52 78.0001 35.01 78.0201 32 78.0601V55.3801ZM39.3 75.1901C44.42 75.1101 47.76 72.0401 47.76 66.4501C47.76 60.8601 44.38 57.9601 39.3 58.0401C37.65 58.0601 36.83 58.0801 35.18 58.1001V75.2501C36.83 75.2301 37.65 75.2201 39.3 75.1901Z" fill="white"/>
<path d="M55.1299 55.0099C56.3899 54.9899 57.0199 54.97 58.2799 54.95V58.13C57.0199 58.15 56.3899 58.1699 55.1299 58.1899V55.0099ZM55.1599 61.43C56.4099 61.41 57.0299 61.3899 58.2799 61.3699V77.62C57.0299 77.64 56.4099 77.66 55.1599 77.68V61.43Z" fill="white"/>
<path d="M63.3699 73.3198C63.3699 73.3198 65.1999 75.1798 68.0399 75.1198C69.3899 75.0898 70.7399 74.3498 70.7399 73.0398C70.7399 70.0498 62.3699 70.8398 62.3699 65.5398C62.3699 62.5798 65.0099 60.8598 68.2599 60.7898C71.8299 60.7098 73.5099 62.4698 73.5099 62.4698C73.0099 63.4198 72.7599 63.8898 72.2499 64.8398C72.2499 64.8398 70.7999 63.4298 68.2299 63.4798C66.8799 63.5098 65.5599 64.1198 65.5599 65.5298C65.5599 68.4498 73.9299 67.6298 73.9299 72.9598C73.9299 75.6598 71.6099 77.7398 68.0399 77.8098C64.0499 77.8998 61.8599 75.5598 61.8599 75.5598C62.4599 74.6598 62.7699 74.2098 63.3699 73.3098V73.3198Z" fill="white"/>
<path d="M85.1499 60.3901C89.2399 60.2901 91.2599 62.6101 91.2599 62.6101C90.6699 63.5001 90.3699 63.9401 89.7799 64.8301C89.7799 64.8301 88.0399 63.0101 85.2699 63.0801C81.9899 63.1601 79.6099 65.6601 79.6099 69.0001C79.6099 72.3401 81.9899 74.7901 85.3699 74.7001C88.3899 74.6201 90.3899 72.3801 90.3899 72.3801C90.8899 73.2801 91.1399 73.7301 91.6399 74.6301C91.6399 74.6301 89.3899 77.2901 85.1399 77.4001C80.0199 77.5301 76.4199 73.9801 76.4199 69.1001C76.4199 64.2201 80.0199 60.5001 85.1399 60.3701L85.1499 60.3901Z" fill="white"/>
<path d="M102.79 59.9001C107.65 59.7601 111.58 63.2001 111.58 68.1101C111.58 73.0201 107.65 76.7801 102.79 76.9201C97.93 77.0601 94 73.5701 94 68.6301C94 63.7101 97.93 60.0401 102.79 59.9001ZM102.79 74.2301C105.88 74.1401 108.39 71.6201 108.39 68.2201C108.39 64.8201 105.88 62.5201 102.79 62.6101C99.73 62.7001 97.19 65.1801 97.19 68.5501C97.19 71.9201 99.73 74.3201 102.79 74.2301Z" fill="white"/>
<path d="M113.05 59.9699C114.38 59.9299 115.04 59.9099 116.37 59.8599C117.95 64.1999 118.74 66.3699 120.33 70.7099C120.65 71.5999 120.85 72.9099 120.88 72.9099C120.91 72.9099 120.92 72.9099 120.94 72.9099C120.97 72.9099 121.2 71.5799 121.52 70.6699C123.1 66.2199 123.89 63.9999 125.48 59.5499C126.79 59.4999 127.45 59.4799 128.76 59.4299C126.35 66.0199 125.15 69.3099 122.74 75.8899C121.3 75.9399 120.58 75.9599 119.14 76.0099C116.71 69.5899 115.49 66.3799 113.06 59.9599L113.05 59.9699Z" fill="white"/>
<path d="M138.44 58.6999C143.04 58.5299 145.49 61.8299 145.49 66.0399C145.49 66.4599 145.39 67.3899 145.39 67.3899C140.64 67.5799 138.27 67.6699 133.52 67.8399C133.68 71.3999 136.22 73.1099 139.12 72.9999C141.92 72.8899 143.95 70.9199 143.95 70.9199C144.47 71.8099 144.72 72.2599 145.24 73.1499C145.24 73.1499 142.83 75.5599 138.93 75.7099C133.81 75.8999 130.3 72.3299 130.3 67.5199C130.3 62.3499 133.81 58.8799 138.44 58.7099V58.6999ZM142.3 65.1699C142.2 62.3799 140.47 61.0999 138.37 61.1799C135.99 61.2699 134.06 62.8199 133.61 65.4999C137.09 65.3699 138.82 65.3099 142.3 65.1699Z" fill="white"/>
<path d="M149.28 58.66C150.49 58.61 151.09 58.59 152.3 58.54V61.37C152.3 62.04 152.24 62.59 152.24 62.59C152.27 62.59 152.28 62.59 152.3 62.59C153.04 60.18 154.94 58.24 157.45 58.14C157.87 58.12 158.25 58.17 158.25 58.17V61.25C158.25 61.25 157.83 61.17 157.35 61.19C155.35 61.27 153.52 62.76 152.78 65.2C152.49 66.14 152.39 67.14 152.39 68.14V74.79C151.14 74.84 150.52 74.87 149.27 74.92V58.67L149.28 58.66Z" fill="white"/>
<path d="M168.27 57.47C172.87 57.26 175.32 60.55 175.32 64.76C175.32 65.18 175.22 66.11 175.22 66.11C170.47 66.33 168.1 66.44 163.35 66.64C163.51 70.2 166.05 71.89 168.95 71.76C171.75 71.63 173.78 69.65 173.78 69.65C174.3 70.54 174.55 70.98 175.07 71.87C175.07 71.87 172.66 74.3 168.76 74.47C163.64 74.7 160.14 71.15 160.14 66.34C160.14 61.17 163.65 57.68 168.28 57.47H168.27ZM172.13 63.91C172.03 61.12 170.3 59.85 168.2 59.94C165.82 60.05 163.89 61.61 163.44 64.29C166.92 64.14 168.65 64.06 172.13 63.9V63.91Z" fill="white"/>
<path d="M185.42 56.67C189.19 56.49 190.44 58.99 190.44 58.99C190.47 58.99 190.48 58.99 190.5 58.99C190.5 58.99 190.44 58.51 190.44 57.9V50.38C191.69 50.32 192.31 50.29 193.56 50.22V72.9C192.38 72.96 191.78 72.99 190.6 73.05C190.6 72.43 190.6 72.12 190.6 71.51C190.6 70.9 190.63 70.42 190.63 70.42C190.6 70.42 190.59 70.42 190.57 70.42C190.57 70.42 189.25 73.51 185.23 73.7C180.82 73.91 178.05 70.57 178.05 65.53C178.05 60.49 181.11 56.88 185.42 56.67ZM185.83 70.98C188.24 70.86 190.53 69.05 190.53 64.9C190.53 62.01 189.02 59.19 185.93 59.34C183.36 59.47 181.23 61.69 181.23 65.38C181.23 69.07 183.13 71.1 185.83 70.97V70.98Z" fill="white"/>
<path d="M207.36 49.51C210.14 49.36 211.53 49.29 214.31 49.13C216.69 49 217.69 49.13 218.56 49.41C220.88 50.15 222.39 52.34 222.39 55.33C222.39 58.32 220.78 60.75 218.3 61.7V61.76C218.3 61.76 218.56 62.03 218.98 62.75C220.91 66.16 221.88 67.87 223.81 71.28C222.37 71.36 221.65 71.4 220.21 71.49C218.29 67.99 217.33 66.24 215.42 62.73C213.48 62.84 212.5 62.89 210.56 63V72.03C209.29 72.1 208.65 72.13 207.37 72.2V49.52L207.36 49.51ZM215.11 59.98C217.59 59.84 219.13 58.18 219.13 55.64C219.13 53.97 218.49 52.82 217.33 52.24C216.72 51.95 215.98 51.8 214.21 51.9C212.74 51.98 212.01 52.02 210.54 52.1V60.23C212.37 60.13 213.28 60.08 215.11 59.98Z" fill="white"/>
<path d="M234.35 54.0199C238.95 53.7399 241.4 56.9999 241.4 61.2099C241.4 61.6299 241.3 62.5599 241.3 62.5599C236.55 62.8499 234.18 62.9899 229.43 63.2699C229.59 66.8299 232.13 68.48 235.03 68.3C237.83 68.13 239.86 66.1099 239.86 66.1099C240.38 66.9899 240.63 67.4299 241.15 68.3099C241.15 68.3099 238.74 70.7699 234.84 71.0099C229.72 71.3199 226.22 67.8199 226.22 63.0099C226.22 57.8399 229.73 54.2999 234.36 54.0199H234.35ZM238.21 60.3999C238.11 57.6099 236.38 56.3699 234.29 56.4899C231.91 56.6299 229.98 58.2199 229.53 60.9199C233.01 60.7199 234.74 60.6099 238.22 60.3999H238.21Z" fill="white"/>
<path d="M245.38 65.77C245.38 65.77 247.21 67.5501 250.05 67.3701C251.4 67.2801 252.75 66.49 252.75 65.17C252.75 62.18 244.38 63.32 244.38 58.02C244.38 55.06 247.02 53.23 250.27 53.02C253.84 52.79 255.51 54.48 255.51 54.48C255.01 55.45 254.76 55.94 254.25 56.91C254.25 56.91 252.8 55.56 250.23 55.72C248.88 55.81 247.56 56.47 247.56 57.88C247.56 60.8 255.93 59.63 255.93 64.96C255.93 67.66 253.61 69.83 250.04 70.06C246.05 70.31 243.86 68.07 243.86 68.07C244.46 67.15 244.77 66.68 245.37 65.76L245.38 65.77Z" fill="white"/>
<path d="M267.19 51.93C272.05 51.6 275.97 54.89 275.97 59.81C275.97 64.73 272.05 68.63 267.19 68.96C262.33 69.29 258.41 65.95 258.41 61C258.41 56.05 262.34 52.26 267.19 51.94V51.93ZM267.19 66.25C270.28 66.04 272.79 63.43 272.79 60.02C272.79 56.61 270.28 54.41 267.19 54.62C264.13 54.83 261.59 57.4 261.59 60.78C261.59 64.16 264.13 66.46 267.19 66.25Z" fill="white"/>
<path d="M279.45 51.4699C280.7 51.3799 281.32 51.3399 282.57 51.2499V60.9499C282.57 63.1999 283.02 64.9699 285.63 64.7799C288.94 64.5399 290.9 61.4799 290.9 58.2599V50.6499C292.15 50.5599 292.77 50.5099 294.02 50.4199V66.6699C292.81 66.7599 292.21 66.7999 291 66.8899V64.7399C291 64.0699 291.06 63.5499 291.06 63.5499C291.03 63.5499 291.02 63.5499 291 63.5499C290.32 65.1999 288.2 67.4799 285.02 67.7099C281.35 67.9699 279.46 66.1799 279.46 61.8699V51.4599L279.45 51.4699Z" fill="white"/>
<path d="M298.9 50.0599C300.11 49.9699 300.71 49.9199 301.92 49.8299V52.6599C301.92 53.3299 301.86 53.8899 301.86 53.8899C301.89 53.8899 301.9 53.8899 301.92 53.8899C302.66 51.4599 304.56 49.4499 307.07 49.2599C307.49 49.2299 307.87 49.2599 307.87 49.2599V52.3399C307.87 52.3399 307.45 52.2799 306.97 52.3099C304.98 52.4599 303.14 54.0199 302.4 56.4799C302.11 57.4299 302.01 58.4399 302.01 59.4299V66.0799C300.76 66.1699 300.14 66.2199 298.89 66.3099V50.0599H298.9Z" fill="white"/>
<path d="M318.42 48.1701C322.5 47.8501 324.53 50.0601 324.53 50.0601C323.94 50.9801 323.64 51.4401 323.05 52.3601C323.05 52.3601 321.31 50.6401 318.55 50.8601C315.27 51.1201 312.89 53.7501 312.89 57.0901C312.89 60.4301 315.27 62.7501 318.65 62.4801C321.67 62.2401 323.67 59.8901 323.67 59.8901C324.17 60.7601 324.42 61.2001 324.92 62.0701C324.92 62.0701 322.67 64.8601 318.42 65.1901C313.31 65.6001 309.7 62.2401 309.7 57.3601C309.7 52.4801 313.3 48.5701 318.42 48.1701Z" fill="white"/>
<path d="M335.46 46.7798C340.06 46.3998 342.5 49.5898 342.5 53.7998C342.5 54.2198 342.4 55.1598 342.4 55.1598C337.65 55.5598 335.28 55.7598 330.53 56.1498C330.69 59.6998 333.23 61.2898 336.12 61.0498C338.92 60.8198 340.94 58.7498 340.94 58.7498C341.45 59.6198 341.71 60.0498 342.23 60.9198C342.23 60.9198 339.82 63.4398 335.93 63.7598C330.82 64.1898 327.31 60.7798 327.31 55.9598C327.31 50.7898 330.82 47.1598 335.45 46.7798H335.46ZM339.32 53.0798C339.22 50.2898 337.49 49.0898 335.4 49.2598C333.02 49.4598 331.09 51.0898 330.64 53.7998C334.11 53.5098 335.85 53.3698 339.32 53.0798Z" fill="white"/>
<path d="M365.33 37.77C371.89 37.18 376.97 41.75 376.97 48.27C376.97 54.95 371.89 60.63 365.33 61.22C358.77 61.81 353.66 57.05 353.66 50.37C353.66 43.85 358.77 38.36 365.33 37.77ZM365.33 58.29C369.96 57.87 373.69 53.67 373.69 48.57C373.69 43.47 369.96 40.24 365.33 40.66C360.7 41.08 356.94 45.13 356.94 50.08C356.94 55.03 360.7 58.71 365.33 58.29Z" fill="white"/>
<path d="M380.94 43.14C382.08 43.03 382.66 42.98 383.8 42.87V44.25C383.8 44.89 383.74 45.44 383.74 45.44C383.77 45.44 383.78 45.44 383.8 45.44C383.8 45.44 385.18 42.36 389.26 41.97C393.63 41.55 396.39 44.75 396.39 49.79C396.39 54.96 393.27 58.61 389.03 59.01C385.46 59.35 384.05 56.82 384.05 56.82C384.02 56.82 384.01 56.82 383.99 56.82C383.99 56.82 384.05 57.39 384.05 58.23C384.05 61.15 384.05 62.6 384.05 65.52C382.8 65.64 382.18 65.7 380.93 65.81C380.93 56.74 380.93 52.2 380.93 43.13L380.94 43.14ZM388.56 56.39C391.13 56.14 393.25 53.82 393.25 50.13C393.25 46.44 391.35 44.5 388.65 44.76C386.21 44.99 383.96 46.91 383.96 51.05C383.96 53.94 385.57 56.68 388.56 56.39Z" fill="white"/>
<path d="M400.22 41.29C401.36 41.18 401.94 41.12 403.08 41.01V42.39C403.08 43.03 403.02 43.58 403.02 43.58C403.05 43.58 403.06 43.58 403.08 43.58C403.08 43.58 404.46 40.49 408.54 40.08C412.91 39.64 415.67 42.83 415.67 47.87C415.67 53.04 412.55 56.7 408.31 57.12C404.74 57.48 403.33 54.95 403.33 54.95C403.3 54.95 403.29 54.95 403.27 54.95C403.27 54.95 403.33 55.52 403.33 56.36C403.33 59.28 403.33 60.73 403.33 63.65C402.08 63.77 401.46 63.83 400.21 63.96C400.21 54.89 400.21 50.35 400.21 41.28L400.22 41.29ZM407.84 54.51C410.41 54.25 412.53 51.92 412.53 48.22C412.53 44.69 410.63 42.6 407.94 42.87C405.5 43.11 403.25 45.04 403.25 49.18C403.25 52.07 404.86 54.8 407.85 54.5L407.84 54.51Z" fill="white"/>
<path d="M427.08 38.1799C431.93 37.6699 435.85 40.8199 435.85 45.7399C435.85 50.6899 431.93 54.6999 427.08 55.2099C422.23 55.7199 418.31 52.5199 418.31 47.5699C418.31 42.6499 422.23 38.6899 427.08 38.1799ZM427.08 52.5099C430.16 52.1899 432.67 49.4799 432.67 46.0799C432.67 42.7099 430.17 40.5599 427.08 40.8899C424.03 41.2099 421.49 43.8799 421.49 47.2499C421.49 50.6199 424.03 52.8299 427.08 52.5199V52.5099Z" fill="white"/>
<path d="M439.54 37.25C440.75 37.12 441.35 37.06 442.56 36.92V39.75C442.56 40.42 442.5 40.98 442.5 40.98C442.53 40.98 442.54 40.98 442.56 40.98C443.3 38.52 445.19 36.46 447.7 36.18C448.12 36.13 448.5 36.16 448.5 36.16V39.2401C448.5 39.2401 448.08 39.1901 447.6 39.2401C445.61 39.4601 443.78 41.0701 443.04 43.5601C442.75 44.5201 442.65 45.53 442.65 46.52V53.17C441.4 53.3 440.78 53.37 439.53 53.51C439.53 47.01 439.53 43.76 439.53 37.26L439.54 37.25Z" fill="white"/>
<path d="M452.26 38.6001C451.41 38.6901 450.99 38.7401 450.14 38.8301V36.3201C451.03 36.2201 451.47 36.1701 452.36 36.0801V31.3901C453.57 31.2601 454.17 31.1901 455.38 31.0601V35.7501C456.95 35.5801 457.73 35.4901 459.3 35.3101V37.8201C457.73 38.0001 456.95 38.0801 455.38 38.2601C455.38 41.1501 455.38 42.6001 455.38 45.4901C455.38 48.7301 457.66 48.9001 458.85 48.7601C459.3 48.7101 459.59 48.6101 459.59 48.6101V51.3701C459.59 51.3701 459.14 51.4801 458.5 51.5601C456.41 51.7901 452.27 51.6101 452.27 46.1801C452.27 43.1501 452.27 41.6301 452.27 38.6001H452.26Z" fill="white"/>
<path d="M462.85 34.68C464.1 34.54 464.72 34.47 465.96 34.33C465.96 38.21 465.96 40.15 465.96 44.03C465.96 46.28 466.41 48.03 469.01 47.73C472.32 47.35 474.27 44.2 474.27 40.99C474.27 37.94 474.27 36.42 474.27 33.38C475.52 33.24 476.14 33.16 477.38 33.02C477.38 39.52 477.38 42.77 477.38 49.27C476.17 49.41 475.57 49.48 474.36 49.62V47.47C474.36 46.8 474.42 46.27 474.42 46.27C474.39 46.27 474.38 46.27 474.36 46.27C473.69 47.95 471.57 50.32 468.39 50.68C464.73 51.1 462.84 49.38 462.84 45.08C462.84 40.78 462.84 38.84 462.84 34.67L462.85 34.68Z" fill="white"/>
<path d="M482.27 32.45C483.48 32.31 484.08 32.24 485.29 32.1C485.29 32.96 485.29 33.39 485.29 34.25C485.29 34.89 485.23 35.45 485.23 35.45C485.26 35.45 485.27 35.45 485.29 35.45C485.93 33.96 487.86 31.42 491.39 31C495.21 30.54 496.97 32.42 496.97 36.56C496.97 40.72 496.97 42.8 496.97 46.97C495.72 47.12 495.1 47.2 493.86 47.34C493.86 43.46 493.86 41.52 493.86 37.64C493.86 35.36 493.38 33.62 490.78 33.93C488.31 34.22 486.32 36.1 485.64 38.52C485.45 39.18 485.38 39.93 485.38 40.73C485.38 43.78 485.38 45.3 485.38 48.34C484.13 48.49 483.51 48.56 482.27 48.71C482.27 42.21 482.27 38.96 482.27 32.46V32.45Z" fill="white"/>
<path d="M501.59 23.7201C502.85 23.5701 503.48 23.4901 504.74 23.3401C504.74 24.6101 504.74 25.2501 504.74 26.5201C503.48 26.6701 502.85 26.7501 501.59 26.9001V23.7201ZM501.62 30.1401C502.87 29.9901 503.49 29.9101 504.73 29.7601C504.73 36.2601 504.73 39.5101 504.73 46.0101C503.48 46.1601 502.86 46.2401 501.62 46.3901C501.62 39.8901 501.62 36.6401 501.62 30.1401Z" fill="white"/>
<path d="M510.29 31.8C509.44 31.9 509.02 31.96 508.17 32.06C508.17 31.06 508.17 30.56 508.17 29.55C509.06 29.44 509.5 29.39 510.38 29.28V24.59C511.59 24.44 512.19 24.37 513.4 24.22V28.91C514.97 28.72 515.75 28.62 517.31 28.42V30.93C515.74 31.13 514.96 31.22 513.4 31.42C513.4 34.31 513.4 35.76 513.4 38.65C513.4 41.89 515.68 42.03 516.87 41.88C517.32 41.82 517.61 41.72 517.61 41.72V44.48C517.61 44.48 517.16 44.6 516.52 44.68C514.43 44.94 510.3 44.81 510.3 39.38C510.3 36.35 510.3 34.83 510.3 31.8H510.29Z" fill="white"/>
<path d="M521.07 21.2999C522.33 21.1399 522.96 21.0599 524.21 20.8999V24.0799C522.95 24.2399 522.32 24.3199 521.07 24.4799V21.2999ZM521.1 27.7199C522.34 27.5599 522.97 27.4799 524.21 27.3299C524.21 33.8299 524.21 37.0799 524.21 43.5799C522.97 43.7399 522.34 43.8199 521.1 43.9699C521.1 37.4699 521.1 34.2199 521.1 27.7199Z" fill="white"/>
<path d="M536.08 25.4201C540.67 24.8201 543.11 27.9101 543.11 32.1201C543.11 32.5401 543.01 33.4801 543.01 33.4801C538.28 34.1001 535.91 34.4101 531.17 35.0201C531.33 38.5601 533.86 40.0401 536.75 39.6601C539.54 39.3001 541.56 37.1401 541.56 37.1401C542.07 37.9801 542.33 38.4101 542.84 39.2501C542.84 39.2501 540.43 41.8801 536.55 42.3801C531.45 43.0401 527.95 39.7901 527.95 34.9801C527.95 29.8101 531.45 26.0201 536.07 25.4201H536.08ZM539.93 31.5301C539.83 28.7501 538.1 27.6301 536.02 27.9001C533.65 28.2101 531.72 29.9301 531.27 32.6601C534.73 32.2101 536.47 31.9901 539.93 31.5401V31.5301Z" fill="white"/>
<path d="M547.07 36.41C547.07 36.41 548.9 38.06 551.72 37.69C553.07 37.51 554.41 36.62 554.41 35.31C554.41 32.32 546.07 34.04 546.07 28.74C546.07 25.78 548.7 23.77 551.94 23.34C555.5 22.86 557.17 24.44 557.17 24.44C556.67 25.45 556.42 25.95 555.92 26.95C555.92 26.95 554.48 25.7 551.91 26.04C550.56 26.22 549.25 26.97 549.25 28.39C549.25 31.31 557.59 29.55 557.59 34.89C557.59 37.59 555.28 39.92 551.72 40.4C547.74 40.93 545.56 38.84 545.56 38.84C546.16 37.87 546.46 37.39 547.07 36.42V36.41Z" fill="white"/>
<path d="M569.39 26.6801C569.39 22.0501 570.74 17.6001 573.11 13.4801C574.2 13.3301 574.74 13.2501 575.83 13.1001C573.49 17.3401 572.21 21.7901 572.21 26.3201C572.21 31.1101 573.43 35.7201 575.83 39.7601C574.74 39.9101 574.2 39.9901 573.11 40.1401C570.8 36.6101 569.39 31.8501 569.39 26.6801Z" fill="white"/>
<path d="M579.8 13.4801C582.8 13.0601 584.3 12.8501 587.3 12.4201C594.22 11.4401 598.77 14.9201 598.77 22.0801C598.77 29.2801 594.22 34.1101 587.3 35.0901C584.3 35.5201 582.8 35.7301 579.8 36.1501C579.8 27.0801 579.8 22.5401 579.8 13.4701V13.4801ZM587.08 32.3701C592.18 31.6501 595.51 28.1501 595.51 22.5601C595.51 17.0001 592.15 14.5001 587.08 15.2201C585.44 15.4501 584.62 15.5701 582.98 15.8001C582.98 22.6601 582.98 26.0901 582.98 32.9501C584.62 32.7201 585.44 32.6001 587.08 32.3701Z" fill="white"/>
<path d="M603.51 10.0899C606.28 9.68991 607.66 9.47991 610.43 9.07991C612.8 8.72991 613.79 8.77991 614.66 8.96991C616.97 9.49991 618.47 11.5499 618.47 14.5399C618.47 17.4299 616.87 20.1099 614.4 21.2799V21.3399C614.4 21.3399 614.66 21.5899 615.07 22.2699C616.99 25.5099 617.95 27.1199 619.87 30.3599C618.44 30.5699 617.72 30.6799 616.28 30.8899C614.37 27.5599 613.42 25.8999 611.51 22.5699C609.58 22.8599 608.61 22.9999 606.67 23.2799C606.67 26.8899 606.67 28.6999 606.67 32.3099C605.4 32.4999 604.77 32.5899 603.5 32.7699C603.5 23.6999 603.5 19.1599 603.5 10.0899H603.51ZM611.23 19.8499C613.7 19.4899 615.23 17.6799 615.23 15.1499C615.23 13.4799 614.59 12.3899 613.44 11.9099C612.83 11.6799 612.09 11.5999 610.33 11.8499C608.87 12.0699 608.14 12.1699 606.68 12.3899C606.68 15.6399 606.68 17.2699 606.68 20.5199C608.5 20.2499 609.41 20.1199 611.23 19.8499Z" fill="white"/>
<path d="M634.12 5.1399C640.65 4.1399 645.71 8.3999 645.71 14.9199C645.71 21.5999 640.65 27.5899 634.12 28.5899C627.59 29.5899 622.5 25.1499 622.5 18.4699C622.5 11.9499 627.59 6.1399 634.12 5.1499V5.1399ZM634.12 25.6599C638.73 24.9599 642.44 20.5299 642.44 15.4199C642.44 10.4699 638.73 7.3199 634.12 8.0299C629.51 8.7299 625.76 13.0199 625.76 17.9699C625.76 23.0799 629.51 26.3699 634.12 25.6599Z" fill="white"/>
<path d="M648.14 29.09C650.54 24.35 651.76 19.37 651.76 14.58C651.76 10.05 650.48 5.98 648.14 2.43C649.23 2.26 649.77 2.17 650.86 2C653.23 5.42 654.57 9.48 654.57 14.1C654.57 19.27 653.16 24.44 650.86 28.66C649.77 28.83 649.23 28.92 648.14 29.09Z" fill="white"/>
</svg>
