<svg width="40" height="28" viewBox="0 0 40 28" fill="none" xmlns="http://www.w3.org/2000/svg">
<g id="email icon" clip-path="url(#clip0_2000_2039)">
<g id="Layer_1-2">
<path id="Vector" d="M35.1787 0.0369345C25.0809 0.0443648 15.0846 0.0493184 4.98921 0.0567487C1.87265 -0.319722 0.00717005 1.22579 0.00469265 4.09638C-0.000262134 10.6871 -0.000262134 17.2753 0.00469265 23.866C0.00469265 26.4914 1.5159 27.9973 4.13699 27.9998H19.9328C25.2667 27.9973 30.598 27.9998 35.9319 27.9973C38.4563 27.9948 39.9923 26.4716 39.9948 23.9329C40.0022 17.3199 40.0022 10.7069 39.9948 4.0939C39.9898 1.27532 38.1937 -0.260279 35.1787 0.0369345ZM3.45818 26.0258C6.95626 22.7639 10.3255 19.6208 13.7146 16.4629C15.5355 17.8797 17.3167 19.2691 19.1029 20.6561C19.8759 21.2555 20.131 21.2555 20.9089 20.6512C22.6778 19.2766 24.4442 17.897 26.2849 16.4629C29.6616 19.6109 33.0383 22.7589 36.5413 26.0258H3.45818ZM1.9767 24.7775V7.31371C5.4178 9.99607 8.76723 12.6041 12.1786 15.2617C8.78458 18.427 5.43514 21.5502 1.9767 24.7775ZM38.0476 4.6165C38.0302 4.80226 37.8395 5.01279 37.6735 5.14158C36.5884 5.98864 36.1325 6.33539 35.0474 7.18245C34.6238 7.51186 34.5519 8.12362 34.8864 8.5422C35.2159 8.95582 35.8154 9.02765 36.2316 8.70319C37.0293 8.08152 37.2028 7.9552 38.0104 7.3261V24.7701C34.5594 21.5502 31.2149 18.432 27.8209 15.2667C28.9084 14.4196 28.9431 14.3626 30.0257 13.518C30.4469 13.1886 30.5212 12.5793 30.1868 12.1608C29.8573 11.7471 29.2578 11.6778 28.8416 12.0023C25.6804 14.4667 23.5697 16.1434 20.4085 18.6128C20.1013 18.853 19.9006 18.8629 19.586 18.6177C13.8434 14.1199 8.08595 9.63446 2.32601 5.15396C1.62243 4.60412 1.92467 3.89328 2.02625 3.2617C2.14764 2.51371 2.71496 2.09762 3.44827 1.95644C3.71335 1.9069 3.9933 1.92176 4.26829 1.92176H20.0617H20.0592C25.3014 1.92424 30.541 1.94901 35.7832 1.91186C37.6487 1.89947 38.2111 2.96449 38.0476 4.6165Z" fill="white"/>
<path id="Vector_2" d="M33.9229 10.2436C33.9229 11.0163 33.2961 11.6405 32.5257 11.6405C31.7552 11.6405 31.1284 11.0163 31.1284 10.2436C31.1284 9.47083 31.7552 8.84668 32.5257 8.84668C33.2961 8.84668 33.9229 9.4733 33.9229 10.2436Z" fill="#00A19C"/>
</g>
</g>
<defs>
<clipPath id="clip0_2000_2039">
<rect width="40" height="28" fill="white"/>
</clipPath>
</defs>
</svg>
