<svg width="291" height="54" viewBox="0 0 291 54" fill="none" xmlns="http://www.w3.org/2000/svg">
<path d="M10 8C15.25 8.47 17.87 8.7 23.12 9.15C23.12 10.25 23.12 10.81 23.12 11.91C19.14 11.57 17.15 11.39 13.17 11.04C13.17 13.88 13.17 15.3 13.17 18.14C16.41 18.43 18.03 18.57 21.27 18.85V21.61C18.03 21.33 16.41 21.19 13.17 20.9V28.19C17.37 28.56 19.47 28.74 23.67 29.1V31.86C18.2 31.4 15.47 31.16 10 30.68C10 21.61 10 17.07 10 8Z" fill="white"/>
<path d="M33.3602 26.3701C33.3602 26.3701 33.1002 26.8601 32.8802 27.2301C31.5202 29.2901 30.8402 30.3201 29.4902 32.3701C28.0802 32.2501 27.3802 32.1901 25.9702 32.0701C28.1702 28.9201 29.2702 27.3401 31.4802 24.1901C29.3902 20.8501 28.3502 19.1901 26.2602 15.8501C27.6802 15.9701 28.3902 16.0301 29.8102 16.1501C31.0102 18.2301 31.6202 19.2701 32.8202 21.3501C33.0802 21.7901 33.3602 22.3601 33.3602 22.3601C33.3902 22.3601 33.4002 22.3601 33.4202 22.3601C33.4202 22.3601 33.7102 21.8401 33.9602 21.4401C35.1602 19.5601 35.7702 18.6201 36.9702 16.7401C38.3902 16.8601 39.1002 16.9201 40.5202 17.0301C38.4302 20.0201 37.3902 21.5101 35.3002 24.5001C37.5002 28.0201 38.6002 29.7801 40.8102 33.3101C39.4002 33.1901 38.7002 33.1401 37.2902 33.0201C35.9302 30.7401 35.2502 29.5901 33.9002 27.3101C33.6802 26.9101 33.4202 26.3701 33.4202 26.3701C33.3902 26.3701 33.3802 26.3701 33.3602 26.3701Z" fill="white"/>
<path d="M43.9602 17.3101C45.1002 17.4001 45.6702 17.4501 46.8102 17.5401C46.8102 18.0901 46.8102 18.3701 46.8102 18.9201C46.8102 19.5601 46.7502 20.1001 46.7502 20.1001C46.7802 20.1001 46.7902 20.1001 46.8102 20.1001C46.8102 20.1001 48.1902 17.2601 52.2502 17.5801C56.6102 17.9201 59.3602 21.6101 59.3602 26.6501C59.3602 31.6901 56.2502 34.9201 52.0202 34.5901C48.4602 34.3101 47.0602 31.5301 47.0602 31.5301C47.0302 31.5301 47.0202 31.5301 47.0002 31.5301C47.0002 31.5301 47.0602 32.1101 47.0602 32.9501C47.0602 35.8701 47.0602 37.3201 47.0602 40.2401C45.8202 40.1401 45.2002 40.0901 43.9502 39.9901C43.9502 30.9201 43.9502 26.3801 43.9502 17.3101H43.9602ZM51.5502 31.9001C54.1102 32.1001 56.2302 30.1501 56.2302 26.4501C56.2302 22.7501 54.3402 20.4901 51.6502 20.2801C49.2202 20.0901 46.9702 21.6101 46.9702 25.7501C46.9702 28.6401 48.5702 31.6601 51.5502 31.9001Z" fill="white"/>
<path d="M62.98 12.3899C64.22 12.4899 64.84 12.5299 66.09 12.6299C66.09 19.7099 66.09 23.2499 66.09 30.3299C66.09 32.2899 66.86 32.6999 67.82 32.7699C68.11 32.7899 68.37 32.7699 68.37 32.7699V35.5299C68.37 35.5299 67.89 35.5599 67.34 35.5199C65.58 35.3899 62.98 34.7099 62.98 30.6299C62.98 23.3299 62.98 19.6799 62.98 12.3899Z" fill="white"/>
<path d="M79.2202 19.64C84.0602 19.99 87.9702 23.83 87.9702 28.75C87.9702 33.67 84.0602 37.02 79.2202 36.67C74.3802 36.32 70.4702 32.43 70.4702 27.48C70.4702 22.53 74.3802 19.29 79.2202 19.65V19.64ZM79.2202 33.97C82.3002 34.19 84.8002 31.93 84.8002 28.53C84.8002 25.13 82.3002 22.57 79.2202 22.35C76.1802 22.13 73.6402 24.35 73.6402 27.72C73.6402 31.09 76.1702 33.75 79.2202 33.98V33.97Z" fill="white"/>
<path d="M91.6499 20.9199C92.8599 20.9999 93.4599 21.0499 94.6599 21.1299V23.9599C94.6599 24.6299 94.5999 25.1799 94.5999 25.1799C94.6299 25.1799 94.6399 25.1799 94.6599 25.1799C95.3999 22.8499 97.2899 21.1199 99.7899 21.2899C100.21 21.3199 100.59 21.4099 100.59 21.4099C100.59 22.6399 100.59 23.2599 100.59 24.4899C100.59 24.4899 100.17 24.3699 99.6899 24.3299C97.6999 24.1899 95.8799 25.4799 95.1399 27.8399C94.8499 28.7499 94.7599 29.7399 94.7599 30.7399V37.3899C93.5199 37.2999 92.8899 37.2599 91.6499 37.1699C91.6499 30.6699 91.6499 27.4199 91.6499 20.9199Z" fill="white"/>
<path d="M112.13 28.4C112.41 28.42 112.55 28.43 112.84 28.45V28.16C112.84 25.49 111.33 24.5 109.28 24.36C106.78 24.2 104.76 25.63 104.76 25.63C104.25 24.68 103.99 24.21 103.48 23.26C103.48 23.26 105.82 21.49 109.54 21.74C113.64 22.01 115.95 24.41 115.95 28.52C115.95 32.63 115.95 34.69 115.95 38.8C114.8 38.73 114.22 38.69 113.06 38.61V37.07C113.06 36.33 113.12 35.79 113.12 35.79C113.09 35.79 113.08 35.79 113.06 35.79C113.06 35.79 111.75 38.92 107.87 38.66C105.08 38.48 102.36 36.59 102.36 33.35C102.36 27.99 109.41 28.23 112.14 28.41L112.13 28.4ZM108.54 36.2C111.17 36.37 112.87 33.72 112.87 31.31V30.8C112.55 30.78 112.39 30.77 112.07 30.75C109.73 30.6 105.5 30.48 105.5 33.4C105.5 34.72 106.53 36.07 108.55 36.2H108.54Z" fill="white"/>
<path d="M121.17 25.6099C120.32 25.5599 119.9 25.5299 119.05 25.4799V22.9699C119.94 23.0299 120.38 23.0499 121.26 23.1099V18.4199C122.47 18.4999 123.07 18.5299 124.27 18.6099C124.27 20.4899 124.27 21.4199 124.27 23.2999C125.83 23.3999 126.62 23.4499 128.18 23.5399V26.0499C126.62 25.9499 125.83 25.9099 124.27 25.8099V33.0399C124.27 36.2799 126.55 36.8399 127.73 36.9199C128.18 36.9499 128.47 36.8999 128.47 36.8999V39.6599C128.47 39.6599 128.02 39.6999 127.38 39.6599C125.3 39.5299 121.16 38.6299 121.16 33.1999V25.6199L121.17 25.6099Z" fill="white"/>
<path d="M131.95 17.1201C133.21 17.2001 133.84 17.2301 135.09 17.3101C135.09 18.5801 135.09 19.2201 135.09 20.4901C133.83 20.4101 133.2 20.3801 131.95 20.3001C131.95 19.0301 131.95 18.3901 131.95 17.1201ZM131.98 23.5401C133.22 23.6201 133.85 23.6501 135.09 23.7301C135.09 30.2301 135.09 33.4801 135.09 39.9801C133.85 39.9101 133.22 39.8701 131.98 39.7901C131.98 33.2901 131.98 30.0401 131.98 23.5401Z" fill="white"/>
<path d="M147.54 24.07C152.38 24.35 156.3 28.12 156.3 33.04C156.3 37.96 152.39 41.37 147.54 41.09C142.7 40.81 138.78 36.99 138.78 32.04C138.78 27.09 142.69 23.79 147.54 24.07ZM147.54 38.4C150.62 38.58 153.12 36.27 153.12 32.87C153.12 29.47 150.62 26.95 147.54 26.77C144.49 26.6 141.96 28.86 141.96 32.23C141.96 35.6 144.49 38.22 147.54 38.4Z" fill="white"/>
<path d="M159.98 25.1499C161.19 25.2199 161.79 25.2499 163 25.3099V27.4599C163 28.0999 162.94 28.6399 162.94 28.6399C162.97 28.6399 162.98 28.6399 163 28.6399C163.64 27.2599 165.57 25.0499 169.1 25.2299C172.92 25.4299 174.68 27.5999 174.68 31.7499V42.1599C173.43 42.0999 172.81 42.0699 171.57 41.9999V32.2999C171.57 30.0199 171.09 28.1999 168.49 28.0599C166.02 27.9299 164.03 29.4599 163.36 31.7699C163.17 32.3999 163.1 33.1399 163.1 33.9399V41.5499C161.85 41.4799 161.23 41.4499 159.99 41.3799V25.1299L159.98 25.1499Z" fill="white"/>
<path d="M188.22 20.1499C191.39 20.2999 192.98 20.3699 196.15 20.5199C199.97 20.6899 202.73 22.9299 202.73 26.5999C202.73 28.8199 201.64 30.5299 199.9 31.3599V31.4199C202.28 32.2299 203.62 34.5399 203.62 37.0799C203.62 41.3499 200.31 43.3899 196.33 43.2099C193.08 43.0599 191.46 42.9899 188.21 42.8299C188.21 33.7599 188.21 29.2199 188.21 20.1499H188.22ZM196.15 30.0599C198.2 30.1499 199.49 28.7699 199.49 26.7699C199.49 24.7799 198.27 23.3799 196.09 23.2799C194.22 23.1899 193.28 23.1499 191.4 23.0599C191.4 25.7699 191.4 27.1299 191.4 29.8399C193.3 29.9299 194.25 29.9699 196.15 30.0599ZM196.5 40.4499C198.94 40.5599 200.38 39.0799 200.38 36.7699C200.38 34.4599 198.84 32.8099 196.46 32.7099C194.43 32.6199 193.42 32.5699 191.39 32.4799V40.2199C193.43 40.3199 194.45 40.3599 196.49 40.4499H196.5Z" fill="white"/>
<path d="M207.74 21.03C208.99 21.08 209.61 21.11 210.85 21.16C210.85 28.24 210.85 31.78 210.85 38.86C210.85 40.82 211.62 41.21 212.58 41.25C212.87 41.26 213.13 41.25 213.13 41.25V44.01C213.13 44.01 212.65 44.05 212.1 44.03C210.33 43.96 207.73 43.36 207.73 39.28C207.73 31.98 207.73 28.33 207.73 21.04L207.74 21.03Z" fill="white"/>
<path d="M224.02 27.74C228.87 27.93 232.79 31.64 232.79 36.55C232.79 41.46 228.87 44.95 224.02 44.76C219.17 44.57 215.25 40.81 215.25 35.87C215.25 30.95 219.17 27.55 224.02 27.74ZM224.02 42.06C227.1 42.18 229.61 39.83 229.61 36.43C229.61 33.03 227.11 30.55 224.02 30.43C220.97 30.31 218.43 32.62 218.43 35.99C218.43 39.36 220.97 41.94 224.02 42.06Z" fill="white"/>
<path d="M244.03 28.47C248.11 28.61 250.13 31.05 250.13 31.05C249.54 31.9 249.24 32.33 248.65 33.19C248.65 33.19 246.92 31.27 244.15 31.17C240.87 31.06 238.5 33.41 238.5 36.75C238.5 40.09 240.88 42.68 244.25 42.8C247.27 42.9 249.26 40.78 249.26 40.78C249.76 41.71 250.01 42.17 250.51 43.1C250.51 43.1 248.26 45.63 244.02 45.48C238.91 45.3 235.31 41.54 235.31 36.66C235.31 31.78 238.91 28.28 244.02 28.46L244.03 28.47Z" fill="white"/>
<path d="M254.05 22.77C255.3 22.81 255.92 22.83 257.17 22.87C257.17 27.83 257.17 30.31 257.17 35.27C258.08 35.3 258.54 35.31 259.45 35.34C261.22 33 262.11 31.84 263.88 29.5C265.29 29.54 266 29.56 267.41 29.6C265.25 32.4 264.17 33.8 262.01 36.6V36.66C264.41 40.34 265.61 42.18 268.02 45.86C266.57 45.82 265.84 45.8 264.39 45.75C262.44 42.63 261.46 41.08 259.51 37.96C258.57 37.93 258.1 37.92 257.16 37.89V45.53C255.91 45.49 255.29 45.47 254.04 45.43C254.04 36.36 254.04 31.82 254.04 22.75L254.05 22.77Z" fill="white"/>
<path d="M271.14 41.7499C271.14 41.7499 272.97 43.6999 275.8 43.7699C277.15 43.8099 278.5 43.1399 278.5 41.8199C278.5 38.8299 270.14 39.2099 270.14 33.9099C270.14 30.9499 272.78 29.3599 276.02 29.4499C279.59 29.5499 281.26 31.3899 281.26 31.3899C280.76 32.3099 280.51 32.7799 280.01 33.6999C280.01 33.6999 278.56 32.2199 275.99 32.1499C274.64 32.1099 273.32 32.6599 273.32 34.0699C273.32 36.9899 281.68 36.5699 281.68 41.9099C281.68 44.6099 279.37 46.5699 275.8 46.4799C271.81 46.3699 269.63 43.9299 269.63 43.9299C270.23 43.0599 270.54 42.6299 271.14 41.7599V41.7499Z" fill="white"/>
</svg>
