<svg xmlns="http://www.w3.org/2000/svg" width="437" height="175" viewBox="0 0 437 175" fill="none">
  <path d="M221.406 43.1995L206.459 175H174.708L182.276 115.642C182.636 112.873 183.123 109.933 183.641 107.131L187.431 93.7809L188.05 91.6042L186.06 92.172L176.135 95.0049L184.456 94.6957L181.556 102.544C179.326 106.854 176.666 111.882 174.531 115.642L153.121 153.801H125.066L118.42 115.642C117.662 111.396 116.96 105.611 116.449 100.967L117.497 92.8155L117.788 90.5695L115.899 91.4275L106.505 95.6989L114.686 94.1594L106.966 131.245L95.5381 175H56.7113V174.937C41.9665 174.218 30.3172 166.634 27.0953 164.325C16.937 157.038 9.24236 147.7 4.84545 137.321C1.62357 129.731 0 121.68 0 113.39C0 102.942 2.69121 92.601 7.78304 83.4905C7.83358 83.3832 7.89044 83.2507 7.97256 83.093L8.12418 82.7964L8.16208 82.7144L8.21262 82.6387L8.79382 81.7428C9.44452 80.6639 10.1457 79.5787 10.8849 78.5125L60.3881 2.06313L61.721 0L63.0477 2.06944L77.6409 24.7702L79.2076 27.2055H62.0116L23.4376 86.7776L23.4249 86.7965L23.4123 86.8154L23.3491 86.9038C22.7111 87.8249 22.1109 88.7461 21.5739 89.642L21.5171 89.7366L21.5044 89.7619L21.4918 89.7871L21.3212 90.0521L21.277 90.153L21.2454 90.2224L21.2075 90.2855L21.0685 90.5379C17.1265 97.4907 15.0417 105.396 15.0354 113.396C15.0354 122.703 17.7835 131.674 22.9701 139.353C28.043 146.854 35.1184 152.672 43.4321 156.186C48.9536 158.514 54.0391 159.776 58.9666 160.041C59.2509 160.047 62.5928 160.053 67.034 160.06L98.2925 43.2058H133.544L142.217 98.8787C143.506 107.358 144.435 120.633 144.435 120.633H144.801C144.801 120.633 151.264 107.548 155.876 98.8787L185.965 43.2058H221.406V43.1995ZM324.405 131.315C324.405 152.331 310.374 166.337 292.104 172.054C285.458 174.268 278.263 175.006 271.061 175.006H216.978L242.632 43.2058H285.085C293.759 43.2058 301.7 43.944 308.157 46.1522C321.448 50.758 329.017 61.2692 329.017 74.5376C329.017 86.5189 321.448 99.2384 308.529 105.693V106.059C319.976 110.299 324.405 120.803 324.405 131.315ZM291.182 130.387C291.182 124.488 287.492 120.065 279.551 120.065H259.986L259.974 120.128C259.715 120.109 259.626 120.078 259.418 120.204L248.185 125.498L259.279 123.668L254.636 147.346H274.017C277.523 147.346 280.474 146.608 283.064 145.132C288.048 141.996 291.182 136.097 291.182 130.387ZM295.8 79.5093C295.8 74.5313 293.026 70.8467 285.648 70.8467H269.589L264.971 94.2604H281.586C290.632 94.2604 295.8 86.7019 295.8 79.5156V79.5093ZM412.823 129.466L429.804 175H395.103L380.339 130.576H364.097L355.423 175H323.123L348.777 43.1995H397.876C405.078 43.1995 411.724 44.1207 417.258 46.3352C429.628 51.3132 437.006 61.8181 437.006 76.5692C437.006 91.3203 429.855 112.545 410.486 120.766C410.265 120.747 410.176 120.728 409.98 120.841L398.748 126.135L410.429 124.21L410.808 124.286C411.345 125.529 412.027 127.226 412.823 129.479V129.466ZM403.777 82.645C403.777 74.9036 398.609 70.8467 390.302 70.8467H375.721L369.448 102.923H383.289C394.73 102.923 403.777 95.7367 403.777 82.645ZM108.975 14.4734C109.089 12.7321 109.013 10.3535 109.013 10.3535H109.089C109.089 10.3535 109.904 12.9529 110.536 14.4734L114.768 24.6755H118.963L123.234 14.4734C123.865 12.9529 124.642 10.3914 124.642 10.3914H124.718C124.718 10.3914 124.642 12.7258 124.756 14.4734L125.868 29.1993H130.625L128.509 2.8581H123.385L118.224 15.8804C117.63 17.4388 116.922 19.7417 116.922 19.7417H116.847C116.847 19.7417 116.101 17.4388 115.507 15.8804L110.346 2.8581H105.223L103.068 29.1993H107.857L108.969 14.4734H108.975ZM145.262 17.3315V17.0729C145.262 14.587 143.702 13.7353 141.624 13.7353C138.913 13.7353 136.424 15.5523 136.424 15.5523L134.643 12.1769C134.643 12.1769 137.58 9.84245 142.072 9.84245C147.05 9.84245 149.95 12.587 149.95 17.3757V29.2119H145.604V27.6535C145.604 26.909 145.679 26.3159 145.679 26.3159H145.604C145.641 26.3159 144.157 29.6535 139.848 29.6535C136.469 29.6535 133.424 27.5399 133.424 23.7544C133.424 17.7416 141.56 17.3379 144.643 17.3379H145.275L145.262 17.3315ZM144.485 20.5619C142.072 20.5619 138.168 20.8963 138.168 23.5272C138.168 24.7891 139.097 25.9752 141.03 25.9752C143.519 25.9752 145.3 23.3064 145.3 21.0035V20.5556H144.485V20.5619ZM159.679 29.3885C160.462 29.3885 161.163 29.275 161.163 29.275V25.155C161.163 25.155 160.828 25.1929 160.456 25.1929C159.23 25.1929 158.523 24.6755 158.523 22.5935V2.8644H153.841V23.3064C153.841 28.7198 157.076 29.3885 159.672 29.3885H159.679ZM174.164 17.3315V17.0729C174.164 14.587 172.604 13.7353 170.526 13.7353C167.815 13.7353 165.326 15.5523 165.326 15.5523L163.545 12.1769C163.545 12.1769 166.483 9.84245 170.974 9.84245C175.952 9.84245 178.852 12.587 178.852 17.3757V29.2119H174.506V27.6535C174.506 26.909 174.581 26.3159 174.581 26.3159H174.506C174.544 26.3159 173.059 29.6535 168.75 29.6535C165.371 29.6535 162.326 27.5399 162.326 23.7544C162.326 17.7416 170.462 17.3379 173.545 17.3379H174.177L174.164 17.3315ZM173.381 20.5619C170.968 20.5619 167.064 20.8963 167.064 23.5272C167.064 24.7891 167.992 25.9752 169.926 25.9752C172.415 25.9752 174.196 23.3064 174.196 21.0035V20.5556H173.381V20.5619ZM187.387 30.5747C186.679 32.2466 185.416 33.0227 184.121 33.0227C183.04 33.0227 182.004 32.2466 182.004 32.2466L180.444 35.7735C180.444 35.7735 182.118 36.9975 184.38 36.9975C187.241 36.9975 189.876 35.5148 191.215 32.0637L199.687 10.2841H194.525L190.811 21.2685C190.476 22.2717 190.179 23.7544 190.179 23.7544H190.103C190.103 23.7544 189.768 22.196 189.396 21.1928L185.422 10.2841H180.109L188.094 28.909L187.387 30.581V30.5747ZM207.331 25.6408C204.248 25.6408 202.17 23.5651 202.17 23.5651L200.015 26.8648C200.015 26.8648 202.65 29.6472 207.369 29.6472C212.088 29.6472 214.615 27.1235 214.615 23.9689C214.615 17.8868 205.404 18.2211 205.404 15.546C205.404 14.3599 206.592 13.8425 207.817 13.8425C210.717 13.8425 212.461 15.4766 212.461 15.4766L214.204 11.9876C214.204 11.9876 212.126 9.83614 207.855 9.83614C203.585 9.83614 200.609 11.874 200.609 15.4009C200.609 21.483 209.82 21.1171 209.82 23.931C209.82 25.0415 208.67 25.6345 207.331 25.6345V25.6408ZM222.335 2.8644H217.653V7.06006H222.335V2.8644ZM222.373 10.2841H217.653V29.2056H222.373V10.2841ZM237.086 17.3315V17.0729C237.086 14.587 235.525 13.7353 233.447 13.7353C230.737 13.7353 228.248 15.5523 228.248 15.5523L226.466 12.1769C226.466 12.1769 229.404 9.84245 233.896 9.84245C238.874 9.84245 241.773 12.587 241.773 17.3757V29.2119H237.427V27.6535C237.427 26.909 237.503 26.3159 237.503 26.3159H237.427C237.465 26.3159 235.98 29.6535 231.665 29.6535C228.286 29.6535 225.241 27.5399 225.241 23.7544C225.241 17.7416 233.377 17.3379 236.46 17.3379H237.092L237.086 17.3315ZM236.302 20.5619C233.889 20.5619 229.985 20.8963 229.985 23.5272C229.985 24.7891 230.914 25.9752 232.847 25.9752C235.336 25.9752 237.117 23.3064 237.117 21.0035V20.5556H236.302V20.5619ZM260.896 28.9784H251.35V2.64358H260.782C265.539 2.64358 268.919 5.09157 268.919 9.43235C268.919 11.8803 267.732 13.9939 265.723 15.0728V15.1485C268.622 16.0003 269.993 18.6754 269.993 21.3442C269.993 26.6125 265.76 28.9847 260.89 28.9847L260.896 28.9784ZM256.139 13.4009H260.782C262.861 13.4009 264.048 11.9182 264.048 10.0254C264.048 8.13264 262.937 6.76353 260.707 6.76353H256.139V13.4072V13.4009ZM256.139 24.8648H261.263C263.714 24.8648 265.091 23.2686 265.091 21.0414C265.091 18.8142 263.676 17.2558 261.263 17.2558H256.139V24.8585V24.8648ZM278.427 10.0633H273.708V28.9847H278.427V10.0633ZM278.389 2.64358H273.708V6.83924H278.389V2.64358ZM281.579 19.5209C281.579 13.5081 285.142 9.61531 290.158 9.61531C294.321 9.61531 295.617 12.0255 295.617 12.0255H295.692C295.692 12.0255 295.654 11.5459 295.654 10.9466V2.64358H300.374V28.9847H295.913V27.4264C295.913 26.7197 295.989 26.2024 295.989 26.2024H295.913C295.913 26.2024 294.315 29.4327 289.969 29.4327C284.845 29.4327 281.573 25.3885 281.573 19.5272L281.579 19.5209ZM286.336 19.5209C286.336 23.1171 288.269 25.4579 291.055 25.4579C293.507 25.4579 295.812 23.6787 295.812 19.483C295.812 16.5492 294.252 13.6596 291.093 13.6596C288.491 13.6596 286.336 15.7732 286.336 19.5209ZM318.65 28.9784H313.855V2.64358H322.358C325.22 2.64358 326.521 2.8644 327.671 3.38807C330.312 4.57421 331.98 7.09792 331.98 10.5869C331.98 13.7416 330.305 16.6691 327.519 17.7858V17.8615C327.519 17.8615 327.892 18.2338 328.41 19.1612L333.831 28.9911H328.48L323.243 19.1612H318.637V28.9911L318.65 28.9784ZM318.65 14.9971H322.958C325.523 14.9971 327.121 13.4766 327.121 10.8393C327.121 8.20204 326.041 6.75722 322.295 6.75722H318.656V14.9908L318.65 14.9971ZM335.22 19.5209C335.22 13.7353 339.864 9.61531 345.619 9.61531C351.374 9.61531 356.055 13.7353 356.055 19.5209C356.055 25.3064 351.412 29.4264 345.65 29.4264C339.889 29.4264 335.214 25.3443 335.214 19.5209H335.22ZM340.009 19.5209C340.009 23.0477 342.574 25.42 345.657 25.42C348.74 25.42 351.267 23.0477 351.267 19.5209C351.267 15.994 348.702 13.6217 345.657 13.6217C342.612 13.6217 340.009 16.0318 340.009 19.5209ZM365.418 29.4264C368.652 29.4264 371.065 27.4579 371.994 25.4957H372.07C372.07 25.4957 371.994 26.0888 371.994 26.8333V28.9847H376.53V10.0633H371.811V18.7448C371.811 22.1203 369.916 25.1235 366.498 25.1235C364.16 25.1235 363.56 23.5651 363.56 21.2622V10.0633H358.841V22.2338C358.841 27.3885 361.368 29.4327 365.418 29.4327V29.4264ZM385.696 20.3032C385.696 19.4136 385.772 18.5618 386.031 17.7795C386.739 15.5145 388.596 13.9182 391.123 13.9182C393.65 13.9182 394.13 15.4766 394.13 17.7795V28.9847H398.811V16.8142C398.811 11.8046 396.436 9.61531 392.235 9.61531C388.407 9.61531 386.328 11.9497 385.513 13.546H385.437C385.437 13.546 385.513 12.9529 385.513 12.2463V10.057H380.984V28.9784H385.703V20.2969L385.696 20.3032ZM401.705 19.5209C401.705 13.5081 405.268 9.61531 410.284 9.61531C414.447 9.61531 415.742 12.0255 415.742 12.0255H415.818C415.818 12.0255 415.78 11.5459 415.78 10.9466V2.64358H420.499V28.9847H416.039V27.4264C416.039 26.7197 416.115 26.2024 416.115 26.2024H416.039C416.039 26.2024 414.441 29.4327 410.094 29.4327C404.971 29.4327 401.698 25.3885 401.698 19.5272L401.705 19.5209ZM406.455 19.5209C406.455 23.1171 408.388 25.4579 411.174 25.4579C413.626 25.4579 415.931 23.6787 415.931 19.483C415.931 16.5492 414.371 13.6596 411.212 13.6596C408.61 13.6596 406.455 15.7732 406.455 19.5209ZM58.2907 144.646C58.2654 145.984 59.333 147.088 60.6787 147.113C62.0179 147.138 63.1235 146.072 63.1488 144.728C63.174 143.391 62.1064 142.286 60.7608 142.261C59.4215 142.236 58.3159 143.302 58.2907 144.646ZM50.6087 143.384C52.087 143.41 53.3062 142.236 53.3378 140.753C53.3631 139.277 52.1881 138.053 50.7035 138.028C49.2189 138.002 47.9996 139.176 47.9744 140.659C47.9491 142.135 49.1241 143.359 50.6087 143.384ZM42.0423 136.04C43.6596 136.072 44.9989 134.778 45.0241 133.163C45.0494 131.548 43.7606 130.211 42.1434 130.185C40.5261 130.16 39.1869 131.447 39.1616 133.062C39.1363 134.677 40.4251 136.015 42.0423 136.04ZM36.5462 126.286C38.3024 126.318 39.7554 124.917 39.787 123.163C39.8186 121.409 38.4161 119.958 36.6599 119.926C34.9036 119.895 33.4506 121.296 33.4191 123.05C33.3875 124.803 34.7899 126.255 36.5462 126.286ZM34.2845 115.51C36.1798 115.542 37.7465 114.034 37.7781 112.141C37.8097 110.248 36.2998 108.683 34.4046 108.652C32.5094 108.62 30.9426 110.128 30.9111 112.021C30.8795 113.914 32.3893 115.478 34.2845 115.51ZM31.4733 100.74C31.4354 102.772 33.059 104.45 35.0932 104.488C37.1274 104.526 38.8078 102.904 38.8457 100.872C38.8836 98.8409 37.26 97.1626 35.2258 97.1248C33.1916 97.0869 31.5112 98.7084 31.4733 100.74ZM38.6372 94.4244C40.8104 94.4623 42.6046 92.7335 42.6488 90.5568C42.6867 88.3864 40.9557 86.5883 38.7762 86.5504C36.603 86.5126 34.8026 88.2413 34.7647 90.418C34.7268 92.5884 36.4577 94.3866 38.6372 94.4244ZM48.524 80.6197C48.5619 78.3106 46.7235 76.3988 44.405 76.361C42.0929 76.3231 40.1787 78.1591 40.1408 80.4746C40.1029 82.7838 41.9412 84.6955 44.2597 84.7334C46.5719 84.7712 48.4861 82.9352 48.524 80.6197ZM55.7069 71.2C55.7511 68.752 53.7927 66.7267 51.3415 66.6826C48.8904 66.6384 46.8625 68.5943 46.8183 71.0423C46.7741 73.4903 48.7324 75.5155 51.1836 75.5597C53.6347 75.6039 55.6626 73.648 55.7069 71.2ZM58.7329 58.0704C56.1364 58.0263 54.0012 60.0894 53.9569 62.6762C53.9127 65.263 55.9785 67.4018 58.5686 67.446C61.1588 67.4902 63.3004 65.427 63.3446 62.8402C63.3888 60.2534 61.323 58.1146 58.7329 58.0704Z" fill="white"/>
</svg>