<svg width="401" height="325" viewBox="0 0 401 325" fill="none" xmlns="http://www.w3.org/2000/svg">
<path d="M303.84 165.575C303.84 160.958 300.038 159.059 296.112 159.059C287.435 159.059 281.729 168.06 281.729 168.06L267.109 156.691C267.109 156.691 278.403 139.516 299.321 139.516C312.28 139.516 326.307 147.571 326.307 162.967C326.307 189.972 287.199 197.673 283.75 207.857H318.815L315.369 225.623H256.648C256.648 184.641 303.84 181.562 303.84 165.571V165.575Z" fill="#00A19C"/>
<path d="M151.24 95.7135C151.24 95.7135 150.579 86.2546 149.659 80.2092L143.46 40.5273H118.271L93.0825 134.478H116.29L124.454 103.29L129.969 76.8556L124.126 77.9522L130.837 74.9096L132.186 74.2994L131.982 75.8985L131.234 81.7126C131.598 85.0224 132.102 89.1458 132.642 92.1724L137.389 119.373H157.435L172.73 92.1724C174.259 89.4927 176.156 85.9077 177.749 82.8332L179.822 77.2384L173.879 77.4617L180.966 75.4439L182.391 75.0372L181.951 76.5884L179.241 86.1031C178.873 88.101 178.525 90.1945 178.265 92.1684L172.858 134.478H195.542L206.223 40.5273H180.906L159.412 80.2092C156.114 86.3862 151.5 95.7135 151.5 95.7135H151.236H151.24Z" fill="#00A19C"/>
<path d="M203.065 134.474H241.701C246.843 134.474 251.986 133.948 256.732 132.373C269.787 128.301 279.812 118.312 279.812 103.334C279.812 95.8451 276.646 88.3562 268.47 85.3335V85.0703C277.703 80.4724 283.109 71.4043 283.109 62.8626C283.109 53.4037 277.703 45.9108 268.206 42.6289C263.592 41.0537 257.921 40.5273 251.722 40.5273H221.395L203.065 134.478V134.474ZM240.648 60.2347H252.122C257.397 60.2347 259.374 62.8626 259.374 66.4117C259.374 71.5359 255.68 76.9234 249.22 76.9234H237.351L240.648 60.2347ZM233.385 95.4145C233.537 95.3267 233.601 95.3507 233.781 95.3626L233.789 95.3188H247.768C253.439 95.3188 256.076 98.4731 256.076 102.676C256.076 106.879 253.835 110.955 250.273 113.188C248.428 114.241 246.319 114.763 243.814 114.763H229.967L233.284 97.8829L225.357 99.1869L233.381 95.4145H233.385Z" fill="#00A19C"/>
<path d="M341.538 98.3216L341.266 98.2658L332.922 99.6375L340.946 95.8652C341.086 95.7854 341.15 95.7974 341.306 95.8093C355.145 89.9513 360.252 75.2885 360.252 64.3063C360.252 53.324 354.977 46.3056 346.141 42.7566C342.187 41.1814 337.436 40.5234 332.294 40.5234H297.216L278.887 134.474H301.963L308.162 102.808H319.764L330.313 134.474H355.105L342.975 102.018C342.403 100.415 341.919 99.2029 341.534 98.3176L341.538 98.3216ZM321.881 83.1004H311.992L316.474 60.2388H326.891C332.826 60.2388 336.52 63.1299 336.52 68.6489C336.52 77.9802 330.057 83.1044 321.881 83.1044V83.1004Z" fill="#00A19C"/>
<path d="M134.379 19.9108C134.455 18.6865 134.403 17.0197 134.403 17.0197H134.455C134.455 17.0197 135.031 18.8421 135.476 19.9108L138.457 27.0767H141.411L144.416 19.9108C144.86 18.8421 145.409 17.0436 145.409 17.0436H145.461C145.461 17.0436 145.409 18.6865 145.489 19.9108L146.273 30.2549H149.619L148.13 11.7559H144.52L140.886 20.8997C140.47 21.9924 139.97 23.6114 139.97 23.6114H139.918C139.918 23.6114 139.394 21.9963 138.977 20.8997L135.344 11.7559H131.734L130.217 30.2549H133.591L134.375 19.9108H134.379Z" fill="#00A19C"/>
<path d="M159.48 21.9171C157.31 21.9171 151.584 22.2042 151.584 26.4233C151.584 29.0791 153.729 30.5665 156.106 30.5665C159.139 30.5665 160.184 28.2217 160.16 28.2217H160.212C160.212 28.2217 160.16 28.6404 160.16 29.1588V30.2515H163.217V21.9411C163.217 18.5794 161.176 16.6533 157.675 16.6533C154.513 16.6533 152.444 18.2963 152.444 18.2963L153.701 20.669C153.701 20.669 155.454 19.3929 157.363 19.3929C158.827 19.3929 159.924 19.9911 159.924 21.7377V21.9211H159.48V21.9171ZM159.952 24.1822V24.4932C159.952 26.1082 158.695 27.9825 156.946 27.9825C155.586 27.9825 154.933 27.149 154.933 26.2638C154.933 24.4134 157.679 24.1782 159.38 24.1782H159.956L159.952 24.1822Z" fill="#00A19C"/>
<path d="M170.073 30.3826C170.621 30.3826 171.117 30.3029 171.117 30.3029V27.4118C171.117 27.4118 170.881 27.4397 170.621 27.4397C169.757 27.4397 169.261 27.0768 169.261 25.6173V11.752H165.967V26.1078C165.967 29.9121 168.244 30.3826 170.073 30.3826Z" fill="#00A19C"/>
<path d="M179.822 21.9171C177.653 21.9171 171.926 22.2042 171.926 26.4233C171.926 29.0791 174.071 30.5665 176.448 30.5665C179.482 30.5665 180.526 28.2217 180.502 28.2217H180.554C180.554 28.2217 180.502 28.6404 180.502 29.1588V30.2515H183.56V21.9411C183.56 18.5794 181.519 16.6533 178.017 16.6533C174.855 16.6533 172.786 18.2963 172.786 18.2963L174.043 20.669C174.043 20.669 175.796 19.3929 177.705 19.3929C179.169 19.3929 180.266 19.9911 180.266 21.7377V21.9211H179.822V21.9171ZM180.294 24.1822V24.4932C180.294 26.1082 179.037 27.9825 177.288 27.9825C175.928 27.9825 175.275 27.149 175.275 26.2638C175.275 24.4134 178.021 24.1782 179.722 24.1782H180.298L180.294 24.1822Z" fill="#00A19C"/>
<path d="M189.579 31.216C189.082 32.3884 188.194 32.9347 187.277 32.9347C186.521 32.9347 185.785 32.3884 185.785 32.3884L184.688 34.8648C184.688 34.8648 185.865 35.7261 187.462 35.7261C189.475 35.7261 191.332 34.6853 192.272 32.2608L198.235 16.9639H194.601L191.988 24.6761C191.752 25.378 191.544 26.4228 191.544 26.4228H191.492C191.492 26.4228 191.255 25.3301 190.995 24.6243L188.198 16.9639H184.46L190.083 30.0436L189.587 31.216H189.579Z" fill="#00A19C"/>
<path d="M203.618 27.7513C201.449 27.7513 199.984 26.2917 199.984 26.2917L198.467 28.6126C198.467 28.6126 200.324 30.5666 203.646 30.5666C206.967 30.5666 208.744 28.796 208.744 26.5789C208.744 22.304 202.257 22.5393 202.257 20.6651C202.257 19.8316 203.093 19.4648 203.958 19.4648C205.999 19.4648 207.227 20.6092 207.227 20.6092L208.456 18.1608C208.456 18.1608 206.991 16.6494 203.986 16.6494C200.98 16.6494 198.887 18.081 198.887 20.5574C198.887 24.8322 205.37 24.569 205.37 26.5509C205.37 27.3325 204.558 27.7513 203.618 27.7513Z" fill="#00A19C"/>
<path d="M214.179 11.752H210.885V14.6949H214.179V11.752Z" fill="#00A19C"/>
<path d="M214.207 16.9639H210.885V30.251H214.207V16.9639Z" fill="#00A19C"/>
<path d="M224.116 21.9171C221.947 21.9171 216.22 22.2042 216.22 26.4233C216.22 29.0791 218.365 30.5665 220.742 30.5665C223.776 30.5665 224.82 28.2217 224.796 28.2217H224.848C224.848 28.2217 224.796 28.6404 224.796 29.1588V30.2515H227.854V21.9411C227.854 18.5794 225.813 16.6533 222.311 16.6533C219.145 16.6533 217.08 18.2963 217.08 18.2963L218.337 20.669C218.337 20.669 220.09 19.3929 221.999 19.3929C223.463 19.3929 224.56 19.9911 224.56 21.7377V21.9211H224.116V21.9171ZM224.588 24.1822V24.4932C224.588 26.1082 223.331 27.9825 221.579 27.9825C220.218 27.9825 219.566 27.149 219.566 26.2638C219.566 24.4134 222.311 24.1782 224.012 24.1782H224.588V24.1822Z" fill="#00A19C"/>
<path d="M247.728 24.7283C247.728 22.854 246.759 20.9758 244.718 20.3777V20.3258C246.131 19.5721 246.967 18.0847 246.967 16.366C246.967 13.3194 244.586 11.5967 241.24 11.5967H234.597V30.0958H241.316C244.742 30.0958 247.724 28.4289 247.724 24.7283H247.728ZM237.975 14.4878H241.192C242.761 14.4878 243.546 15.4528 243.546 16.7807C243.546 18.1086 242.709 19.1534 241.244 19.1534H237.975V14.4878ZM237.975 21.8611H241.581C243.281 21.8611 244.274 22.9817 244.274 24.5209C244.274 26.0602 243.305 27.2047 241.581 27.2047H237.975V21.8611Z" fill="#00A19C"/>
<path d="M253.663 16.8086H250.341V30.0957H253.663V16.8086Z" fill="#00A19C"/>
<path d="M253.635 11.5967H250.341V14.5396H253.635V11.5967Z" fill="#00A19C"/>
<path d="M261.795 30.4108C264.852 30.4108 265.977 28.1458 265.977 28.1458H266.029C266.029 28.1458 265.977 28.5126 265.977 29.0071V30.0997H269.114V11.5967H265.793V17.4347C265.793 17.8534 265.821 18.1924 265.821 18.1924H265.769C265.769 18.1924 264.852 16.4976 261.927 16.4976C258.397 16.4976 255.888 19.2332 255.888 23.4562C255.888 27.6792 258.189 30.4148 261.799 30.4148L261.795 30.4108ZM262.579 19.3369C264.8 19.3369 265.901 21.3706 265.901 23.4283C265.901 26.3712 264.28 27.6234 262.555 27.6234C260.594 27.6234 259.233 25.9804 259.233 23.4562C259.233 20.932 260.75 19.3409 262.579 19.3409V19.3369Z" fill="#00A19C"/>
<path d="M281.981 23.1931H285.222L288.908 30.0958H292.674L288.856 23.1931C288.492 22.5431 288.228 22.2799 288.228 22.2799V22.2281C290.189 21.4465 291.365 19.3888 291.365 17.1716C291.365 14.7231 290.189 12.9486 288.332 12.1152C287.519 11.7523 286.607 11.5928 284.594 11.5928H278.607V30.0919H281.981V23.1891V23.1931ZM281.981 14.4919H284.542C287.183 14.4919 287.94 15.5845 287.94 17.359C287.94 19.1336 286.815 20.278 285.01 20.278H281.977V14.4919H281.981Z" fill="#00A19C"/>
<path d="M300.99 30.4113C305.044 30.4113 308.314 27.5441 308.314 23.4527C308.314 19.3613 305.044 16.4941 300.966 16.4941C296.888 16.4941 293.646 19.3852 293.646 23.4527C293.646 27.5202 296.916 30.4113 300.994 30.4113H300.99ZM300.99 19.3135C303.135 19.3135 304.94 21.0083 304.94 23.4567C304.94 25.9052 303.135 27.6 300.99 27.6C298.845 27.6 297.016 25.9331 297.016 23.4567C297.016 20.9803 298.821 19.3135 300.99 19.3135Z" fill="#00A19C"/>
<path d="M314.901 30.4107C317.178 30.4107 318.875 29.031 319.527 27.6472H319.58C319.58 27.6472 319.527 28.066 319.527 28.5844V30.0957H322.717V16.8086H319.395V22.9058C319.395 25.2785 318.063 27.388 315.658 27.388C314.009 27.388 313.593 26.2954 313.593 24.6764V16.8086H310.271V25.3543C310.271 28.9752 312.048 30.4107 314.901 30.4107Z" fill="#00A19C"/>
<path d="M329.176 23.999C329.176 23.373 329.228 22.7748 329.412 22.2285C329.909 20.6374 331.217 19.5168 332.994 19.5168C334.771 19.5168 335.111 20.6095 335.111 22.2285V30.0963H338.405V21.5506C338.405 18.0334 336.732 16.4941 333.779 16.4941C331.085 16.4941 329.621 18.1371 329.044 19.2576H328.992C328.992 19.2576 329.044 18.8389 329.044 18.3444V16.8052H325.855V30.0923H329.176V23.9951V23.999Z" fill="#00A19C"/>
<path d="M346.353 30.4108C349.41 30.4108 350.535 28.1458 350.535 28.1458H350.587C350.587 28.1458 350.535 28.5126 350.535 29.0071V30.0997H353.673V11.5967H350.351V17.4347C350.351 17.8534 350.379 18.1924 350.379 18.1924H350.327C350.327 18.1924 349.41 16.4976 346.485 16.4976C342.955 16.4976 340.446 19.2332 340.446 23.4562C340.446 27.6792 342.747 30.4148 346.357 30.4148L346.353 30.4108ZM347.137 19.3369C349.358 19.3369 350.459 21.3706 350.459 23.4283C350.459 26.3712 348.838 27.6234 347.113 27.6234C345.152 27.6234 343.792 25.9804 343.792 23.4562C343.792 20.932 345.308 19.3409 347.137 19.3409V19.3369Z" fill="#00A19C"/>
<path d="M308.918 192.58L350.047 140.935H377.268L368.116 187.958H378.221L374.891 205.133H364.786L360.744 225.626H340.178L344.22 205.133H306.657L308.914 192.576L308.918 192.58ZM347.554 187.962L351.239 169.008C352.192 164.39 353.737 159.533 353.737 159.533H353.5C353.5 159.533 350.527 164.626 347.674 168.298L332.578 187.723V187.958H347.558L347.554 187.962Z" fill="#00A19C"/>
<path d="M269.771 168.888C269.771 166.228 269.595 163.696 269.222 161.308L263.283 156.69C263.283 156.69 264.42 154.963 266.637 152.606C262.747 144.483 254.939 139.515 241.601 139.515C224.824 139.515 214.503 151.199 208.708 165.243C208.772 164.498 208.808 163.74 208.808 162.966C208.808 147.566 194.781 139.515 181.823 139.515C160.9 139.515 149.611 156.69 149.611 156.69L164.23 168.059C164.23 168.059 169.937 159.055 178.613 159.055C182.535 159.055 186.341 160.953 186.341 165.57C186.341 179.181 152.168 183.455 141.991 209.695L139.882 225.626H197.875L201.32 207.856H166.255C169.048 199.598 195.277 192.974 205.11 176.377C203.285 183.81 202.497 191.236 202.497 197.432C202.497 214.843 209.749 227.045 230.551 227.045C232.828 227.045 234.985 226.818 237.034 226.403C237.034 226.403 261.587 223.632 268.15 185.262L268.138 185.278C269.266 179.432 269.783 173.761 269.783 168.884L269.771 168.888ZM231.255 208.096C226.025 208.096 224.004 203.474 224.004 196.487C224.004 183.814 229.354 158.464 240.884 158.464C246.115 158.464 248.136 163.086 248.136 170.073C248.136 182.985 242.669 208.096 231.255 208.096Z" fill="#00A19C"/>
<path d="M102.571 0L36.8904 101.201C35.9419 102.564 35.0255 103.972 34.1531 105.42L33.3647 106.632L33.1686 107.027C33.0605 107.246 32.9765 107.425 32.9164 107.565C26.4972 118.982 22.8114 132.177 22.8114 146.19C22.8114 157.109 25.0365 167.548 29.0625 177.031C35.1055 191.26 45.4267 202.983 57.8649 211.884C66.5652 218.109 80.6763 224.804 96.0479 225.542C96.7043 225.574 141.266 225.594 141.927 225.602C141.927 225.61 98.0209 225.618 98.0209 225.622H142.655L144.764 210.078C144.092 210.062 99.5177 210.038 98.8533 210.002C91.3056 209.599 84.122 207.525 77.5067 204.738C66.073 199.921 56.3201 191.854 49.4407 181.705C42.5653 171.552 38.5553 159.37 38.5553 146.182C38.5553 134.781 41.5688 124.146 46.8274 114.898L47.0155 114.571L47.1395 114.296L47.4517 113.814L47.5237 113.694C48.2841 112.426 49.0965 111.178 49.9609 109.942L50.037 109.83L102.523 28.9629L103.22 30.0396H121.929L102.571 0Z" fill="#00A19C"/>
<path d="M123.41 197.106C124.818 197.106 125.963 195.965 125.963 194.562C125.963 193.158 124.818 192.018 123.41 192.018C122.001 192.018 120.856 193.158 120.856 194.562C120.856 195.965 122.001 197.106 123.41 197.106Z" fill="#00A19C"/>
<path d="M110.995 194.53C110.995 192.938 109.703 191.65 108.106 191.65C106.509 191.65 105.217 192.938 105.217 194.53C105.217 196.121 106.509 197.409 108.106 197.409C109.703 197.409 110.995 196.121 110.995 194.53Z" fill="#00A19C"/>
<path d="M96.6283 192.759C96.6283 190.984 95.1835 189.549 93.4067 189.549C91.6258 189.549 90.1851 190.988 90.1851 192.759C90.1851 194.533 91.6298 195.969 93.4067 195.969C95.1875 195.969 96.6283 194.53 96.6283 192.759Z" fill="#00A19C"/>
<path d="M83.5178 187.714C83.5178 185.756 81.925 184.169 79.96 184.169C77.995 184.169 76.4022 185.756 76.4022 187.714C76.4022 189.672 77.995 191.259 79.96 191.259C81.925 191.259 83.5178 189.672 83.5178 187.714Z" fill="#00A19C"/>
<path d="M72.3122 177.864C72.3122 175.723 70.5714 173.988 68.4223 173.988C66.2732 173.988 64.5323 175.723 64.5323 177.864C64.5323 180.006 66.2732 181.744 68.4223 181.744C70.5714 181.744 72.3122 180.01 72.3122 177.864Z" fill="#00A19C"/>
<path d="M65.1246 164.741C65.1246 162.416 63.2316 160.53 60.8985 160.53C58.5653 160.53 56.6724 162.416 56.6724 164.741C56.6724 167.066 58.5653 168.952 60.8985 168.952C63.2316 168.952 65.1246 167.066 65.1246 164.741Z" fill="#00A19C"/>
<path d="M62.2111 150.193C62.2111 147.685 60.1701 145.647 57.6488 145.647C55.1316 145.647 53.0865 147.681 53.0865 150.193C53.0865 152.702 55.1276 154.739 57.6488 154.739C60.1661 154.739 62.2111 152.706 62.2111 150.193Z" fill="#00A19C"/>
<path d="M63.3637 135.247C63.3637 132.551 61.1706 130.37 58.4693 130.37C55.7639 130.37 53.5748 132.555 53.5748 135.247C53.5748 137.943 55.7679 140.124 58.4693 140.124C61.1746 140.124 63.3637 137.939 63.3637 135.247Z" fill="#00A19C"/>
<path d="M68.162 121.506C68.162 118.627 65.8209 116.294 62.9314 116.294C60.042 116.294 57.7008 118.627 57.7008 121.506C57.7008 124.385 60.042 126.718 62.9314 126.718C65.8209 126.718 68.162 124.385 68.162 121.506Z" fill="#00A19C"/>
<path d="M75.7298 108.203C75.7298 105.141 73.2406 102.66 70.167 102.66C67.0935 102.66 64.6042 105.145 64.6042 108.203C64.6042 111.266 67.0935 113.746 70.167 113.746C73.2406 113.746 75.7298 111.262 75.7298 108.203Z" fill="#00A19C"/>
<path d="M85.0465 95.5693C85.0465 92.3233 82.4052 89.6914 79.1476 89.6914C75.89 89.6914 73.2487 92.3233 73.2487 95.5693C73.2487 98.8153 75.89 101.447 79.1476 101.447C82.4052 101.447 85.0465 98.8153 85.0465 95.5693Z" fill="#00A19C"/>
<path d="M94.9834 84.3203C94.9834 80.8909 92.194 78.1074 88.7523 78.1074C85.3106 78.1074 82.5172 80.8869 82.5172 84.3203C82.5172 87.7498 85.3066 90.5332 88.7523 90.5332C92.194 90.5332 94.9834 87.7537 94.9834 84.3203Z" fill="#00A19C"/>
<path d="M17.0645 279.987V260.878H9.60474V257.337H28.6542V260.878H21.1945V279.987H17.0645Z" fill="white"/>
<path d="M28.4136 279.987V263.717H32.3196V266.524C32.3196 267.13 32.2555 267.673 32.2555 267.673H32.3196C33.0559 265.344 35.0089 263.494 37.5062 263.494C37.8903 263.494 38.2425 263.557 38.2425 263.557V267.545C38.2425 267.545 37.8263 267.481 37.282 267.481C35.5532 267.481 33.6002 268.47 32.8318 270.895C32.5757 271.692 32.4796 272.586 32.4796 273.543V279.987H28.4136Z" fill="white"/>
<path d="M39.6057 275.297C39.6057 270.129 46.6172 269.778 49.2745 269.778H49.8188V269.555C49.8188 267.418 48.4741 266.684 46.6812 266.684C44.3441 266.684 42.199 268.247 42.199 268.247L40.6622 265.344C40.6622 265.344 43.1915 263.334 47.0654 263.334C51.3556 263.334 53.8528 265.695 53.8528 269.81V279.987H50.1069V278.647C50.1069 278.009 50.171 277.499 50.171 277.499H50.1069C50.139 277.499 48.8583 280.37 45.1445 280.37C42.231 280.37 39.6057 278.551 39.6057 275.297ZM43.7037 275.106C43.7037 276.191 44.5041 277.211 46.169 277.211C48.314 277.211 49.8508 274.915 49.8508 272.937V272.554H49.1465C47.0654 272.554 43.7037 272.841 43.7037 275.106Z" fill="white"/>
<path d="M58.0847 279.987V263.717H61.9906V265.599C61.9906 266.205 61.9266 266.716 61.9266 266.716H61.9906C62.695 265.344 64.4879 263.334 67.7855 263.334C71.4033 263.334 73.4523 265.216 73.4523 269.523V279.987H69.4183V270.353C69.4183 268.375 68.9061 267.035 66.825 267.035C64.6479 267.035 63.0471 268.407 62.4388 270.353C62.2147 271.022 62.1507 271.756 62.1507 272.522V279.987H58.0847Z" fill="white"/>
<path d="M76.3428 277.977L78.1997 275.138C78.1997 275.138 79.9926 276.924 82.6499 276.924C83.8025 276.924 84.795 276.414 84.795 275.457C84.795 273.032 76.855 273.351 76.855 268.119C76.855 265.089 79.5764 263.334 83.0981 263.334C86.78 263.334 88.5729 265.184 88.5729 265.184L87.0681 268.183C87.0681 268.183 85.5634 266.78 83.0661 266.78C82.0096 266.78 80.9851 267.226 80.9851 268.247C80.9851 270.544 88.925 270.257 88.925 275.489C88.925 278.2 86.5559 280.37 82.6819 280.37C78.6159 280.37 76.3428 277.977 76.3428 277.977Z" fill="white"/>
<path d="M93.0278 279.987V267.194H91.0108V263.972H93.0278V263.238C93.0278 257.911 97.414 257.209 99.6872 257.209C100.52 257.209 101.064 257.305 101.064 257.305V260.75C101.064 260.75 100.712 260.686 100.231 260.686C99.0789 260.686 97.0939 260.973 97.0939 263.334V263.972H100.584V267.194H97.0939V279.987H93.0278Z" fill="white"/>
<path d="M102.078 271.852C102.078 266.875 106.08 263.334 111.043 263.334C116.037 263.334 120.039 266.875 120.039 271.852C120.039 276.861 116.037 280.37 111.075 280.37C106.08 280.37 102.078 276.861 102.078 271.852ZM106.208 271.852C106.208 274.883 108.417 276.924 111.075 276.924C113.7 276.924 115.909 274.883 115.909 271.852C115.909 268.853 113.7 266.78 111.075 266.78C108.417 266.78 106.208 268.853 106.208 271.852Z" fill="white"/>
<path d="M123.305 279.987V263.717H127.211V266.524C127.211 267.13 127.147 267.673 127.147 267.673H127.211C127.947 265.344 129.9 263.494 132.397 263.494C132.781 263.494 133.134 263.557 133.134 263.557V267.545C133.134 267.545 132.717 267.481 132.173 267.481C130.444 267.481 128.491 268.47 127.723 270.895C127.467 271.692 127.371 272.586 127.371 273.543V279.987H123.305Z" fill="white"/>
<path d="M135.873 279.987V263.717H139.779V265.599C139.779 266.205 139.715 266.716 139.715 266.716H139.779C140.58 265.121 142.533 263.334 145.094 263.334C147.591 263.334 149.192 264.483 149.864 266.684H149.928C150.825 264.929 152.938 263.334 155.499 263.334C158.893 263.334 160.846 265.248 160.846 269.523V279.987H156.78V270.289C156.78 268.438 156.428 267.035 154.539 267.035C152.458 267.035 151.081 268.694 150.601 270.735C150.441 271.373 150.409 272.075 150.409 272.841V279.987H146.343V270.289C146.343 268.534 146.055 267.035 144.134 267.035C142.021 267.035 140.644 268.694 140.132 270.767C139.972 271.373 139.939 272.107 139.939 272.841V279.987H135.873Z" fill="white"/>
<path d="M165.107 260.942V257.337H169.141V260.942H165.107ZM165.107 279.987V263.717H169.173V279.987H165.107Z" fill="white"/>
<path d="M173.642 279.987V263.717H177.548V265.599C177.548 266.205 177.484 266.716 177.484 266.716H177.548C178.253 265.344 180.045 263.334 183.343 263.334C186.961 263.334 189.01 265.216 189.01 269.523V279.987H184.976V270.353C184.976 268.375 184.464 267.035 182.383 267.035C180.206 267.035 178.605 268.407 177.996 270.353C177.772 271.022 177.708 271.756 177.708 272.522V279.987H173.642Z" fill="white"/>
<path d="M194.942 282.188C194.942 282.188 196.991 283.241 199.456 283.241C201.953 283.241 204.066 282.188 204.066 279.285V278.328C204.066 277.945 204.13 277.467 204.13 277.467H204.066C203.106 278.902 201.697 279.668 199.52 279.668C194.846 279.668 192.189 275.903 192.189 271.437C192.189 266.971 194.718 263.334 199.424 263.334C202.978 263.334 204.259 265.408 204.259 265.408H204.355C204.355 265.408 204.323 265.216 204.323 264.961V263.717H208.132V278.998C208.132 284.581 203.778 286.686 199.52 286.686C197.471 286.686 195.294 286.112 193.725 285.283L194.942 282.188ZM200.385 276.254C202.338 276.254 204.163 275.138 204.163 271.469C204.163 267.768 202.338 266.78 200.129 266.78C197.663 266.78 196.287 268.566 196.287 271.31C196.287 274.149 197.759 276.254 200.385 276.254Z" fill="white"/>
<path d="M218.175 285.634L219.52 282.603C219.52 282.603 220.416 283.273 221.345 283.273C222.465 283.273 223.554 282.603 224.162 281.167L224.771 279.732L217.887 263.717H222.465L225.891 273.096C226.211 273.957 226.499 275.297 226.499 275.297H226.563C226.563 275.297 226.82 274.021 227.108 273.16L230.309 263.717H234.76L227.46 282.443C226.307 285.41 224.034 286.686 221.569 286.686C219.616 286.686 218.175 285.634 218.175 285.634Z" fill="white"/>
<path d="M235.864 271.852C235.864 266.875 239.866 263.334 244.828 263.334C249.823 263.334 253.825 266.875 253.825 271.852C253.825 276.861 249.823 280.37 244.86 280.37C239.866 280.37 235.864 276.861 235.864 271.852ZM239.994 271.852C239.994 274.883 242.203 276.924 244.86 276.924C247.485 276.924 249.694 274.883 249.694 271.852C249.694 268.853 247.485 266.78 244.86 266.78C242.203 266.78 239.994 268.853 239.994 271.852Z" fill="white"/>
<path d="M256.866 274.181V263.717H260.932V273.351C260.932 275.329 261.444 276.669 263.461 276.669C266.407 276.669 268.04 274.085 268.04 271.182V263.717H272.106V279.987H268.2V278.137C268.2 277.499 268.264 276.988 268.264 276.988H268.2C267.399 278.679 265.318 280.37 262.533 280.37C259.043 280.37 256.866 278.615 256.866 274.181Z" fill="white"/>
<path d="M276.6 279.987V263.717H280.506V266.524C280.506 267.13 280.442 267.673 280.442 267.673H280.506C281.242 265.344 283.195 263.494 285.692 263.494C286.077 263.494 286.429 263.557 286.429 263.557V267.545C286.429 267.545 286.013 267.481 285.468 267.481C283.739 267.481 281.786 268.47 281.018 270.895C280.762 271.692 280.666 272.586 280.666 273.543V279.987H276.6Z" fill="white"/>
<path d="M297.594 279.987V257.337H310.657V260.878H301.724V267.29H309.248V270.831H301.724V279.987H297.594Z" fill="white"/>
<path d="M313.488 274.181V263.717H317.554V273.351C317.554 275.329 318.066 276.669 320.083 276.669C323.029 276.669 324.662 274.085 324.662 271.182V263.717H328.728V279.987H324.822V278.137C324.822 277.499 324.886 276.988 324.886 276.988H324.822C324.021 278.679 321.94 280.37 319.155 280.37C315.665 280.37 313.488 278.615 313.488 274.181Z" fill="white"/>
<path d="M333.926 274.021V267.194H331.813V263.972H334.022V259.283H337.992V263.972H341.706V267.194H337.992V273.511C337.992 276.191 340.105 276.573 341.226 276.573C341.674 276.573 341.962 276.51 341.962 276.51V280.051C341.962 280.051 341.482 280.146 340.714 280.146C338.44 280.146 333.926 279.476 333.926 274.021Z" fill="white"/>
<path d="M345.066 274.181V263.717H349.132V273.351C349.132 275.329 349.645 276.669 351.662 276.669C354.607 276.669 356.24 274.085 356.24 271.182V263.717H360.306V279.987H356.4V278.137C356.4 277.499 356.464 276.988 356.464 276.988H356.4C355.6 278.679 353.519 280.37 350.733 280.37C347.243 280.37 345.066 278.615 345.066 274.181Z" fill="white"/>
<path d="M364.8 279.987V263.717H368.706V266.524C368.706 267.13 368.642 267.673 368.642 267.673H368.706C369.442 265.344 371.395 263.494 373.893 263.494C374.277 263.494 374.629 263.557 374.629 263.557V267.545C374.629 267.545 374.213 267.481 373.669 267.481C371.94 267.481 369.987 268.47 369.218 270.895C368.962 271.692 368.866 272.586 368.866 273.543V279.987H364.8Z" fill="white"/>
<path d="M376.216 271.852C376.216 266.843 379.642 263.334 384.508 263.334C389.215 263.334 391.744 266.748 391.744 271.054C391.744 271.533 391.648 272.618 391.648 272.618H380.378C380.635 275.457 382.844 276.924 385.277 276.924C387.902 276.924 389.983 275.138 389.983 275.138L391.552 278.041C391.552 278.041 389.055 280.37 384.989 280.37C379.578 280.37 376.216 276.478 376.216 271.852ZM380.506 269.842H387.646C387.582 267.641 386.205 266.461 384.412 266.461C382.331 266.461 380.891 267.737 380.506 269.842Z" fill="white"/>
<path d="M23.7363 318.269L18.7418 301.999H23.0319L25.8814 312.686C26.1055 313.548 26.2015 314.409 26.2015 314.409H26.2655C26.2655 314.409 26.4256 313.548 26.6497 312.686L29.6592 302.031H33.277L36.2865 312.686C36.5107 313.548 36.6387 314.409 36.6387 314.409H36.7028C36.7028 314.409 36.8308 313.548 37.0549 312.686L39.9043 301.999H44.1305L39.168 318.269H34.6537L31.9004 308.986C31.6442 308.124 31.4841 307.231 31.4841 307.231H31.4201C31.4201 307.231 31.2921 308.124 31.0359 308.986L28.2826 318.269H23.7363Z" fill="white"/>
<path d="M46.8291 299.224V295.619H50.8631V299.224H46.8291ZM46.8291 318.269V301.999H50.8951V318.269H46.8291Z" fill="white"/>
<path d="M56.0689 312.303V305.476H53.9559V302.254H56.165V297.565H60.1349V302.254H63.8488V305.476H60.1349V311.793C60.1349 314.473 62.248 314.856 63.3685 314.856C63.8168 314.856 64.1049 314.792 64.1049 314.792V318.333C64.1049 318.333 63.6247 318.429 62.8563 318.429C60.5832 318.429 56.0689 317.759 56.0689 312.303Z" fill="white"/>
<path d="M67.4331 318.269V295.619H71.4991V303.467C71.4991 304.264 71.4351 304.838 71.4351 304.838H71.4991C72.2995 303.275 74.2845 301.616 77.1339 301.616C80.7517 301.616 82.8007 303.499 82.8007 307.805V318.269H78.7667V308.635C78.7667 306.657 78.2545 305.317 76.1734 305.317C74.0284 305.317 72.3635 306.721 71.7552 308.699C71.5631 309.337 71.4991 310.038 71.4991 310.804V318.269H67.4331Z" fill="white"/>
<path d="M108.172 318.269L106.763 313.484H99.6234L98.2467 318.269H92.4838L100.264 295.459H106.155L113.935 318.269H108.172ZM103.241 300.659H103.177C103.177 300.659 102.665 303.148 102.249 304.583L100.936 309.018H105.45L104.17 304.583C103.753 303.148 103.241 300.659 103.241 300.659Z" fill="#00A19C"/>
<path d="M114.738 310.038C114.738 304.838 117.876 301.457 122.262 301.457C125.592 301.457 126.584 302.765 126.584 302.765H126.648C126.648 302.765 126.616 302.446 126.616 302.031V295.459H132.155V318.269H126.969V317.184C126.969 316.674 127.001 316.259 127.001 316.259H126.937C126.937 316.259 125.56 318.652 122.166 318.652C117.684 318.652 114.738 315.143 114.738 310.038ZM120.309 310.038C120.309 312.495 121.622 314.09 123.543 314.09C125.208 314.09 126.776 312.878 126.776 310.038C126.776 308.061 125.72 306.115 123.543 306.115C121.814 306.115 120.309 307.518 120.309 310.038Z" fill="#00A19C"/>
<path d="M139.83 318.269L134.131 301.84H139.958L142.519 310.581C142.839 311.634 143.128 313.42 143.128 313.42H143.192C143.192 313.42 143.48 311.665 143.8 310.581L146.329 301.84H152.188L146.585 318.269H139.83Z" fill="#00A19C"/>
<path d="M152.973 313.356C152.973 308.571 159.985 308.029 162.546 308.029H162.77V307.742C162.77 306.37 161.714 305.923 160.337 305.923C158.256 305.923 155.887 307.486 155.887 307.486L153.966 303.594C153.966 303.594 156.815 301.457 160.881 301.457C165.523 301.457 168.309 303.977 168.309 308.156V318.269H163.25V317.28C163.25 316.738 163.314 316.259 163.314 316.259H163.25C163.25 316.259 162.034 318.652 158.576 318.652C155.503 318.652 152.973 316.61 152.973 313.356ZM158.544 313.069C158.544 313.835 159.024 314.441 160.113 314.441C161.554 314.441 162.834 312.878 162.834 311.538V311.187H162.322C160.561 311.187 158.544 311.697 158.544 313.069Z" fill="#00A19C"/>
<path d="M172.137 318.269V301.84H177.452V303.275C177.452 303.818 177.388 304.296 177.388 304.296H177.452C178.22 303.02 179.789 301.457 182.702 301.457C186.032 301.457 188.625 302.988 188.625 307.614V318.269H183.087V308.635C183.087 307.103 182.478 306.465 181.262 306.465C179.533 306.465 178.476 307.422 177.996 308.826C177.772 309.464 177.676 310.198 177.676 310.995V318.269H172.137Z" fill="#00A19C"/>
<path d="M193.323 312.208V306.434H191.21V302.127H193.483V297.405H198.862V302.127H202.32V306.434H198.862V311.474C198.862 313.324 200.751 313.58 201.808 313.58C202.256 313.58 202.544 313.548 202.544 313.548V318.333C202.544 318.333 201.936 318.429 201.039 318.429C198.414 318.429 193.323 317.727 193.323 312.208Z" fill="#00A19C"/>
<path d="M204.53 313.356C204.53 308.571 211.542 308.029 214.103 308.029H214.327V307.742C214.327 306.37 213.271 305.923 211.894 305.923C209.813 305.923 207.444 307.486 207.444 307.486L205.523 303.594C205.523 303.594 208.372 301.457 212.438 301.457C217.08 301.457 219.866 303.977 219.866 308.156V318.269H214.807V317.28C214.807 316.738 214.871 316.259 214.871 316.259H214.807C214.807 316.259 213.591 318.652 210.133 318.652C207.059 318.652 204.53 316.61 204.53 313.356ZM210.101 313.069C210.101 313.835 210.581 314.441 211.67 314.441C213.11 314.441 214.391 312.878 214.391 311.538V311.187H213.879C212.118 311.187 210.101 311.697 210.101 313.069Z" fill="#00A19C"/>
<path d="M225.743 319.322C225.743 319.322 227.792 320.375 230.385 320.375C232.37 320.375 234.195 319.641 234.195 317.216V316.674C234.195 316.483 234.227 316.068 234.227 316.068H234.163C233.203 317.216 231.954 317.791 230.033 317.791C225.071 317.791 222.605 313.739 222.605 309.528C222.605 305.349 225.007 301.457 230.001 301.457C233.011 301.457 234.483 303.052 234.483 303.052H234.579C234.579 303.052 234.547 302.861 234.547 302.669V301.84H239.734V316.77C239.734 322.767 234.932 324.968 230.417 324.968C228.208 324.968 225.775 324.33 224.174 323.501L225.743 319.322ZM231.346 313.197C232.787 313.197 234.323 312.463 234.323 309.592C234.323 306.689 232.787 306.051 231.122 306.051C229.169 306.051 228.176 307.454 228.176 309.337C228.176 311.378 229.137 313.197 231.346 313.197Z" fill="#00A19C"/>
<path d="M242.644 310.038C242.644 305.221 245.91 301.457 251.225 301.457C256.091 301.457 258.845 304.838 258.845 309.4C258.845 309.943 258.716 311.123 258.716 311.123H248.311C248.727 313.133 250.392 314.058 252.153 314.058C254.522 314.058 256.699 312.399 256.699 312.399L258.749 316.259C258.749 316.259 256.091 318.652 251.705 318.652C245.814 318.652 242.644 314.409 242.644 310.038ZM248.439 307.965H253.274C253.274 306.721 252.409 305.604 251.097 305.604C249.496 305.604 248.727 306.753 248.439 307.965Z" fill="#00A19C"/>
<path d="M260.749 310.038C260.749 304.838 263.886 301.457 268.272 301.457C271.602 301.457 272.595 302.765 272.595 302.765H272.659C272.659 302.765 272.627 302.446 272.627 302.031V295.459H278.165V318.269H272.979V317.184C272.979 316.674 273.011 316.259 273.011 316.259H272.947C272.947 316.259 271.57 318.652 268.176 318.652C263.694 318.652 260.749 315.143 260.749 310.038ZM266.32 310.038C266.32 312.495 267.632 314.09 269.553 314.09C271.218 314.09 272.787 312.878 272.787 310.038C272.787 308.061 271.73 306.115 269.553 306.115C267.824 306.115 266.32 307.518 266.32 310.038Z" fill="#00A19C"/>
<path d="M290.872 318.269V295.619H304.479V299.16H295.002V305.094H302.654V308.635H295.002V314.728H304.991V318.269H290.872Z" fill="white"/>
<path d="M308.647 318.269V301.999H312.553V303.881C312.553 304.488 312.489 304.998 312.489 304.998H312.553C313.257 303.626 315.05 301.616 318.348 301.616C321.966 301.616 324.015 303.499 324.015 307.805V318.269H319.981V308.635C319.981 306.657 319.469 305.317 317.387 305.317C315.21 305.317 313.61 306.689 313.001 308.635C312.777 309.305 312.713 310.038 312.713 310.804V318.269H308.647Z" fill="white"/>
<path d="M327.129 310.134C327.129 305.126 330.555 301.616 335.421 301.616C340.128 301.616 342.657 305.03 342.657 309.337C342.657 309.815 342.561 310.9 342.561 310.9H331.291C331.548 313.739 333.757 315.207 336.19 315.207C338.815 315.207 340.896 313.42 340.896 313.42L342.465 316.323C342.465 316.323 339.968 318.652 335.902 318.652C330.491 318.652 327.129 314.76 327.129 310.134ZM331.419 308.124H338.559C338.495 305.923 337.118 304.743 335.325 304.743C333.244 304.743 331.804 306.019 331.419 308.124Z" fill="white"/>
<path d="M346.01 318.269V301.999H349.915V304.807C349.915 305.413 349.851 305.955 349.851 305.955H349.915C350.652 303.626 352.605 301.776 355.102 301.776C355.486 301.776 355.838 301.84 355.838 301.84V305.827C355.838 305.827 355.422 305.764 354.878 305.764C353.149 305.764 351.196 306.753 350.428 309.177C350.172 309.975 350.076 310.868 350.076 311.825V318.269H346.01Z" fill="white"/>
<path d="M360.243 320.47C360.243 320.47 362.292 321.523 364.757 321.523C367.255 321.523 369.368 320.47 369.368 317.567V316.61C369.368 316.227 369.432 315.749 369.432 315.749H369.368C368.407 317.184 366.999 317.95 364.821 317.95C360.147 317.95 357.49 314.186 357.49 309.719C357.49 305.253 360.019 301.616 364.725 301.616C368.279 301.616 369.56 303.69 369.56 303.69H369.656C369.656 303.69 369.624 303.499 369.624 303.243V301.999H373.434V317.28C373.434 322.863 369.08 324.968 364.821 324.968C362.772 324.968 360.595 324.394 359.027 323.565L360.243 320.47ZM365.686 314.537C367.639 314.537 369.464 313.42 369.464 309.751C369.464 306.051 367.639 305.062 365.43 305.062C362.964 305.062 361.588 306.848 361.588 309.592C361.588 312.431 363.061 314.537 365.686 314.537Z" fill="white"/>
<path d="M375.691 323.916L377.036 320.885C377.036 320.885 377.932 321.555 378.861 321.555C379.981 321.555 381.07 320.885 381.678 319.449L382.287 318.014L375.403 301.999H379.981L383.407 311.378C383.727 312.24 384.015 313.58 384.015 313.58H384.079C384.079 313.58 384.336 312.303 384.624 311.442L387.825 301.999H392.276L384.976 320.726C383.823 323.692 381.55 324.968 379.085 324.968C377.132 324.968 375.691 323.916 375.691 323.916Z" fill="white"/>
</svg>
