<svg width="320" height="53" viewBox="0 0 320 53" fill="none" xmlns="http://www.w3.org/2000/svg">
<g filter="url(#filter0_d_841_2497)">
<path fill-rule="evenodd" clip-rule="evenodd" d="M35.7858 16.8126C35.7858 10.7532 31.0953 5.60057 24.8929 5.04771C18.6905 4.49485 14 8.80716 14 14.8665C14 21.1028 18.6905 26.3992 24.8929 26.9521C31.0953 27.5049 35.7858 23.0488 35.7858 16.8126ZM31.8348 16.4698C31.8348 20.8264 28.7556 23.7786 24.8929 23.4359C21.0412 23.0931 17.951 19.5879 17.951 15.2314C17.951 11.0518 21.0302 8.23219 24.8929 8.57496C28.7446 8.91773 31.8348 12.2902 31.8348 16.4698ZM38.9974 12.6165L38.9973 12.6164L38.9971 12.6164L38.997 12.6164L38.9969 12.6164L38.9968 12.6164L38.9967 12.6164L38.9965 12.6164L38.9964 12.6164L38.9963 12.6164L38.9962 12.6164L38.996 12.6163L38.9959 12.6163L38.9958 12.6163L38.9957 12.6163L38.9956 12.6163L38.9954 12.6163C38.3339 12.5583 37.6724 12.5003 37.0108 12.4451L36.9888 12.434L42.4849 28.1242C43.2298 28.185 43.972 28.2486 44.7142 28.3122C45.4564 28.3758 46.1986 28.4393 46.9436 28.5001L52.3734 13.7388C51.038 13.6282 49.7137 13.5176 48.3893 13.407C47.8651 14.9329 47.3409 16.4615 46.8167 17.9901C46.2924 19.5188 45.7682 21.0475 45.2439 22.5735C45.0571 23.1423 44.903 23.9267 44.8091 24.4048L44.8091 24.4049C44.7588 24.661 44.7257 24.8291 44.7142 24.8291H44.659C44.6526 24.8291 44.63 24.7069 44.5939 24.511L44.5939 24.5108C44.5066 24.0374 44.34 23.134 44.1293 22.485C43.6056 20.8723 43.0819 19.2569 42.5582 17.6414L42.5571 17.6381L42.5566 17.6364L42.5527 17.6245L42.5526 17.6242L42.5525 17.6239L42.5525 17.6236L42.5524 17.6234L42.5523 17.6231L42.5522 17.6228L42.5521 17.6225L42.552 17.6222L42.5519 17.6219L42.5518 17.6217L42.5517 17.6214L42.5516 17.6211L42.5515 17.6208L42.5514 17.6205L42.5514 17.6202C42.0289 16.0085 41.5064 14.3968 40.9839 12.7878C40.3224 12.7326 39.6608 12.6746 38.9993 12.6166L38.9992 12.6166L38.9991 12.6166L38.9989 12.6166L38.9988 12.6166L38.9987 12.6166L38.9986 12.6166L38.9985 12.6165L38.9983 12.6165L38.9982 12.6165L38.9981 12.6165L38.998 12.6165L38.9979 12.6165L38.9977 12.6165L38.9976 12.6165L38.9975 12.6165L38.9974 12.6165ZM61.1252 14.1147C65.4956 14.4685 67.8353 17.852 67.8353 21.8768C67.8353 22.3191 67.747 23.3364 67.747 23.3364C64.2595 23.06 60.772 22.7725 57.2956 22.485C57.5273 25.1608 59.5801 26.6978 61.8426 26.8858C64.2816 27.0848 66.213 25.57 66.213 25.57C66.4558 26.0399 66.6986 26.5127 66.9414 26.9854C67.1842 27.4581 67.427 27.9307 67.6697 28.4006C67.6697 28.4006 65.3521 30.3909 61.5777 30.0813C56.5561 29.6722 53.4439 25.769 53.4439 21.4456C53.4439 16.7574 56.6224 13.7387 61.1362 14.1147H61.1252ZM64.0388 20.4394C63.9836 18.3717 62.7034 17.1665 61.0369 17.0338C59.1055 16.879 57.7701 17.9626 57.417 19.8976C58.5201 19.986 59.6233 20.0772 60.7265 20.1684L60.7276 20.1685C61.8313 20.2597 62.9351 20.3509 64.0388 20.4394ZM72.7685 15.4083L72.768 15.4083C72.1639 15.3613 71.5599 15.3143 70.9586 15.2646H70.9476V30.4904L74.722 30.7889V24.7627C74.722 23.8671 74.8103 23.0378 75.0531 22.308C75.7594 20.0855 77.5804 19.3115 79.1807 19.4332C79.6884 19.4774 80.0746 19.5659 80.0746 19.5659V15.8396C80.0746 15.8396 79.7435 15.7622 79.3904 15.729C77.0727 15.541 75.2628 17.1333 74.5785 19.2563H74.5233C74.5233 19.2563 74.5785 18.7476 74.5785 18.1837V15.5521C73.977 15.5023 73.3728 15.4553 72.7685 15.4083ZM80.9465 16.0495C81.5835 16.0974 82.2205 16.1478 82.8587 16.1984C83.5474 16.2529 84.2376 16.3075 84.9307 16.3591C85.4506 17.9602 85.9705 19.5585 86.4904 21.1568L86.5035 21.1971C87.0277 22.8085 87.5518 24.42 88.076 26.0342C88.2898 26.6925 88.4581 27.6069 88.5443 28.0753C88.5783 28.2599 88.5995 28.3752 88.6058 28.3783H88.661C88.6725 28.3783 88.7056 28.2101 88.7559 27.954L88.7559 27.9539C88.8498 27.4758 89.0039 26.6914 89.1907 26.1227L92.3361 16.9341C92.9982 16.9839 93.6632 17.0336 94.3281 17.0834C94.9931 17.1332 95.658 17.1829 96.3202 17.2327C95.4152 19.7039 94.5075 22.1724 93.5998 24.6409C92.692 27.1095 91.7842 29.578 90.8793 32.0493C89.3894 31.9388 87.9105 31.8282 86.4206 31.7066C85.5043 29.0964 84.5881 26.489 83.6718 23.8816L83.6699 23.8762C82.7548 21.272 81.8396 18.6677 80.9245 16.0606L80.9465 16.0495ZM100.321 11.5439L100.321 11.5439C99.6971 11.4969 99.0737 11.4499 98.4502 11.4057V14.7782C99.0738 14.8224 99.6973 14.8694 100.321 14.9164C100.944 14.9634 101.568 15.0104 102.192 15.0546V11.6821C101.568 11.6379 100.945 11.5909 100.321 11.5439L100.321 11.5439ZM100.337 17.5148C99.7084 17.4678 99.0793 17.4208 98.4502 17.3766V32.6024C99.0793 32.6466 99.7084 32.6936 100.337 32.7406C100.967 32.7876 101.596 32.8346 102.225 32.8788V17.653C101.596 17.6088 100.967 17.5618 100.337 17.5148ZM113.018 18.0619C117.389 18.3715 119.739 21.7219 119.739 25.7578C119.739 26.2 119.651 27.2173 119.651 27.2173L119.648 27.2171C116.161 26.9739 112.675 26.7307 109.189 26.4765C109.431 29.1523 111.473 30.6672 113.736 30.833C116.175 31.0099 118.106 29.473 118.106 29.473L119.563 32.2926C119.563 32.2926 117.245 34.316 113.471 34.0396C108.449 33.6858 105.326 29.8158 105.326 25.4924C105.326 20.8041 108.504 17.7523 113.029 18.073L113.018 18.0619ZM115.932 24.3645C115.877 22.2968 114.596 21.1027 112.93 20.9921C110.999 20.8594 109.663 21.9541 109.299 23.9001C111.506 24.0549 113.714 24.2097 115.932 24.3645ZM123.188 19.1403C122.523 19.0933 121.858 19.0463 121.196 19.002L121.185 18.991C121.958 21.5782 122.73 24.1683 123.503 26.7583C124.275 29.3486 125.048 31.9389 125.82 34.5264C126.527 34.5761 127.231 34.6231 127.934 34.6701C128.638 34.7171 129.341 34.7641 130.047 34.8139C130.908 31.9721 131.758 29.1415 132.608 26.2998C132.84 25.5147 132.961 24.6854 132.961 24.6854H133.016C133.016 24.6854 133.16 25.5368 133.402 26.3551C134.262 29.3041 135.111 32.2532 135.96 35.2022L135.96 35.2031L135.961 35.204L135.961 35.2049L135.961 35.2057L135.961 35.2066L135.962 35.2075L135.962 35.2084L135.962 35.2093L135.962 35.2101L135.963 35.211L135.963 35.2119C136.664 35.2561 137.362 35.3031 138.06 35.3501C138.758 35.3971 139.456 35.4441 140.157 35.4883C141.702 30.5126 143.236 25.5368 144.77 20.5611C144.113 20.5169 143.459 20.4754 142.805 20.4339C142.151 20.3925 141.498 20.351 140.841 20.3068C139.958 23.5902 139.075 26.8626 138.193 30.135L138.192 30.1366C137.983 30.9328 137.861 31.7289 137.861 31.7289H137.806C137.806 31.7289 137.685 30.9106 137.475 30.0924C137.011 28.4007 136.545 26.7089 136.079 25.0172C135.612 23.3254 135.146 21.6336 134.683 19.9419C133.568 19.8756 132.442 19.7982 131.328 19.7208C130.865 21.3484 130.4 22.9761 129.934 24.6038L129.934 24.6048L129.934 24.6058L129.933 24.6067L129.933 24.6077L129.933 24.6087L129.933 24.6096L129.932 24.6106L129.932 24.6116L129.932 24.6125L129.932 24.6135C129.465 26.2445 128.999 27.8754 128.535 29.5064C128.337 30.3025 128.182 31.0986 128.182 31.0986H128.127C128.127 31.0986 128.039 30.2804 127.829 29.4622L125.18 19.2785C124.518 19.2342 123.853 19.1872 123.188 19.1403ZM161.711 21.2687C166.357 21.5451 170.065 25.0834 170.065 29.7385C170.065 34.4268 166.346 37.4896 161.733 37.2132C157.086 36.9368 153.378 33.4206 153.378 28.7323C153.378 24.0772 157.098 20.9923 161.711 21.2797V21.2687ZM161.744 33.9845C164.183 34.1282 166.236 32.348 166.236 29.5063C166.236 26.6978 164.183 24.6411 161.744 24.4863C159.272 24.3315 157.219 26.1449 157.219 28.9535C157.219 31.7841 159.272 33.8297 161.744 33.9734V33.9845ZM172.946 25.5478C173.257 25.5671 173.569 25.5865 173.884 25.6031L173.895 25.6141V37.578C174.524 37.6167 175.153 37.6527 175.782 37.6886C176.411 37.7245 177.04 37.7605 177.669 37.7992V25.8353C178.21 25.8684 178.751 25.8989 179.291 25.9293C179.832 25.9597 180.373 25.9901 180.914 26.0232V23.0046C180.373 22.9715 179.832 22.941 179.291 22.9106C178.751 22.8802 178.21 22.8498 177.669 22.8167V22.2196C177.669 20.0081 179.512 19.8533 180.583 19.9086C181.024 19.9307 181.355 20.0081 181.355 20.0081V16.7794C181.355 16.7794 180.848 16.6578 180.075 16.6136C177.956 16.4919 173.884 16.9121 173.884 21.8989V22.5845C173.569 22.5679 173.257 22.5485 172.946 22.5292C172.634 22.5098 172.322 22.4905 172.008 22.4739V25.4925C172.322 25.5091 172.634 25.5284 172.946 25.5478ZM194.388 17.5311L194.389 17.5312C195.073 17.5671 195.758 17.6031 196.442 17.6418C197.132 19.422 197.822 21.2049 198.511 22.9879C199.201 24.7709 199.891 26.5539 200.581 28.3341C201.055 29.6167 201.651 31.4965 201.651 31.4965H201.706C201.706 31.4965 202.269 29.672 202.744 28.4447C203.434 26.7363 204.123 25.0252 204.813 23.3141C205.503 21.603 206.193 19.8919 206.882 18.1836C207.566 18.2167 208.251 18.2527 208.935 18.2886L208.935 18.2886C209.619 18.3245 210.304 18.3605 210.988 18.3937L211.102 19.8312L211.103 19.84C211.627 26.4469 212.153 33.0621 212.688 39.6677L212.684 39.6675C211.416 39.6013 210.148 39.535 208.88 39.4798C208.731 37.4948 208.582 35.5126 208.433 33.5305C208.284 31.5486 208.135 29.5668 207.986 27.5822C207.898 26.1779 207.953 24.2982 207.953 24.2982H207.898C207.898 24.2982 207.269 26.3217 206.761 27.5269C206.193 28.8648 205.622 30.2027 205.05 31.5405C204.479 32.8785 203.908 34.2165 203.34 35.5545C202.777 35.5268 202.217 35.4964 201.657 35.466C201.097 35.4356 200.537 35.4052 199.974 35.3775C199.413 33.9855 198.851 32.5934 198.288 31.2013L198.278 31.1783C197.713 29.7806 197.148 28.3828 196.586 26.9851C196.078 25.7356 195.427 23.6127 195.427 23.6127H195.372C195.372 23.6127 195.427 25.5256 195.338 26.9188C195.04 30.8551 194.742 34.7915 194.444 38.7168C193.804 38.6836 193.164 38.6477 192.524 38.6118C191.884 38.5758 191.244 38.5399 190.604 38.5067L192.325 17.4096L192.337 17.4206C193.02 17.4593 193.704 17.4952 194.388 17.5311ZM225.026 30.7225C224.861 30.7115 224.684 30.7004 224.519 30.7004C222.046 30.5788 215.524 30.5898 215.524 35.4218C215.524 38.4626 217.974 40.287 220.678 40.4197C224.132 40.5856 225.324 37.9539 225.291 37.9539H225.346C225.346 37.9539 225.291 38.4294 225.291 39.0265V40.276C226.461 40.3312 227.62 40.3865 228.779 40.4418V30.9216C228.779 27.0736 226.461 24.7516 222.466 24.5637C218.868 24.3867 216.517 26.1559 216.517 26.1559L217.941 28.9423C217.941 28.9423 219.938 27.5823 222.113 27.6818C223.779 27.7702 225.026 28.5111 225.026 30.5124V30.7225ZM225.048 33.6748C225.048 35.5214 223.625 37.6112 221.627 37.5117C220.071 37.4342 219.331 36.4502 219.331 35.4329C219.331 33.3099 222.466 33.1993 224.397 33.2878C224.464 33.2913 224.532 33.2959 224.6 33.3006C224.747 33.3107 224.898 33.321 225.048 33.321V33.6748ZM232.509 19.4332L234.385 19.5162L236.261 19.5991V35.4773C236.261 37.1469 236.824 37.5892 237.806 37.6334C238.104 37.6445 238.369 37.6334 238.369 37.6334V40.9506C238.369 40.9506 237.806 41.0169 237.177 40.9837C235.091 40.8953 232.498 40.2319 232.498 35.8753V19.4332H232.509ZM249.394 31.8171C249.229 31.8061 249.052 31.795 248.887 31.795H248.898C246.426 31.6955 239.903 31.7397 239.903 36.5717C239.903 39.6235 242.342 41.4258 245.057 41.5475C248.512 41.7023 249.703 39.0596 249.67 39.0596H249.726C249.726 39.0596 249.67 39.535 249.67 40.1321V41.3816C250.268 41.4042 250.862 41.4296 251.455 41.455L251.456 41.4551L251.458 41.4552L251.459 41.4552C252.026 41.4795 252.592 41.5038 253.158 41.5253V32.0051C253.158 28.1572 250.84 25.8573 246.845 25.6804C243.236 25.5256 240.885 27.3058 240.885 27.3058C241.36 28.2235 241.835 29.1523 242.309 30.0811C242.309 30.0811 244.307 28.71 246.481 28.7985C248.147 28.8648 249.394 29.6057 249.394 31.607V31.8171ZM249.417 34.7804C249.417 36.627 247.993 38.7168 245.995 38.6284C244.439 38.562 243.7 37.5779 243.7 36.5607C243.7 34.4487 246.834 34.316 248.765 34.3934L248.804 34.3956L248.843 34.3979C248.884 34.4005 248.925 34.4033 248.967 34.4062L248.968 34.4063L248.968 34.4063C249.115 34.4163 249.266 34.4266 249.417 34.4266V34.7804ZM256.27 44.1018C256.27 44.1018 257.109 44.7653 257.97 44.7985C259.018 44.8427 260.023 44.2567 260.596 42.9298C260.784 42.4875 260.972 42.0452 261.159 41.614C260.379 39.754 259.597 37.8925 258.814 36.0301L258.805 36.0089C257.455 32.7965 256.105 29.5813 254.758 26.3661C255.47 26.3937 256.179 26.4241 256.888 26.4545C257.597 26.4849 258.306 26.5154 259.018 26.543C259.548 28.0246 260.08 29.5089 260.613 30.9933L260.627 31.0314L260.634 31.0519C261.159 32.5169 261.685 33.9818 262.208 35.4441C262.506 36.2623 262.771 37.5228 262.771 37.5228H262.826C262.826 37.5228 263.069 36.3397 263.333 35.5436C264.327 32.6355 265.32 29.7275 266.313 26.8305C267.693 26.8858 269.072 26.9411 270.452 26.9853C269.32 29.8615 268.188 32.7404 267.057 35.6194L267.052 35.6313C265.923 38.5036 264.794 41.376 263.665 44.2456C262.594 46.9767 260.475 48.0935 258.18 47.994C256.359 47.9166 255.023 46.8772 255.023 46.8772L255.024 46.8759L255.024 46.8746C255.443 45.9467 255.862 45.0187 256.27 44.0908V44.1018ZM273.052 37.7836L273.045 37.777H273.056L273.052 37.7836ZM273.052 37.7836C273.167 37.9004 274.801 39.5162 277.184 39.6014C278.255 39.6456 279.182 39.1923 279.182 38.2967C279.182 37.379 277.971 36.8364 276.531 36.1906C274.413 35.2413 271.798 34.0689 271.798 31.1537C271.798 28.3231 274.326 26.775 277.603 26.8967C281.025 27.0183 282.702 28.8096 282.702 28.8096C282.47 29.2684 282.236 29.7273 282.001 30.1862C281.767 30.6451 281.532 31.1039 281.301 31.5628C281.301 31.5628 279.899 30.2028 277.581 30.1143C276.599 30.0812 275.639 30.4571 275.639 31.4191C275.639 32.2733 276.81 32.7874 278.219 33.4061C280.349 34.341 283.022 35.5148 283.022 38.4625C283.022 40.9946 280.815 42.9518 277.217 42.8191C273.432 42.6753 271.324 40.3644 271.324 40.3644L271.327 40.3596L271.33 40.3548C271.9 39.4977 272.471 38.6407 273.052 37.7836ZM286.068 21.6004L287.944 21.6668L289.821 21.7331V25.1056L287.944 25.0392L286.068 24.9729V21.6004ZM286.068 27.5713L287.956 27.6375L289.854 27.704V42.9298L287.952 42.8631L286.068 42.7971V27.5713ZM302.259 33.7743C302.093 33.7632 301.916 33.7632 301.751 33.7632L301.729 33.7743C299.257 33.6969 292.734 33.8074 292.734 38.6394C292.734 41.6912 295.173 43.4714 297.888 43.5599C301.354 43.6705 302.546 41.0167 302.512 41.0167H302.568C302.568 41.0167 302.512 41.4922 302.512 42.0893V43.3387C303.092 43.3553 303.674 43.3747 304.256 43.394C304.838 43.4134 305.421 43.4327 306 43.4493V33.9291C306 30.0811 303.682 27.8034 299.687 27.6707C296.078 27.549 293.728 29.3514 293.728 29.3514C294.09 30.0373 294.447 30.7294 294.802 31.4184C294.923 31.6513 295.042 31.8838 295.162 32.1157C295.162 32.1157 297.16 30.7225 299.334 30.7888C301.012 30.8441 302.259 31.5628 302.259 33.5642V33.7743ZM302.292 36.7265C302.292 38.5841 300.857 40.685 298.859 40.6187H298.87C297.314 40.5634 296.575 39.5903 296.575 38.5731C296.575 36.4612 299.709 36.2842 301.641 36.3506C301.85 36.3616 302.071 36.3727 302.292 36.3727V36.7265Z" fill="white"/>
</g>
<defs>
<filter id="filter0_d_841_2497" x="9" y="0" width="302" height="53" filterUnits="userSpaceOnUse" color-interpolation-filters="sRGB">
<feFlood flood-opacity="0" result="BackgroundImageFix"/>
<feColorMatrix in="SourceAlpha" type="matrix" values="0 0 0 0 0 0 0 0 0 0 0 0 0 0 0 0 0 0 127 0" result="hardAlpha"/>
<feOffset/>
<feGaussianBlur stdDeviation="2.5"/>
<feComposite in2="hardAlpha" operator="out"/>
<feColorMatrix type="matrix" values="0 0 0 0 0 0 0 0 0 1 0 0 0 0 0.94902 0 0 0 0.75 0"/>
<feBlend mode="normal" in2="BackgroundImageFix" result="effect1_dropShadow_841_2497"/>
<feBlend mode="normal" in="SourceGraphic" in2="effect1_dropShadow_841_2497" result="shape"/>
</filter>
</defs>
</svg>
