<svg width="321" height="40" viewBox="0 0 321 40" fill="none" xmlns="http://www.w3.org/2000/svg">
<path fill-rule="evenodd" clip-rule="evenodd" d="M46.7979 10.7722C46.7979 5.24654 42.4981 0.547676 36.8123 0.0435054C31.1265 -0.460665 26.8268 3.47187 26.8268 8.99757C26.8268 14.6846 31.1265 19.5146 36.8123 20.0187C42.4981 20.5229 46.7979 16.4593 46.7979 10.7722ZM43.176 10.4597C43.176 14.4325 40.3533 17.1248 36.8123 16.8122C33.2815 16.4996 30.4487 13.3032 30.4487 9.33033C30.4487 5.5188 33.2714 2.94753 36.8123 3.26011C40.3432 3.5727 43.176 6.64814 43.176 10.4597ZM49.7419 6.94567C49.1349 6.89274 48.5279 6.8398 47.9209 6.78938L47.9006 6.7793L52.9389 21.0877C53.6212 21.1431 54.3009 21.201 54.9807 21.2589L54.9808 21.2589L54.9809 21.2589L54.981 21.2589L54.9811 21.2589L54.9813 21.2589L54.9814 21.259L54.9815 21.259L54.9816 21.259L54.9817 21.259L54.9819 21.259L54.982 21.259L54.9821 21.259L54.9822 21.259L54.9823 21.259L54.9825 21.2591L54.9826 21.2591C55.663 21.3171 56.3433 21.375 57.0262 21.4305L62.0038 7.96914C60.7797 7.86831 59.5656 7.76748 58.3516 7.66664C57.872 9.05527 57.3924 10.4464 56.9129 11.8376L56.9097 11.8467C56.4292 13.2406 55.9487 14.6344 55.4682 16.0258C55.2969 16.5445 55.1557 17.2599 55.0696 17.6959L55.0696 17.6959C55.0234 17.9295 54.9932 18.0828 54.9826 18.0828H54.932C54.9261 18.0828 54.9054 17.9713 54.8723 17.7925C54.7923 17.3608 54.6396 16.537 54.4464 15.9451C53.9674 14.4779 53.4885 13.0081 53.0095 11.5384L53.0095 11.5381L53.0094 11.5379L53.0093 11.5377L53.0092 11.5375L53.0092 11.5372L53.0091 11.537L53.009 11.5368L53.0089 11.5365L53.0089 11.5363L53.0088 11.5361L53.0087 11.5359L53.0086 11.5356L53.0086 11.5354L53.0085 11.5352L53.0084 11.5349L53.0051 11.5247L53.0045 11.5231C52.524 10.0485 52.0435 8.57398 51.563 7.10197C50.956 7.05155 50.349 6.99861 49.7419 6.94567ZM70.0266 8.31195C74.0329 8.63462 76.1778 11.7201 76.1778 15.3905C76.1778 15.7938 76.0968 16.7215 76.0968 16.7215C72.8998 16.4694 69.7028 16.2073 66.516 15.9451C66.7284 18.3853 68.6102 19.7869 70.6842 19.9583C72.9201 20.1398 74.6905 18.7584 74.6905 18.7584C74.9125 19.1856 75.1344 19.6154 75.3563 20.0451L75.3582 20.0489C75.5808 20.48 75.8034 20.9111 76.026 21.3397C76.026 21.3397 73.9014 23.1547 70.4414 22.8724C65.8381 22.4993 62.9851 18.9399 62.9851 14.9972C62.9851 10.7219 65.8988 7.96912 70.0367 8.31195H70.0266ZM72.6975 14.0797C72.6469 12.1941 71.4733 11.095 69.9456 10.974C68.1752 10.8328 66.951 11.821 66.6272 13.5856C67.639 13.6662 68.6507 13.7494 69.6624 13.8326C70.6741 13.9158 71.6858 13.999 72.6975 14.0797ZM80.7001 9.49168L80.6995 9.49163C80.1458 9.44879 79.5921 9.40596 79.0409 9.3606H79.0308V23.2454L82.4908 23.5177V18.0222C82.4908 17.2055 82.5717 16.4492 82.7943 15.7837C83.4418 13.757 85.1111 13.0511 86.5781 13.162C87.0435 13.2024 87.3976 13.283 87.3976 13.283V9.88493C87.3976 9.88493 87.0941 9.81435 86.7703 9.7841C84.6457 9.61268 82.9865 11.0647 82.3593 13.0007H82.3087C82.3087 13.0007 82.3593 12.5369 82.3593 12.0226V9.62276C81.808 9.57739 81.2543 9.53455 80.7005 9.49171L80.7001 9.49168ZM88.1969 10.0764C88.7808 10.1201 89.3648 10.166 89.9498 10.2121C90.5812 10.2618 91.2138 10.3117 91.8491 10.3588C92.3297 11.8309 92.8102 13.3005 93.2908 14.7701L93.2924 14.7751C93.7724 16.2432 94.2525 17.7112 94.7325 19.1817C94.9284 19.7821 95.0827 20.6159 95.1618 21.0431C95.1929 21.2114 95.2124 21.3166 95.2181 21.3194H95.2687C95.2793 21.3194 95.3095 21.1662 95.3556 20.9328L95.3557 20.9325L95.3557 20.9323C95.4418 20.4963 95.583 19.781 95.7543 19.2624L98.6377 10.8831C99.2447 10.9285 99.8542 10.9738 100.464 11.0192C101.073 11.0646 101.683 11.11 102.29 11.1553C101.46 13.409 100.628 15.6601 99.7961 17.9112L99.7956 17.9126L99.7951 17.914L99.7946 17.9153L99.7941 17.9167L99.7936 17.9181L99.7931 17.9195L99.7925 17.9208L99.792 17.9222L99.7915 17.9236L99.791 17.925L99.7905 17.9263L99.79 17.9277L99.7895 17.9291C98.9596 20.1742 98.1296 22.4194 97.3022 24.6671C95.9364 24.5663 94.5807 24.4654 93.2149 24.3545C92.3756 21.976 91.5363 19.6 90.697 17.224L90.6961 17.2213C89.8563 14.8439 89.0164 12.4665 88.1766 10.0865L88.1969 10.0764ZM105.957 5.9676C105.386 5.92474 104.814 5.88189 104.243 5.84155V8.91699C104.814 8.95731 105.385 9.00015 105.957 9.04299L105.957 9.04304C106.529 9.08589 107.101 9.12875 107.672 9.16908V6.09364C107.101 6.05331 106.529 6.01045 105.957 5.9676ZM105.973 11.4126C105.396 11.3698 104.819 11.3269 104.243 11.2866V25.1714C104.819 25.2118 105.396 25.2546 105.973 25.2975C106.549 25.3403 107.126 25.3832 107.703 25.4235V11.5387C107.126 11.4984 106.55 11.4555 105.973 11.4127L105.973 11.4126ZM117.597 11.9116C121.603 12.1939 123.758 15.2492 123.758 18.9296C123.758 19.333 123.677 20.2606 123.677 20.2606L123.674 20.2604C120.478 20.0386 117.282 19.8169 114.087 19.585C114.309 22.0252 116.181 23.4067 118.255 23.5579C120.491 23.7192 122.261 22.3176 122.261 22.3176L123.597 24.8889C123.597 24.8889 121.472 26.7342 118.012 26.4821C113.409 26.1594 110.546 22.6302 110.546 18.6876C110.546 14.4123 113.459 11.6292 117.607 11.9217L117.597 11.9116ZM120.268 17.6591C120.217 15.7735 119.044 14.6845 117.516 14.5837C115.746 14.4627 114.522 15.4609 114.188 17.2356C116.211 17.3768 118.234 17.5179 120.268 17.6591ZM126.92 12.8949L126.919 12.8949L126.919 12.8948L126.918 12.8948L126.918 12.8948L126.918 12.8948L126.917 12.8947L126.917 12.8947L126.916 12.8947L126.916 12.8946L126.916 12.8946C126.307 12.8519 125.699 12.8091 125.094 12.7689L125.084 12.7588C125.784 15.0925 126.485 17.4288 127.185 19.765L127.186 19.7668L127.186 19.7687L127.187 19.7705L127.187 19.7724L127.188 19.7742L127.208 19.8424L127.23 19.9132L127.23 19.9151L127.231 19.9169C127.931 22.2541 128.632 24.5913 129.333 26.926C129.98 26.9713 130.625 27.0142 131.27 27.057C131.915 27.0999 132.56 27.1428 133.208 27.1881C133.997 24.5967 134.776 22.0154 135.555 19.4239C135.767 18.708 135.879 17.9517 135.879 17.9517H135.929C135.929 17.9517 136.061 18.7282 136.283 19.4743C137.071 22.1614 137.848 24.8484 138.626 27.5354L138.626 27.5363L138.626 27.5371L138.627 27.538L138.627 27.5389L138.627 27.5398L138.627 27.5407L138.628 27.5415L138.628 27.5424L138.628 27.5433L138.628 27.5442L138.63 27.5512C139.273 27.5915 139.913 27.6343 140.553 27.6772C141.193 27.7201 141.833 27.7629 142.475 27.8032C143.891 23.2657 145.298 18.7282 146.704 14.1906C146.102 14.1503 145.502 14.1125 144.903 14.0747L144.903 14.0746C144.303 14.0368 143.704 13.999 143.102 13.9587C142.293 16.9535 141.483 19.9382 140.674 22.9229C140.482 23.6489 140.371 24.3749 140.371 24.3749H140.32C140.32 24.3749 140.209 23.6287 140.017 22.8825C139.593 21.345 139.167 19.8075 138.741 18.2699L138.737 18.2561L138.737 18.2556C138.31 16.7124 137.882 15.1692 137.457 13.626C136.435 13.5655 135.403 13.4949 134.381 13.4243C133.956 14.9116 133.529 16.3989 133.102 17.8862C132.674 19.3735 132.247 20.8608 131.822 22.3481C131.64 23.0741 131.498 23.8001 131.498 23.8001H131.447C131.447 23.8001 131.366 23.0539 131.174 22.3078L128.746 13.021C128.139 12.9806 127.53 12.9378 126.92 12.8949ZM162.234 14.8359C166.493 15.088 169.892 18.3147 169.892 22.5598C169.892 26.8352 166.483 29.6283 162.254 29.3762C157.995 29.1241 154.595 25.9176 154.595 21.6422C154.595 17.3971 158.005 14.5838 162.234 14.846V14.8359ZM162.264 26.4318C164.5 26.5629 166.382 24.9395 166.382 22.348C166.382 19.7869 164.5 17.9114 162.264 17.7702C159.998 17.629 158.116 19.2827 158.116 21.8439C158.116 24.4252 159.998 26.2907 162.264 26.4217V26.4318ZM172.533 18.7381L172.533 18.7382C172.819 18.7558 173.104 18.7735 173.393 18.7886L173.403 18.7987V29.7089C173.979 29.7442 174.555 29.7769 175.131 29.8096L175.133 29.8097C175.709 29.8425 176.286 29.8753 176.863 29.9106V19.0003C177.359 19.0306 177.854 19.0583 178.35 19.086C178.846 19.1138 179.342 19.1415 179.837 19.1717V16.419C179.342 16.3887 178.846 16.361 178.35 16.3333C177.854 16.3055 177.359 16.2778 176.863 16.2475V15.703C176.863 13.6864 178.552 13.5452 179.534 13.5956C179.938 13.6158 180.242 13.6864 180.242 13.6864V10.742C180.242 10.742 179.776 10.6311 179.068 10.5908C177.126 10.4798 173.393 10.863 173.393 15.4106V16.0358C173.104 16.0207 172.819 16.003 172.533 15.9854L172.533 15.9854C172.247 15.9677 171.961 15.9501 171.673 15.935V18.6877C171.961 18.7028 172.246 18.7205 172.532 18.7381L172.533 18.7381ZM190.308 11.3267C190.936 11.362 191.563 11.3948 192.19 11.4276C192.817 11.4603 193.445 11.4931 194.072 11.5284C194.704 13.1518 195.337 14.7778 195.969 16.4037C196.601 18.0297 197.233 19.6556 197.866 21.2791C198.301 22.4487 198.847 24.1629 198.847 24.1629H198.898C198.898 24.1629 199.414 22.4992 199.849 21.3799C200.481 19.8233 201.112 18.2643 201.744 16.7052L201.746 16.7016C202.378 15.1411 203.01 13.5805 203.643 12.0225C204.27 12.0527 204.897 12.0855 205.525 12.1183C206.152 12.1511 206.779 12.1838 207.406 12.2141L207.509 13.5021C207.991 19.5374 208.473 25.5804 208.964 31.6146L208.963 31.6145C207.8 31.554 206.637 31.4935 205.474 31.4431C205.337 29.6332 205.201 27.8257 205.064 26.0183C204.928 24.2108 204.791 22.4034 204.654 20.5934C204.573 19.3128 204.624 17.5986 204.624 17.5986H204.573C204.573 17.5986 203.997 19.4439 203.531 20.543C203.01 21.7631 202.487 22.9832 201.963 24.2032C201.44 25.4233 200.916 26.6434 200.395 27.8635C199.879 27.8383 199.366 27.8106 198.852 27.7829C198.339 27.7551 197.825 27.7274 197.309 27.7022C196.793 26.4266 196.275 25.1511 195.756 23.8755C195.238 22.6 194.719 21.3244 194.203 20.0489C193.738 18.9095 193.141 16.9734 193.141 16.9734H193.091C193.091 16.9734 193.141 18.7179 193.06 19.9884L193.045 20.1906L193.044 20.2071C192.776 23.7239 192.508 27.2405 192.241 30.7474C191.654 30.7171 191.068 30.6844 190.481 30.6516L190.48 30.6516C189.893 30.6188 189.307 30.586 188.72 30.5558L190.298 11.3167L190.308 11.3267ZM220.275 23.4571C220.123 23.4471 219.961 23.437 219.81 23.437C217.544 23.3261 211.564 23.3361 211.564 27.7426C211.564 30.5155 213.81 32.1793 216.289 32.3003C219.456 32.4515 220.548 30.0517 220.518 30.0517H220.569C220.569 30.0517 220.518 30.4853 220.518 31.0298V32.1692C221.58 32.2192 222.633 32.2691 223.685 32.319L223.715 32.3205V23.6386C223.715 20.1296 221.59 18.0121 217.928 17.8407C214.63 17.6794 212.475 19.2927 212.475 19.2927L213.78 21.8337C213.78 21.8337 215.611 20.5935 217.604 20.6842C219.132 20.7649 220.275 21.4405 220.275 23.2656V23.4571ZM220.295 26.1494C220.295 27.8333 218.99 29.7391 217.159 29.6484C215.733 29.5778 215.055 28.6803 215.055 27.7527C215.055 25.8167 217.928 25.7158 219.698 25.7965C219.759 25.7997 219.821 25.8039 219.884 25.8082L219.884 25.8082C220.019 25.8174 220.157 25.8267 220.295 25.8267V26.1494ZM227.135 13.1621L228.856 13.2378L230.574 13.3134V27.7931C230.574 29.3157 231.09 29.7191 231.991 29.7594C232.264 29.7695 232.507 29.7594 232.507 29.7594V32.7844C232.507 32.7844 231.991 32.8449 231.414 32.8147C229.502 32.734 227.124 32.129 227.124 28.1561V13.1621H227.135ZM242.614 24.4553C242.462 24.4453 242.3 24.4352 242.148 24.4352H242.158C239.892 24.3444 233.913 24.3847 233.913 28.7912C233.913 31.5742 236.149 33.2178 238.637 33.3287C241.804 33.4699 242.897 31.06 242.866 31.06H242.917C242.917 31.06 242.866 31.4935 242.866 32.0381V33.1775C243.414 33.1981 243.958 33.2213 244.502 33.2444C245.023 33.2666 245.543 33.2888 246.063 33.3086V24.6268C246.063 21.1177 243.939 19.0204 240.276 18.859C236.968 18.7179 234.813 20.3413 234.813 20.3413C235.248 21.1782 235.683 22.0252 236.118 22.8722C236.118 22.8722 237.95 21.6219 239.943 21.7026C241.47 21.7631 242.614 22.4387 242.614 24.2637V24.4553ZM242.634 27.1577C242.634 28.8416 241.329 30.7474 239.497 30.6667C238.071 30.6062 237.393 29.7088 237.393 28.7811C237.393 26.8552 240.266 26.7342 242.037 26.8048C242.098 26.808 242.16 26.8122 242.223 26.8165C242.358 26.8256 242.496 26.835 242.634 26.835V27.1577ZM248.917 35.6581C248.917 35.6581 249.685 36.2632 250.475 36.2934C251.436 36.3337 252.356 35.7993 252.882 34.5893L252.886 34.5804C253.057 34.18 253.228 33.7797 253.398 33.3894C252.684 31.6958 251.968 30.0009 251.252 28.3052C250.011 25.3666 248.769 22.4255 247.531 19.4844C248.183 19.5096 248.833 19.5373 249.483 19.565C250.133 19.5928 250.783 19.6205 251.436 19.6457C251.921 20.9968 252.409 22.3504 252.898 23.7041C253.386 25.0578 253.874 26.4116 254.36 27.7629C254.633 28.509 254.876 29.6585 254.876 29.6585H254.926C254.926 29.6585 255.149 28.5796 255.391 27.8536C256.302 25.2017 257.213 22.5497 258.123 19.9079C259.388 19.9583 260.652 20.0087 261.917 20.049C260.897 22.6271 259.877 25.2076 258.858 27.7882L258.852 27.8017L258.812 27.9034L258.805 27.9211C257.768 30.5447 256.732 33.1682 255.695 35.7892C254.714 38.2798 252.771 39.2983 250.667 39.2075C248.997 39.1369 247.773 38.1891 247.773 38.1891L247.775 38.1853C248.159 37.3395 248.543 36.4938 248.917 35.6481V35.6581ZM264.3 29.8964L264.294 29.8903H264.305L264.3 29.8964ZM264.3 29.8964C264.406 30.0028 265.904 31.4763 268.088 31.5541C269.07 31.5944 269.92 31.181 269.92 30.3642C269.92 29.5274 268.81 29.0326 267.49 28.4437C265.549 27.578 263.151 26.5088 263.151 23.8503C263.151 21.269 265.468 19.8573 268.473 19.9682C271.609 20.0792 273.147 21.7127 273.147 21.7127C272.934 22.1311 272.719 22.5496 272.504 22.9681C272.289 23.3865 272.074 23.805 271.862 24.2234C271.862 24.2234 270.577 22.9832 268.453 22.9025C267.552 22.8723 266.672 23.2151 266.672 24.0924C266.672 24.8714 267.745 25.3401 269.037 25.9043C270.989 26.7569 273.44 27.8274 273.44 30.5155C273.44 32.8246 271.417 34.6093 268.119 34.4883C264.649 34.3573 262.716 32.2498 262.716 32.2498L262.72 32.2436C263.244 31.4612 263.767 30.6788 264.3 29.8964ZM276.233 15.1384L277.951 15.1989L279.672 15.2594V18.3349L277.956 18.2745L276.233 18.2139V15.1384ZM276.233 20.5835L277.966 20.6439L279.703 20.7045V34.5893L277.966 34.5288L276.233 34.4683V20.5835ZM291.074 26.2401C290.923 26.23 290.761 26.23 290.609 26.23L290.589 26.2401C288.322 26.1695 282.343 26.2704 282.343 30.6768C282.343 33.4598 284.579 35.0833 287.068 35.1639C290.245 35.2648 291.337 32.8447 291.307 32.8447H291.358C291.358 32.8447 291.307 33.2783 291.307 33.8228V34.9623C291.838 34.9774 292.372 34.995 292.905 35.0127C293.439 35.0303 293.973 35.048 294.504 35.0631V26.3813C294.504 22.8723 292.379 20.7951 288.717 20.6741C285.409 20.5632 283.254 22.2067 283.254 22.2067C283.586 22.8318 283.913 23.4625 284.238 24.0903C284.349 24.3032 284.459 24.5157 284.569 24.7276C284.569 24.7276 286.4 23.4571 288.393 23.5176C289.931 23.568 291.074 24.2234 291.074 26.0485V26.2401ZM291.105 28.9324C291.105 30.6264 289.789 32.5422 287.958 32.4817H287.968C286.542 32.4313 285.864 31.544 285.864 30.6163C285.864 28.6904 288.737 28.529 290.508 28.5895C290.7 28.5996 290.902 28.6097 291.105 28.6097V28.9324Z" fill="white"/>
</svg>
