<svg xmlns="http://www.w3.org/2000/svg" width="222" height="87" viewBox="0 0 222 87" fill="none">
  <g filter="">
    <path d="M16.715 46.8083H22.2719V48.3098C22.2719 48.8773 22.2054 49.3774 22.2054 49.3774H22.2719C23.0759 48.1761 24.6827 46.4082 27.3936 46.4082C29.5698 46.4082 31.3108 47.3758 32.2141 49.3111H32.2807C33.185 47.876 35.2271 46.4082 37.8048 46.4082C40.9519 46.4082 43.3955 48.1097 43.3955 52.8478V63.9918H37.6041V53.8154C37.6041 52.5477 37.3696 51.6464 36.2645 51.6464C34.4231 51.6464 33.4523 52.9815 33.0846 54.8831C32.9505 55.4833 32.9505 56.1845 32.9505 56.8847V63.9918H27.159V53.8154C27.159 52.5477 26.9245 51.6464 25.8195 51.6464C24.0119 51.6464 23.0738 52.9142 22.6724 54.7494C22.5382 55.3832 22.5054 56.1508 22.5054 56.8847V63.9918H16.715V46.8083Z" fill="white"/>
    <path d="M47.1796 65.5606C47.1796 65.5606 48.1167 66.1945 48.9544 66.1945C49.8915 66.1945 51.1307 65.9281 51.7329 64.4593L52.0678 63.6591L44.7361 46.8093H51.2976L53.8416 54.7167C54.1427 55.6506 54.4775 57.3858 54.4775 57.3858H54.5441C54.5441 57.3858 54.879 55.7507 55.1135 54.8167L57.2898 46.8093H63.6168L56.5534 65.828C55.1135 69.6649 52.1006 70.9999 49.3559 70.9999C47.0793 70.9999 45.3383 69.7986 45.3383 69.7986L47.1796 65.5606Z" fill="white"/>
    <path d="M66.3953 40.136H76.3385C80.9921 40.136 84.1392 43.539 84.1392 48.3434C84.1392 53.1479 80.9921 56.6183 76.3385 56.6183H72.2543V63.9918H66.3953V40.136ZM75.1331 51.6138C77.1752 51.6138 78.1799 50.246 78.1799 48.3434C78.1799 46.4409 77.1752 45.1405 75.2334 45.1405H72.2543V51.6138H75.1331Z" fill="white"/>
    <path d="M87.6202 40.136H95.9566C98.4002 40.136 99.5718 40.3024 100.61 40.7035C103.322 41.7375 105.029 44.1739 105.029 47.6432C105.029 50.1787 103.824 52.9488 101.447 54.1492V54.2155C101.447 54.2155 101.782 54.6493 102.351 55.6506L107.005 63.9918H100.477L96.226 55.9507H93.4803V63.9918H87.6213V40.136H87.6202ZM96.0232 50.9462C97.8983 50.9462 99.0699 49.9123 99.0699 48.0097C99.0699 46.2081 98.4002 45.1405 95.4548 45.1405H93.4793V50.9462H96.0232Z" fill="white"/>
    <path d="M143.715 46.4082C147.197 46.4082 148.234 47.776 148.234 47.776H148.301C148.301 47.776 148.267 47.4422 148.267 47.0084V40.135H154.058V63.9918H148.634V62.8579C148.634 62.324 148.668 61.8902 148.668 61.8902H148.602C148.602 61.8902 147.162 64.393 143.613 64.393C138.927 64.393 135.846 60.7225 135.846 55.3843C135.847 49.945 139.127 46.4082 143.715 46.4082ZM145.053 59.6212C146.794 59.6212 148.435 58.3535 148.435 55.3843C148.435 53.3153 147.33 51.28 145.053 51.28C143.245 51.28 141.671 52.7478 141.671 55.3843C141.672 57.9534 143.045 59.6212 145.053 59.6212Z" fill="white"/>
    <path d="M167.048 53.2816H167.283V52.9815C167.283 51.5464 166.178 51.0799 164.739 51.0799C162.563 51.0799 160.085 52.7151 160.085 52.7151L158.077 48.6445C158.077 48.6445 161.056 46.4092 165.308 46.4092C170.163 46.4092 173.075 49.0446 173.075 53.4163V63.9918H167.786V62.9578C167.786 62.3903 167.852 61.8902 167.852 61.8902H167.786C167.786 61.8902 166.514 64.3929 162.897 64.3929C159.684 64.3929 157.038 62.2576 157.038 58.8546C157.038 53.8491 164.37 53.2816 167.048 53.2816ZM164.503 59.9886C166.01 59.9886 167.349 58.3534 167.349 56.952V56.5845H166.814C164.972 56.5845 162.864 57.1184 162.864 58.5535C162.864 59.3537 163.365 59.9886 164.503 59.9886Z" fill="white"/>
    <path d="M177.961 51.6139H175.752V47.1095H178.129V42.1714H183.754V47.1095H187.369V51.6139H183.754V56.8858C183.754 58.8211 185.729 59.0875 186.833 59.0875C187.302 59.0875 187.603 59.0538 187.603 59.0538V64.0583C187.603 64.0583 186.967 64.1583 186.03 64.1583C183.286 64.1583 177.962 63.4244 177.962 57.6524V51.6139H177.961Z" fill="white"/>
    <path d="M199.688 53.2816H199.923V52.9815C199.923 51.5464 198.818 51.0799 197.379 51.0799C195.202 51.0799 192.725 52.7151 192.725 52.7151L190.717 48.6445C190.717 48.6445 193.696 46.4092 197.948 46.4092C202.802 46.4092 205.715 49.0446 205.715 53.4163V63.9918H200.425V62.9578C200.425 62.3903 200.492 61.8902 200.492 61.8902H200.425C200.425 61.8902 199.153 64.3929 195.537 64.3929C192.324 64.3929 189.678 62.2576 189.678 58.8546C189.678 53.8491 197.01 53.2816 199.688 53.2816ZM197.144 59.9886C198.651 59.9886 199.99 58.3534 199.99 56.952V56.5845H199.455C197.613 56.5845 195.504 57.1184 195.504 58.5535C195.503 59.3537 196.005 59.9886 197.144 59.9886Z" fill="white"/>
    <path d="M120.287 57.782C123.21 57.782 125.58 55.4198 125.58 52.506C125.58 49.5921 123.21 47.23 120.287 47.23C117.363 47.23 114.993 49.5921 114.993 52.506C114.993 55.4198 117.363 57.782 120.287 57.782Z" fill="white"/>
    <path d="M113.787 59.2649C112.01 57.5573 110.905 55.1607 110.905 52.5058C110.905 47.3197 115.123 43.1154 120.327 43.1154C120.877 43.1154 121.415 43.1623 121.939 43.2532C121.937 43.2073 121.936 43.1613 121.936 43.1154C121.936 42.2253 122.32 41.4251 122.93 40.8698C122.08 40.679 121.195 40.5769 120.287 40.5769C113.677 40.5769 108.319 45.9172 108.319 52.5048C108.319 56.0354 109.858 59.2078 112.305 61.391C112.456 60.4826 113.014 59.7099 113.787 59.2649Z" fill="white"/>
    <path d="M128.02 43.4023C127.934 44.3179 127.441 45.1141 126.723 45.6122C128.584 47.328 129.749 49.7807 129.749 52.506C129.749 57.6922 125.53 61.8964 120.327 61.8964C119.65 61.8964 118.989 61.825 118.352 61.6892C118.357 61.7576 118.36 61.827 118.36 61.8964C118.36 62.7589 118 63.5357 117.421 64.0889C118.34 64.3134 119.299 64.4339 120.288 64.4339C126.897 64.4339 132.256 59.0936 132.256 52.506C132.255 48.8559 130.61 45.5907 128.02 43.4023Z" fill="white"/>
    <path d="M115.279 64.2216C116.59 64.2216 117.654 63.1618 117.654 61.8546C117.654 60.5473 116.59 59.4875 115.279 59.4875C113.967 59.4875 112.904 60.5473 112.904 61.8546C112.904 63.1618 113.967 64.2216 115.279 64.2216Z" fill="#763F98"/>
    <path d="M125.07 45.5182C126.382 45.5182 127.445 44.4584 127.445 43.1512C127.445 41.8439 126.382 40.7842 125.07 40.7842C123.759 40.7842 122.695 41.8439 122.695 43.1512C122.695 44.4584 123.759 45.5182 125.07 45.5182Z" fill="#763F98"/>
    <path d="M80.2077 22.235V22.1928C80.2077 18.4924 77.4949 16.3296 73.2947 16.3296H66.7874C66.162 16.3296 65.6127 16.8365 65.6127 17.4194V32.973H70.2185V28.7741C70.2185 28.5038 70.489 28.2165 70.7425 28.2165H72.3735L75.585 32.973H80.9176L77.0808 27.397C79.0077 26.4424 80.2077 24.7104 80.2077 22.2435V22.235ZM75.6019 22.4463C75.6019 23.7558 74.6046 24.6006 72.9651 24.6006H70.2101V20.934C70.2101 20.5369 70.5312 20.2159 70.9284 20.2159H72.9398C74.6046 20.2159 75.6019 20.9678 75.6019 22.404V22.4547V22.4463Z" fill="white"/>
    <path d="M91.0512 16C85.9214 16 82.0762 19.8694 82.0762 24.6596V24.6934C82.0762 29.4837 85.8707 33.3108 91.009 33.3108C96.1473 33.3108 100.001 29.4246 100.001 24.6596V24.609C100.001 19.8356 96.1811 16.0084 91.0512 16.0084M95.2852 24.7019C95.2852 27.1012 93.6119 29.1458 91.0512 29.1458C88.4906 29.1458 86.8003 27.059 86.8003 24.6596V24.609C86.8003 22.2096 88.499 20.1651 91.009 20.1651C93.519 20.1651 95.2852 22.2603 95.2852 24.6681V24.7019Z" fill="white"/>
    <path d="M113.615 17.4025V25.1329L106.77 16.3296H103.651C102.992 16.3296 102.468 16.8703 102.468 17.5208V32.9645H107.032V23.8487L114.139 32.9645H118.17V16.3296H114.782C114.165 16.3296 113.607 16.8027 113.607 17.4025" fill="white"/>
    <path d="M48.702 17.4782V20.3845H53.6881V32.9726H58.3024V20.9082C58.3024 20.621 58.5391 20.3845 58.8771 20.3845H63.2886V16.3376H49.8767C49.2344 16.3376 48.702 16.8952 48.6935 17.4782" fill="white"/>
    <path d="M33.2795 17.487V32.973H46.6576V29.0445H37.8431V27.0422C37.8431 26.7296 38.122 26.4086 38.4178 26.4086H45.6266V22.7757H37.8431V20.8833C37.8431 20.5876 38.0967 20.2581 38.384 20.2581H46.6661V16.3296H34.4711C33.8373 16.3296 33.288 16.8534 33.288 17.4786" fill="white"/>
    <path d="M147.851 22.6065C145.536 22.0912 144.969 21.7532 144.969 21.0013V20.9422C144.969 20.3423 145.51 19.8692 146.626 19.8692C147.648 19.8692 148.747 20.148 149.829 20.6634C149.829 20.6634 150.065 20.7817 150.175 20.8408C150.488 20.9844 150.851 21.1027 151.308 21.0098C151.629 20.9422 151.865 20.6465 152.153 20.3001L153.598 18.264C151.798 16.8109 149.592 16.0505 146.753 16.0505C142.764 16.0505 140.313 18.2894 140.313 21.3815V21.4237C140.313 24.8454 143.051 25.8423 146.592 26.6533C148.848 27.1687 149.389 27.5489 149.389 28.2416V28.2839C149.389 29.0104 148.73 29.4244 147.496 29.4244C146.043 29.4244 144.64 29.0358 143.338 28.2754C142.958 28.0896 142.502 27.8361 141.91 27.9713C141.665 28.022 141.479 28.1909 141.276 28.4275L139.535 30.5058C141.58 32.3222 144.386 33.2515 147.336 33.2515C151.375 33.2515 154.054 31.2324 154.054 27.8361V27.7939C154.054 24.6848 151.671 23.4345 147.86 22.6065" fill="white"/>
    <path d="M125.092 32.9726L125.929 30.8689C126.055 30.5395 126.334 30.1846 126.689 30.1255H132.639L133.805 32.9726H138.749L131.709 16.3376H127.932C127.374 16.4052 127.154 16.7009 126.951 17.098L120.233 32.9726H125.084H125.092ZM129.461 21.8038L131.32 26.5349H127.577L129.461 21.8038Z" fill="white"/>
    <path d="M21.3209 32.9729C21.3209 31.7394 21.3209 28.9346 21.3209 28.774C21.3293 28.5459 21.4899 28.3178 21.7096 28.2418C21.811 28.208 21.9209 28.2164 22.0223 28.2164C22.6139 28.2164 23.2055 28.2164 23.797 28.2164C25.0309 28.2164 26.2563 28.1151 27.431 27.6926C28.6649 27.2533 29.772 26.493 30.4734 25.3693C31.1664 24.2626 31.3861 22.9193 31.2847 21.6351C31.2087 20.672 30.9213 19.7258 30.3804 18.9316C29.2226 17.225 27.169 16.4985 25.1915 16.3633C24.9295 16.3464 24.6506 16.3295 24.3971 16.3379C23.6111 16.3379 22.8252 16.3379 22.0308 16.3379H18.7602C17.9911 16.3295 16.715 16.2957 16.715 17.4193C16.715 17.9516 16.715 18.4923 16.715 19.0245V32.9729H21.3209ZM26.7127 22.4462C26.7127 23.7557 25.7154 24.6005 24.0759 24.6005H21.3209V20.9339C21.3209 20.5368 21.642 20.2158 22.0392 20.2158H24.0506C25.7154 20.2158 26.7127 20.9677 26.7127 22.4039V22.4546V22.4462Z" fill="white"/>
  </g>
  <defs>
    <filter id="filter0_dd_724_472" x="0.715027" y="0" width="221" height="87" filterUnits="userSpaceOnUse" color-interpolation-filters="sRGB">
      <feFlood flood-opacity="0" result="BackgroundImageFix"/>
      <feColorMatrix in="SourceAlpha" type="matrix" values="0 0 0 0 0 0 0 0 0 0 0 0 0 0 0 0 0 0 127 0" result="hardAlpha"/>
      <feOffset dx="-3" dy="3"/>
      <feGaussianBlur stdDeviation="1.95"/>
      <feColorMatrix type="matrix" values="0 0 0 0 0 0 0 0 0 0 0 0 0 0 0 0 0 0 0.75 0"/>
      <feBlend mode="normal" in2="BackgroundImageFix" result="effect1_dropShadow_724_472"/>
      <feColorMatrix in="SourceAlpha" type="matrix" values="0 0 0 0 0 0 0 0 0 0 0 0 0 0 0 0 0 0 127 0" result="hardAlpha"/>
      <feOffset/>
      <feGaussianBlur stdDeviation="8"/>
      <feColorMatrix type="matrix" values="0 0 0 0 1 0 0 0 0 0.909067 0 0 0 0 0.586667 0 0 0 0.5 0"/>
      <feBlend mode="normal" in2="effect1_dropShadow_724_472" result="effect2_dropShadow_724_472"/>
      <feBlend mode="normal" in="SourceGraphic" in2="effect2_dropShadow_724_472" result="shape"/>
    </filter>
  </defs>
</svg>