<svg xmlns="http://www.w3.org/2000/svg" width="94" height="27" viewBox="0 0 94 27" fill="none">
  <path d="M0 15.1242H2.76375V15.8612C2.76375 16.1398 2.73064 16.3854 2.73064 16.3854H2.76375C3.16359 15.7956 3.96276 14.9277 5.31102 14.9277C6.39339 14.9277 7.25929 15.4028 7.70854 16.3528H7.74165C8.19141 15.6483 9.20706 14.9277 10.4891 14.9277C12.0543 14.9277 13.2696 15.763 13.2696 18.089V23.5597H10.3893V18.564C10.3893 17.9417 10.2726 17.4992 9.72303 17.4992C8.80721 17.4992 8.32435 18.1546 8.14149 19.0881C8.07476 19.3828 8.07476 19.727 8.07476 20.0707V23.5597H5.19438V18.564C5.19438 17.9417 5.07773 17.4992 4.52814 17.4992C3.62914 17.4992 3.16257 18.1216 2.9629 19.0225C2.89618 19.3337 2.87988 19.7105 2.87988 20.0707V23.5597H0V15.1242Z" fill="white"/>
  <path d="M15.1517 24.3297C15.1517 24.3297 15.6178 24.6409 16.0344 24.6409C16.5005 24.6409 17.1168 24.5101 17.4163 23.789L17.5829 23.3962L13.9364 15.1245H17.1998L18.4651 19.0063C18.6148 19.4648 18.7814 20.3166 18.7814 20.3166H18.8145C18.8145 20.3166 18.981 19.5139 19.0977 19.0554L20.18 15.1245H23.3268L19.8138 24.461C19.0977 26.3445 17.5992 26.9999 16.2341 26.9999C15.1018 26.9999 14.2359 26.4101 14.2359 26.4101L15.1517 24.3297Z" fill="white"/>
  <path d="M24.7087 11.8486H29.654C31.9685 11.8486 33.5338 13.5192 33.5338 15.8777C33.5338 18.2363 31.9685 19.9399 29.654 19.9399H27.6227V23.5597H24.7087V11.8486ZM29.0545 17.4832C30.0702 17.4832 30.5699 16.8117 30.5699 15.8777C30.5699 14.9438 30.0702 14.3054 29.1045 14.3054H27.6227V17.4832H29.0545Z" fill="white"/>
  <path d="M35.265 11.8486H39.4111C40.6265 11.8486 41.2092 11.9303 41.7256 12.1272C43.0744 12.6348 43.9235 13.8309 43.9235 15.534C43.9235 16.7787 43.324 18.1386 42.1418 18.7278V18.7604C42.1418 18.7604 42.3083 18.9734 42.5915 19.4649L44.906 23.5597H41.6594L39.5451 19.6122H38.1795V23.5597H35.2655V11.8486H35.265ZM39.4443 17.1555C40.3769 17.1555 40.9596 16.6479 40.9596 15.7139C40.9596 14.8295 40.6265 14.3054 39.1616 14.3054H38.179V17.1555H39.4443Z" fill="white"/>
  <path d="M63.1638 14.9277C64.8956 14.9277 65.4116 15.5992 65.4116 15.5992H65.4447C65.4447 15.5992 65.4279 15.4353 65.4279 15.2224V11.8481H68.3083V23.5597H65.6108V23.003C65.6108 22.7409 65.6276 22.528 65.6276 22.528H65.5945C65.5945 22.528 64.8783 23.7566 63.1134 23.7566C60.7826 23.7566 59.2505 21.9548 59.2505 19.3342C59.251 16.6639 60.8825 14.9277 63.1638 14.9277ZM63.8296 21.4141C64.6955 21.4141 65.5115 20.7918 65.5115 19.3342C65.5115 18.3185 64.9619 17.3193 63.8296 17.3193C62.9306 17.3193 62.1477 18.0399 62.1477 19.3342C62.1482 20.5953 62.8307 21.4141 63.8296 21.4141Z" fill="white"/>
  <path d="M74.7689 18.3019H74.8856V18.1546C74.8856 17.4501 74.336 17.2211 73.6203 17.2211C72.538 17.2211 71.3059 18.0238 71.3059 18.0238L70.307 16.0256C70.307 16.0256 71.7887 14.9282 73.9035 14.9282C76.3179 14.9282 77.7665 16.222 77.7665 18.3681V23.5597H75.1357V23.0521C75.1357 22.7735 75.1688 22.528 75.1688 22.528H75.1357C75.1357 22.528 74.5031 23.7566 72.7045 23.7566C71.1062 23.7566 69.7905 22.7084 69.7905 21.0378C69.7905 18.5805 73.437 18.3019 74.7689 18.3019ZM73.5032 21.5945C74.2525 21.5945 74.9187 20.7918 74.9187 20.1038V19.9234H74.6523C73.7365 19.9234 72.6877 20.1855 72.6877 20.89C72.6877 21.2828 72.9373 21.5945 73.5032 21.5945Z" fill="white"/>
  <path d="M80.1966 17.4833H79.0979V15.2721H80.2801V12.8479H83.0775V15.2721H84.8755V17.4833H83.0775V20.0713C83.0775 21.0214 84.06 21.1522 84.6091 21.1522C84.8424 21.1522 84.9921 21.1356 84.9921 21.1356V23.5924C84.9921 23.5924 84.6758 23.6415 84.2098 23.6415C82.8447 23.6415 80.1971 23.2812 80.1971 20.4476V17.4833H80.1966Z" fill="white"/>
  <path d="M91.0025 18.3019H91.1191V18.1546C91.1191 17.4501 90.5695 17.2211 89.8539 17.2211C88.7715 17.2211 87.5394 18.0238 87.5394 18.0238L86.5405 16.0256C86.5405 16.0256 88.0222 14.9282 90.1371 14.9282C92.5514 14.9282 94 16.222 94 18.3681V23.5597H91.3692V23.0521C91.3692 22.7735 91.4023 22.528 91.4023 22.528H91.3692C91.3692 22.528 90.7366 23.7566 88.9381 23.7566C87.3397 23.7566 86.024 22.7084 86.024 21.0378C86.024 18.5805 89.6705 18.3019 91.0025 18.3019ZM89.7372 21.5945C90.4865 21.5945 91.1527 20.7918 91.1527 20.1038V19.9234H90.8863C89.9705 19.9234 88.9218 20.1855 88.9218 20.89C88.9212 21.2828 89.1708 21.5945 89.7372 21.5945Z" fill="white"/>
  <path d="M51.5119 20.5114C52.966 20.5114 54.1447 19.3518 54.1447 17.9213C54.1447 16.4909 52.966 15.3313 51.5119 15.3313C50.0578 15.3313 48.879 16.4909 48.879 17.9213C48.879 19.3518 50.0578 20.5114 51.5119 20.5114Z" fill="white"/>
  <path d="M48.279 21.2393C47.3953 20.401 46.8457 19.2245 46.8457 17.9212C46.8457 15.3753 48.9437 13.3113 51.5317 13.3113C51.8052 13.3113 52.0732 13.3344 52.3334 13.379C52.3324 13.3564 52.3319 13.3339 52.3319 13.3113C52.3319 12.8744 52.5229 12.4816 52.8265 12.209C52.4037 12.1153 51.9637 12.0652 51.5119 12.0652C48.2245 12.0652 45.5596 14.6868 45.5596 17.9207C45.5596 19.6539 46.3251 21.2112 47.542 22.283C47.6174 21.8371 47.8949 21.4578 48.279 21.2393Z" fill="white"/>
  <path d="M55.358 13.4521C55.3152 13.9016 55.0702 14.2924 54.7131 14.537C55.6386 15.3793 56.2177 16.5833 56.2177 17.9212C56.2177 20.4671 54.1197 22.5311 51.5317 22.5311C51.195 22.5311 50.8665 22.496 50.5497 22.4293C50.5522 22.4629 50.5537 22.497 50.5537 22.5311C50.5537 22.9545 50.3745 23.3358 50.0867 23.6074C50.5436 23.7176 51.0208 23.7767 51.5124 23.7767C54.7997 23.7767 57.4646 21.1551 57.4646 17.9212C57.4641 16.1294 56.6461 14.5264 55.358 13.4521Z" fill="white"/>
  <path d="M49.0212 23.6726C49.6735 23.6726 50.2023 23.1524 50.2023 22.5106C50.2023 21.8689 49.6735 21.3486 49.0212 21.3486C48.3688 21.3486 47.84 21.8689 47.84 22.5106C47.84 23.1524 48.3688 23.6726 49.0212 23.6726Z" fill="#763F98"/>
  <path d="M53.891 14.491C54.5434 14.491 55.0722 13.9707 55.0722 13.329C55.0722 12.6872 54.5434 12.167 53.891 12.167C53.2387 12.167 52.7098 12.6872 52.7098 13.329C52.7098 13.9707 53.2387 14.491 53.891 14.491Z" fill="#763F98"/>
  <path d="M31.5784 3.06091V3.04017C31.5784 1.2236 30.2291 0.161865 28.1402 0.161865H24.9037C24.5927 0.161865 24.3195 0.410707 24.3195 0.696878V8.33226H26.6102V6.271C26.6102 6.13828 26.7447 5.99727 26.8708 5.99727H27.682L29.2792 8.33226H31.9314L30.0232 5.59498C30.9815 5.12632 31.5784 4.2761 31.5784 3.06505V3.06091ZM29.2876 3.16459C29.2876 3.80744 28.7917 4.22218 27.9762 4.22218H26.606V2.4222C26.606 2.22727 26.7657 2.06968 26.9633 2.06968H27.9636C28.7917 2.06968 29.2876 2.4388 29.2876 3.14385V3.16874V3.16459Z" fill="white"/>
  <path d="M36.9715 0C34.4201 0 32.5077 1.89951 32.5077 4.2511V4.26768C32.5077 6.61927 34.3949 8.49805 36.9505 8.49805C39.506 8.49805 41.4227 6.59024 41.4227 4.2511V4.22621C41.4227 1.88293 39.5228 0.00414513 36.9715 0.00414513M39.0773 4.27184C39.0773 5.4497 38.245 6.45337 36.9715 6.45337C35.6979 6.45337 34.8573 5.42896 34.8573 4.2511V4.22621C34.8573 3.04835 35.7021 2.04467 36.9505 2.04467C38.1988 2.04467 39.0773 3.07323 39.0773 4.25524V4.27184Z" fill="white"/>
  <path d="M48.1938 0.688588V4.48347L44.7892 0.161865H43.2382C42.9104 0.161865 42.6498 0.427301 42.6498 0.746652V8.32812H44.9195V3.85306L48.4544 8.32812H50.4593V0.161865H48.7738C48.467 0.161865 48.1896 0.394122 48.1896 0.688588" fill="white"/>
  <path d="M15.9089 0.725674V2.15238H18.3887V8.33202H20.6837V2.40952C20.6837 2.26851 20.8014 2.15238 20.9695 2.15238H23.1636V0.165771H16.4931C16.1737 0.165771 15.9089 0.439503 15.9047 0.725674" fill="white"/>
  <path d="M8.2384 0.730059V8.33226H14.8921V6.40372H10.5081V5.42078C10.5081 5.26733 10.6468 5.10972 10.7939 5.10972H14.3793V3.32634H10.5081V2.39732C10.5081 2.25216 10.6342 2.09041 10.7771 2.09041H14.8963V0.161865H8.83105C8.51581 0.161865 8.24261 0.419005 8.24261 0.725913" fill="white"/>
  <path d="M65.2211 3.24305C64.0695 2.99006 63.7879 2.82416 63.7879 2.45504V2.42601C63.7879 2.13154 64.0569 1.89929 64.6117 1.89929C65.1203 1.89929 65.6667 2.03616 66.2047 2.28915C66.2047 2.28915 66.3224 2.34721 66.377 2.37624C66.5325 2.44675 66.7133 2.50481 66.9402 2.45919C67.1 2.42601 67.2177 2.28085 67.3606 2.11081L68.0793 1.11128C67.184 0.397923 66.087 0.0246582 64.6747 0.0246582C62.6908 0.0246582 61.4719 1.12372 61.4719 2.64167V2.66241C61.4719 4.34211 62.8337 4.83151 64.5949 5.22966C65.7171 5.48265 65.9861 5.66929 65.9861 6.00938V6.03011C65.9861 6.38679 65.6583 6.59001 65.0446 6.59001C64.3217 6.59001 63.6239 6.39923 62.9766 6.02596C62.7875 5.93472 62.5605 5.8103 62.2663 5.87666C62.1444 5.90154 62.0519 5.98449 61.9511 6.10061L61.0852 7.12088C62.1024 8.01257 63.4978 8.46879 64.9647 8.46879C66.9739 8.46879 68.3063 7.47756 68.3063 5.8103V5.78956C68.3063 4.26331 67.121 3.64949 65.2253 3.24305" fill="white"/>
  <path d="M53.9018 8.33202L54.3179 7.29932C54.381 7.13757 54.5197 6.96338 54.6962 6.93435H57.6553L58.2353 8.33202H60.6942L57.1929 0.165771H55.3141C55.0367 0.198951 54.9274 0.344114 54.8265 0.539042L51.485 8.33202H53.8976H53.9018ZM56.0749 2.84915L56.9996 5.1717H55.1376L56.0749 2.84915Z" fill="white"/>
  <path d="M2.29074 8.33215C2.29074 7.72663 2.29074 6.34969 2.29074 6.27089C2.29494 6.15891 2.3748 6.04693 2.48409 6.00961C2.53452 5.99302 2.58917 5.99716 2.6396 5.99716C2.93383 5.99716 3.22805 5.99716 3.52227 5.99716C4.13594 5.99716 4.7454 5.94739 5.32965 5.74002C5.94331 5.52435 6.49393 5.15109 6.84279 4.59948C7.18746 4.05617 7.29674 3.39673 7.2463 2.76633C7.20847 2.29352 7.06556 1.82901 6.79656 1.43916C6.22072 0.601379 5.19935 0.244698 4.2158 0.17834C4.0855 0.170045 3.9468 0.161751 3.8207 0.165898C3.4298 0.165898 3.03891 0.165898 2.64381 0.165898H1.01717C0.634682 0.161751 0 0.145161 0 0.696766C0 0.958053 0 1.22349 0 1.48478V8.33215H2.29074ZM4.97237 3.16448C4.97237 3.80733 4.4764 4.22207 3.66098 4.22207H2.29074V2.42209C2.29074 2.22716 2.45046 2.06956 2.64801 2.06956H3.64837C4.4764 2.06956 4.97237 2.43868 4.97237 3.14374V3.16863V3.16448Z" fill="white"/>
</svg>