<svg xmlns="http://www.w3.org/2000/svg" width="112" height="48" viewBox="0 0 112 48" fill="none">
  <path fill-rule="evenodd" clip-rule="evenodd" d="M70.0495 24.1015C70.0495 21.4651 72.1503 19.3354 74.9529 19.3354V19.3401C77.7555 19.3401 79.8425 21.4465 79.8425 24.0736V24.1015C79.8425 26.724 77.737 28.863 74.9298 28.863C72.1226 28.863 70.0495 26.7566 70.0495 24.1201V24.1015ZM74.9529 26.5706C76.3519 26.5706 77.2661 25.4453 77.2661 24.1248V24.1062C77.2661 22.781 76.3011 21.6278 74.9298 21.6278C73.5585 21.6278 72.6305 22.7531 72.6305 24.0736V24.1015C72.6305 25.4221 73.5539 26.5706 74.9529 26.5706ZM69.0293 22.7438V22.7671V22.7717C69.0293 24.1295 68.3736 25.0827 67.3209 25.6081L69.4171 28.677H66.5037L64.7492 26.0592H63.8581C63.7195 26.0592 63.5718 26.2173 63.5718 26.366V28.677H61.0554V20.1167C61.0554 19.7958 61.3556 19.5168 61.6972 19.5168H65.2524C67.5472 19.5168 69.0293 20.7072 69.0293 22.7438ZM65.0724 24.069C65.9681 24.069 66.5129 23.6041 66.5129 22.8833V22.8601C66.5129 22.0696 65.9681 21.6558 65.0585 21.6558H63.9596C63.7426 21.6558 63.5672 21.8325 63.5672 22.051V24.069H65.0724ZM87.2807 20.1074V24.362L83.5408 19.5168H81.837C81.4769 19.5168 81.1906 19.8144 81.1906 20.1725V28.6724H83.6839V23.6552L87.5669 28.6724H89.7693V19.5168H87.9178C87.5808 19.5168 87.276 19.7772 87.276 20.1074H87.2807ZM51.8164 21.749V20.1495H51.8117C51.8164 19.8286 52.1072 19.5217 52.4581 19.5217H59.7856V21.749H57.3754C57.1907 21.749 57.0614 21.8792 57.0614 22.0373V28.6772H54.5405V21.749H51.8164ZM43.3901 20.1539V28.677H50.6991V26.5148H45.8834V25.4128C45.8834 25.2408 46.0357 25.0641 46.1973 25.0641H50.1358V23.0647H45.8834V22.0231C45.8834 21.8604 46.0219 21.679 46.1789 21.679H50.7037V19.5168H44.0411C43.6948 19.5168 43.3947 19.8051 43.3947 20.1492L43.3901 20.1539ZM104.41 22.0881C104.41 22.5019 104.72 22.6879 105.985 22.9715H105.989C108.072 23.4272 109.374 24.1154 109.374 25.8265V25.8498C109.374 27.719 107.91 28.8303 105.703 28.8303C104.092 28.8303 102.559 28.3189 101.442 27.3191L102.393 26.1753C102.504 26.0451 102.605 25.9521 102.739 25.9242C103.042 25.8544 103.28 25.9728 103.48 26.0722L103.519 26.0916C104.23 26.5101 104.997 26.724 105.791 26.724C106.465 26.724 106.825 26.4961 106.825 26.0962V26.073C106.825 25.6917 106.53 25.4825 105.297 25.1988C103.362 24.7524 101.866 24.2038 101.866 22.3206V22.2973C101.866 20.5955 103.205 19.3633 105.385 19.3633C106.936 19.3633 108.141 19.7818 109.125 20.5815L108.335 21.7021L108.321 21.7197C108.17 21.9027 108.043 22.0567 107.873 22.0927C107.624 22.1439 107.425 22.0788 107.255 21.9997C107.195 21.9672 107.065 21.9021 107.065 21.9021C106.474 21.6185 105.874 21.465 105.315 21.465C104.706 21.465 104.41 21.7254 104.41 22.0555V22.0881ZM93.551 28.6772L94.0081 27.5194C94.0774 27.3381 94.2297 27.1428 94.4237 27.1103H97.6741L98.3113 28.6772H101.012L97.1662 19.5217H95.1024C94.7976 19.5589 94.6776 19.7217 94.5668 19.9402L90.8961 28.6772H93.5464H93.551ZM95.9381 22.5302L96.9539 25.1341H94.9085L95.9381 22.5302ZM36.8568 26.3661V28.677H34.3405V21.0002V20.1167C34.3405 19.5087 35.0144 19.5164 35.4364 19.5213C35.4436 19.5213 35.4507 19.5214 35.4578 19.5215H37.2446H38.5374C38.676 19.5169 38.8283 19.5261 38.9715 19.5354C40.0519 19.6098 41.1738 20.0097 41.8064 20.949C42.1019 21.3861 42.2589 21.9069 42.3004 22.4369C42.3558 23.1437 42.2358 23.883 41.8572 24.4922C41.474 25.1106 40.8691 25.5291 40.195 25.7709C39.5532 26.0034 38.8837 26.0592 38.2096 26.0592H37.24C37.2309 26.0592 37.2216 26.059 37.2123 26.0589C37.1649 26.0583 37.1155 26.0576 37.0692 26.0731C36.9491 26.115 36.8614 26.2405 36.8568 26.3661ZM38.362 24.069C39.2577 24.069 39.8025 23.6041 39.8025 22.8833V22.8601C39.8025 22.0696 39.2577 21.6558 38.3481 21.6558H37.2493C37.0323 21.6558 36.8568 21.8325 36.8568 22.051V24.069H38.362Z" fill="white"/>
  <path d="M24.3846 20.8691L32.554 6.94409H19.9453C16.429 7.03469 15.5086 7.71681 14.1687 9.99767C14.1687 9.99767 6.06422 23.8187 6.05881 23.8267C5.05183 25.5214 4.46444 27.5091 4.46444 29.6141C4.46444 33.7788 6.72471 37.4239 10.1056 39.425C11.8516 40.4589 13.9007 41.0557 16.0879 41.0557C22.5087 41.0557 27.7141 35.9318 27.7141 29.6141C27.7141 27.4478 27.1023 25.4254 26.0412 23.6988L24.3819 20.8691H24.3846Z" fill="white"/>
  <path d="M16.0906 42.5C13.7112 42.5 11.3833 41.8658 9.35041 40.6615C5.43351 38.3406 3 34.1093 3 29.6142C3 27.328 3.61988 25.0765 4.79468 23.0994C4.93003 22.8702 5.86662 21.2688 12.8992 9.27567C14.5829 6.41128 16.0906 5.59859 19.9074 5.5H19.9453H35.0931L26.0764 20.8691L27.3054 22.9635C28.5343 24.9672 29.1839 27.2667 29.1839 29.6115C29.1839 36.7179 23.3099 42.4973 16.0933 42.4973L16.0906 42.5Z" fill="white"/>
  <path d="M22.5412 29.6111C22.5412 33.1177 19.6529 35.9607 16.0906 35.9607C12.5283 35.9607 9.64005 33.1177 9.64005 29.6111C9.64005 26.1046 12.5283 23.2615 16.0906 23.2615C19.6529 23.2615 22.5412 26.1046 22.5412 29.6111Z" fill="#00A89C"/>
  <path d="M24.3846 20.8691L32.554 6.94409H19.9453C16.429 7.03469 15.5086 7.71681 14.1687 9.99767C14.1687 9.99767 6.06422 23.8187 6.05881 23.8267C5.05183 25.5214 4.46444 27.5091 4.46444 29.6141C4.46444 33.7788 6.72471 37.4239 10.1056 39.425C11.8516 40.4589 13.9007 41.0557 16.0879 41.0557C22.5087 41.0557 27.7141 35.9318 27.7141 29.6141C27.7141 27.4478 27.1023 25.4254 26.0412 23.6988L24.3819 20.8691H24.3846ZM20.0129 9.86977H27.4055L22.6711 17.9434L21.0578 15.1909L18.0558 10.0749C18.4889 9.92839 19.0763 9.86977 20.0129 9.86977ZM16.0933 38.1407C13.9684 38.1407 12.0194 37.384 10.5144 36.1343C8.62766 34.5702 7.43121 32.2281 7.43121 29.6115C7.43121 28.034 7.86431 26.5579 8.62225 25.2922C8.62225 25.2922 16.0663 12.6036 16.0933 12.553L19.0005 17.4984V17.5037L23.5644 25.2896C23.5644 25.2896 23.5644 25.2949 23.5644 25.2975C24.3223 26.5659 24.7581 28.0394 24.7581 29.6168C24.7581 34.3277 20.8791 38.146 16.0933 38.146" fill="#00A89C"/>
</svg>