<svg width="63" height="65" viewBox="0 0 63 65" fill="none" xmlns="http://www.w3.org/2000/svg">
<path d="M43.3711 22.2742L55.0717 2.09304H37.013C31.9769 2.22433 30.6587 3.21293 28.7396 6.51854C28.7396 6.51854 17.1321 26.5491 17.1244 26.5607C15.6822 29.0168 14.8409 31.8976 14.8409 34.9483C14.8409 40.9841 18.0781 46.2669 22.9204 49.1671C25.421 50.6654 28.3558 51.5304 31.4884 51.5304C40.6844 51.5304 48.1398 44.1044 48.1398 34.9483C48.1398 31.8088 47.2636 28.8777 45.7438 26.3754L43.3673 22.2742H43.3711Z" fill="white"/>
<path d="M29.1273 59.9373V59.918C29.1273 58.2266 27.8828 57.238 25.956 57.238H22.9708C22.6839 57.238 22.4319 57.4697 22.4319 57.7362V64.8455H24.5448V62.9263C24.5448 62.8027 24.6689 62.6714 24.7852 62.6714H25.5334L27.0066 64.8455H29.453L27.6929 62.2968C28.5768 61.8604 29.1273 61.0688 29.1273 59.9412V59.9373ZM27.0144 60.0339C27.0144 60.6324 26.5569 61.0186 25.8048 61.0186H24.5409V59.3426C24.5409 59.1611 24.6882 59.0144 24.8705 59.0144H25.7932C26.5569 59.0144 27.0144 59.3581 27.0144 60.0146V60.0377V60.0339Z" fill="white"/>
<path d="M34.1014 57.0874C31.7481 57.0874 29.9841 58.856 29.9841 61.0456V61.0611C29.9841 63.2507 31.7249 65 34.082 65C36.4392 65 38.2071 63.2236 38.2071 61.0456V61.0225C38.2071 58.8406 36.4547 57.0913 34.1014 57.0913M36.0438 61.0649C36.0438 62.1617 35.2761 63.0962 34.1014 63.0962C32.9267 63.0962 32.1513 62.1423 32.1513 61.0456V61.0225C32.1513 59.9257 32.9306 58.9912 34.082 58.9912C35.2335 58.9912 36.0438 59.9489 36.0438 61.0495V61.0649Z" fill="white"/>
<path d="M44.4528 57.7284V61.2619L41.3125 57.238H39.8819C39.5795 57.238 39.3391 57.4851 39.3391 57.7825V64.8417H41.4327V60.6749L44.6932 64.8417H46.5425V57.238H44.9878C44.7048 57.238 44.4489 57.4543 44.4489 57.7284" fill="white"/>
<path d="M14.6742 57.7632V59.0916H16.9615V64.8455H19.0783V59.331C19.0783 59.1997 19.1869 59.0916 19.342 59.0916H21.3657V57.2419H15.213C14.9184 57.2419 14.6742 57.4967 14.6703 57.7632" fill="white"/>
<path d="M7.59877 57.767V64.8455H13.7359V63.0498H9.69231V62.1346C9.69231 61.9917 9.82025 61.845 9.95594 61.845H13.263V60.1845H9.69231V59.3195C9.69231 59.1843 9.80862 59.0337 9.94043 59.0337H13.7398V57.238H8.14542C7.85465 57.238 7.60265 57.4774 7.60265 57.7632" fill="white"/>
<path d="M60.1582 60.1072C59.0959 59.8717 58.8362 59.7172 58.8362 59.3735V59.3465C58.8362 59.0723 59.0843 58.856 59.5961 58.856C60.0652 58.856 60.5692 58.9835 61.0654 59.219C61.0654 59.219 61.174 59.2731 61.2244 59.3001C61.3678 59.3658 61.5345 59.4198 61.7439 59.3774C61.8912 59.3465 61.9998 59.2113 62.1316 59.053L62.7945 58.1223C61.9687 57.4581 60.9569 57.1106 59.6542 57.1106C57.8243 57.1106 56.7 58.1339 56.7 59.5473V59.5666C56.7 61.1306 57.9561 61.5863 59.5806 61.957C60.6157 62.1925 60.8638 62.3663 60.8638 62.683V62.7023C60.8638 63.0344 60.5614 63.2236 59.9954 63.2236C59.3286 63.2236 58.685 63.046 58.0879 62.6984C57.9135 62.6135 57.7041 62.4976 57.4327 62.5594C57.3203 62.5826 57.235 62.6598 57.142 62.7679L56.3433 63.7179C57.2815 64.5482 58.5687 64.973 59.9217 64.973C61.7749 64.973 63.0039 64.05 63.0039 62.4976V62.4783C63.0039 61.0572 61.9106 60.4857 60.1621 60.1072" fill="white"/>
<path d="M49.7177 64.8455L50.1015 63.884C50.1596 63.7334 50.2876 63.5712 50.4504 63.5441H53.1797L53.7148 64.8455H55.9828L52.7533 57.2419H51.0203C50.7644 57.2728 50.6636 57.4079 50.5706 57.5894L47.4884 64.8455H49.7138H49.7177ZM51.722 59.7404L52.5749 61.9029H50.8575L51.722 59.7404Z" fill="white"/>
<path d="M2.11292 64.8455C2.11292 64.2817 2.11292 62.9996 2.11292 62.9263C2.1168 62.822 2.19046 62.7177 2.29126 62.683C2.33778 62.6675 2.38818 62.6714 2.43471 62.6714C2.70609 62.6714 2.97748 62.6714 3.24886 62.6714C3.81489 62.6714 4.37705 62.6251 4.91594 62.432C5.48197 62.2312 5.98985 61.8836 6.31163 61.37C6.62954 60.8641 6.73034 60.2501 6.68381 59.6631C6.64892 59.2229 6.51711 58.7904 6.26898 58.4274C5.73785 57.6473 4.79575 57.3152 3.88855 57.2534C3.76837 57.2457 3.64043 57.238 3.52412 57.2419C3.16357 57.2419 2.80302 57.2419 2.43858 57.2419H0.938215C0.585415 57.238 0 57.2225 0 57.7362C0 57.9794 0 58.2266 0 58.4699V64.8455H2.11292ZM4.5864 60.0339C4.5864 60.6324 4.12892 61.0186 3.3768 61.0186H2.11292V59.3426C2.11292 59.1611 2.26025 59.0144 2.44246 59.0144H3.36517C4.12892 59.0144 4.5864 59.3581 4.5864 60.0146V60.0377V60.0339Z" fill="white"/>
<path d="M31.4922 53.6234C28.0844 53.6234 24.7503 52.7044 21.8387 50.9589C16.2288 47.5953 12.7434 41.463 12.7434 34.9483C12.7434 31.635 13.6313 28.3718 15.3138 25.5065C15.5077 25.1744 16.8491 22.8535 26.9214 5.47202C29.3328 1.3207 31.4922 0.142883 36.9587 0H37.013H58.7082L45.7942 22.2742L47.5543 25.3095C49.3145 28.2135 50.2449 31.5462 50.2449 34.9444C50.2449 45.2436 41.832 53.6196 31.4961 53.6196L31.4922 53.6234Z" fill="white"/>
<path d="M40.731 34.9444C40.731 40.0264 36.5943 44.1469 31.4922 44.1469C26.3902 44.1469 22.2535 40.0264 22.2535 34.9444C22.2535 29.8625 26.3902 25.742 31.4922 25.742C36.5943 25.742 40.731 29.8625 40.731 34.9444Z" fill="#00A89C"/>
<path d="M43.3711 22.2742L55.0717 2.09304H37.013C31.9769 2.22433 30.6587 3.21293 28.7396 6.51854C28.7396 6.51854 17.1321 26.5491 17.1244 26.5607C15.6822 29.0168 14.8409 31.8976 14.8409 34.9483C14.8409 40.9841 18.0781 46.2669 22.9204 49.1671C25.421 50.6654 28.3558 51.5304 31.4884 51.5304C40.6844 51.5304 48.1398 44.1044 48.1398 34.9483C48.1398 31.8088 47.2636 28.8777 45.7438 26.3754L43.3673 22.2742H43.3711ZM37.1099 6.33317H47.6978L40.917 18.0341L38.6064 14.045L34.3069 6.63052C34.9272 6.41813 35.7685 6.33317 37.1099 6.33317ZM31.4961 47.3057C28.4527 47.3057 25.6614 46.209 23.5058 44.3979C20.8036 42.1311 19.09 38.7366 19.09 34.9444C19.09 32.6583 19.7103 30.5189 20.7958 28.6846C20.7958 28.6846 31.4573 10.2953 31.4961 10.2219L35.6599 17.3892V17.3969L42.1964 28.6808C42.1964 28.6808 42.1964 28.6885 42.1964 28.6924C43.282 30.5305 43.9062 32.6661 43.9062 34.9522C43.9062 41.7796 38.3505 47.3134 31.4961 47.3134" fill="#00A89C"/>
</svg>
