<svg width="102" height="41" viewBox="0 0 102 41" fill="none" xmlns="http://www.w3.org/2000/svg">
<g id="Layer_1-2">
<path id="Vector" d="M26.2281 14.0497L33.3046 1.32007H22.3847C19.3391 1.40337 18.5427 2.02743 17.3821 4.11138L10.3572 16.7535C9.4861 18.3023 8.9751 20.1208 8.9751 22.0438C8.9751 25.8517 10.9335 29.1824 13.8608 31.0122C15.3735 31.9582 17.1484 32.5032 19.0442 32.5032C24.6054 32.5032 29.112 27.8199 29.112 22.0438C29.112 20.0644 28.582 18.2148 27.6633 16.6363L26.2267 14.0511L26.2281 14.0497Z" fill="white"/>
<path id="Vector_2" d="M17.6159 37.8063V37.795C17.6159 36.729 16.8643 36.1035 15.6983 36.1035H13.8921C13.7181 36.1035 13.5659 36.2489 13.5659 36.417V40.9011H14.8448V39.6897C14.8448 39.6121 14.9182 39.5302 14.9902 39.5302H15.4428L16.3343 40.9011H17.8129L16.7488 39.293C17.2843 39.0177 17.6172 38.5179 17.6172 37.8077M16.3397 37.8684C16.3397 38.2454 16.0638 38.491 15.6086 38.491H14.8448V37.4335C14.8448 37.3192 14.9345 37.226 15.0432 37.226H15.6004C16.0625 37.226 16.3397 37.4434 16.3397 37.8557V37.8698V37.8684Z" fill="white"/>
<path id="Vector_3" d="M20.6234 36.009C19.1992 36.009 18.1337 37.1258 18.1337 38.5038V38.5137C18.1337 39.8946 19.1869 40.9987 20.6112 40.9987C22.0355 40.9987 23.1064 39.879 23.1064 38.5038V38.4883C23.1064 37.1117 22.0477 36.009 20.6234 36.009ZM21.7976 38.5151C21.7976 39.207 21.3328 39.7971 20.6234 39.7971C19.914 39.7971 19.4438 39.1943 19.4438 38.5053V38.4897C19.4438 37.7979 19.914 37.2077 20.6126 37.2077C21.3111 37.2077 21.799 37.812 21.799 38.5053V38.5151H21.7976Z" fill="white"/>
<path id="Vector_4" d="M26.8818 36.4113V38.6407L24.9832 36.1035H24.1175C23.9354 36.1035 23.7886 36.2588 23.7886 36.4466V40.8997H25.0553V38.2708L27.0286 40.8997H28.1457V36.1035H27.2066C27.0354 36.1035 26.8818 36.2391 26.8818 36.4113Z" fill="white"/>
<path id="Vector_5" d="M8.87317 36.4326V37.2699H10.2567V40.8984H11.5369V37.421C11.5369 37.3391 11.6021 37.2685 11.6973 37.2685H12.9217V36.1008H9.19934C9.02266 36.1008 8.87317 36.2604 8.87181 36.4298" fill="white"/>
<path id="Vector_6" d="M4.59627 36.4354V40.8999H8.30781V39.7675H5.86154V39.1901C5.86154 39.1011 5.939 39.0079 6.02055 39.0079H8.01969V37.9603H5.86154V37.4153C5.86154 37.3292 5.93221 37.2332 6.01103 37.2332H8.30781V36.1008H4.9238C4.74848 36.1008 4.59491 36.2533 4.59491 36.4326" fill="white"/>
<path id="Vector_7" d="M36.3801 37.9121C35.7373 37.7624 35.581 37.6664 35.581 37.4504V37.4334C35.581 37.2612 35.7305 37.1242 36.0417 37.1242C36.3258 37.1242 36.6288 37.2033 36.9305 37.353L37.0257 37.4038C37.114 37.4447 37.2146 37.4786 37.3396 37.4518C37.4293 37.432 37.4932 37.3473 37.5734 37.2485L37.9743 36.6611C37.4742 36.2418 36.8626 36.0229 36.0757 36.0229C34.9694 36.0229 34.2886 36.6682 34.2886 37.5591V37.5718C34.2886 38.5573 35.0496 38.8439 36.0295 39.0797C36.656 39.2279 36.8055 39.3381 36.8055 39.5386V39.5499C36.8055 39.7588 36.622 39.8788 36.2809 39.8788C35.8773 39.8788 35.4886 39.7659 35.1271 39.547C35.0224 39.4934 34.8947 39.42 34.7303 39.4581C34.6623 39.4736 34.6107 39.5216 34.5549 39.5894L34.0725 40.1894C34.6392 40.7118 35.4193 40.9815 36.2361 40.9815C37.3573 40.9815 38.1007 40.3984 38.1007 39.42V39.4073C38.1007 38.5107 37.4402 38.1521 36.3815 37.9121" fill="white"/>
<path id="Vector_8" d="M30.0674 40.8997L30.2998 40.294C30.3365 40.198 30.4139 40.0978 30.5118 40.0794H32.1617L32.4851 40.8997H33.8564L31.9035 36.1035H30.8556C30.7007 36.1219 30.6382 36.208 30.5838 36.3238L28.7206 40.8997H30.0674ZM31.2797 37.6792L31.7947 39.0431H30.7564L31.2797 37.6792Z" fill="white"/>
<path id="Vector_9" d="M1.27886 40.9012C1.27886 40.544 1.2775 39.7378 1.27886 39.6912C1.28157 39.6262 1.32506 39.5599 1.38622 39.5373L1.4732 39.5302H1.96653C2.30901 39.5302 2.65013 39.5006 2.97494 39.3791C3.31606 39.2521 3.62456 39.0346 3.8189 38.7099C4.01053 38.3908 4.07168 38.004 4.0445 37.6326C4.02412 37.3559 3.94393 37.0834 3.79308 36.8518C3.47235 36.3605 2.90155 36.1515 2.35386 36.112C2.28047 36.1064 2.20436 36.1021 2.13233 36.1035C1.91353 36.1035 1.69472 36.1035 1.47728 36.1035H0.570797C0.354709 36.1035 0.00135904 36.0937 0 36.417V40.9012H1.27886ZM2.7738 37.867C2.7738 38.244 2.49791 38.4896 2.04264 38.4896H1.27886V37.4321C1.27886 37.3178 1.36855 37.2246 1.47728 37.2246H2.03448C2.49656 37.2246 2.7738 37.442 2.7738 37.8543V37.8684V37.867Z" fill="white"/>
<path id="Vector_10" d="M19.0456 33.8219C16.9853 33.8219 14.9671 33.2402 13.2085 32.1418C9.81499 30.0211 7.70712 26.1511 7.70712 22.0425C7.70712 19.9529 8.2453 17.8929 9.26186 16.0857C9.37873 15.8753 10.1914 14.4112 16.2813 3.45067C17.7395 0.833018 19.0442 0.0917731 22.3521 0H22.3861H35.5049L27.6945 14.0498L28.7573 15.9643C29.8214 17.7955 30.3841 19.8964 30.3841 22.0425C30.3841 28.5386 25.2972 33.8219 19.0456 33.8219Z" fill="white"/>
<path id="Vector_11" d="M24.6312 22.0426C24.6312 25.2476 22.1306 27.8455 19.0456 27.8455C15.9606 27.8455 13.4586 25.2476 13.4586 22.0426C13.4586 18.8376 15.9592 16.2383 19.0456 16.2383C22.132 16.2383 24.6312 18.8362 24.6312 22.0426Z" fill="#00B1A9"/>
<path id="Vector_12" d="M26.2281 14.0497L33.3046 1.32007H22.3847C19.3391 1.40337 18.5414 2.02743 17.3821 4.10997L10.3586 16.7521C9.4861 18.3009 8.97781 20.1194 8.97781 22.0424C8.97781 25.8503 10.9362 29.181 13.8636 31.0108C15.3762 31.9568 17.1511 32.5018 19.0456 32.5018C24.6068 32.5018 29.1147 27.8185 29.1147 22.0424C29.1147 20.063 28.5847 18.2134 27.6646 16.6349L26.2281 14.0497ZM22.4418 3.99561H28.8443L24.7427 11.3756L23.3456 8.85958L20.7457 4.18198C21.1195 4.04926 21.6291 3.99561 22.4418 3.99561ZM19.0456 29.8375C17.2054 29.8375 15.5189 29.1471 14.2128 28.0049C12.5806 26.576 11.5423 24.4356 11.5423 22.0424C11.5423 20.6023 11.9174 19.2511 12.5738 18.0934L19.0442 6.44807L21.5612 10.969L21.5639 10.9718L25.516 18.0891L25.5187 18.0962C26.1751 19.254 26.5516 20.6037 26.5516 22.0439C26.5516 26.3487 23.192 29.8403 19.0469 29.8403" fill="#00B1A9"/>
<g id="RGB-P50_with_Tagline">
<g id="P50">
<path id="Vector_13" d="M82.3347 34.278L80.8968 31.6082H82.1091L82.6024 32.6967C82.7424 33.0073 82.8647 33.349 82.8647 33.349H82.8769C82.8769 33.349 82.9993 33.0073 83.1392 32.6967L83.6271 31.6082H84.8394L83.4015 34.278V36.1319H82.3361V34.278H82.3347Z" fill="white"/>
<path id="Vector_14" d="M85.7826 31.6081H88.5115V32.5569H86.8481V33.38H88.1758V34.3288H86.8481V35.183H88.5958V36.1318H85.7812V31.6067L85.7826 31.6081Z" fill="white"/>
<path id="Vector_15" d="M92.0015 35.183H90.6425L90.3802 36.1318H89.2835L90.7635 31.6067H91.8847L93.3647 36.1318H92.2679L92.0002 35.183H92.0015ZM91.3193 32.6388C91.3193 32.6388 91.2215 33.1329 91.1426 33.4167L90.8926 34.2963H91.7515L91.5082 33.4167C91.4294 33.1315 91.3315 32.6388 91.3315 32.6388H91.3193Z" fill="white"/>
<path id="Vector_16" d="M94.3105 31.6081H95.8272C96.2716 31.6081 96.485 31.6392 96.6739 31.7154C97.1673 31.9117 97.4785 32.3733 97.4785 33.0313C97.4785 33.5127 97.2597 34.038 96.8261 34.2653V34.278C96.8261 34.278 96.8873 34.3599 96.9906 34.5505L97.8373 36.1318H96.6494L95.8762 34.607H95.376V36.1318H94.3105V31.6067V31.6081ZM95.8395 33.6582C96.1806 33.6582 96.394 33.4619 96.394 33.1019C96.394 32.7602 96.2716 32.5583 95.7362 32.5583H95.3774V33.6596H95.8408L95.8395 33.6582Z" fill="white"/>
<path id="Vector_17" d="M99.1773 34.7214C99.1773 34.7214 99.6706 35.1901 100.218 35.1901C100.437 35.1901 100.675 35.1012 100.675 34.8287C100.675 34.2908 98.7138 34.3091 98.7138 32.917C98.7138 32.0812 99.3893 31.5305 100.255 31.5305C101.193 31.5305 101.656 32.043 101.656 32.043L101.205 32.9481C101.205 32.9481 100.766 32.5499 100.243 32.5499C100.024 32.5499 99.7793 32.6516 99.7793 32.9043C99.7793 33.4733 101.74 33.373 101.74 34.8033C101.74 35.5558 101.186 36.2081 100.206 36.2081C99.2262 36.2081 98.616 35.5629 98.616 35.5629L99.1759 34.7214H99.1773Z" fill="white"/>
<path id="Vector_18" d="M101.125 11.9828C98.9218 6.4411 93.1594 3.52413 87.7165 4.90496C87.1538 5.04756 86.5939 5.23675 86.0421 5.47395C81.8237 7.284 79.3883 11.2811 77.4612 15.7808L76.5397 18.1697C74.913 17.4059 71.2191 15.377 68.0947 15.5097C66.5399 15.5761 65.2964 16.0307 64.9933 16.1705L65.5179 9.69693H76.4473V4.88096H60.8714L59.4933 20.4993L63.7702 22.2938C67.2643 19.2978 70.6932 21.7489 74.5882 23.3542C73.9997 24.7618 73.3623 26.2641 73.3623 26.2641C72.7793 27.635 71.987 29.0074 70.7883 29.8842C69.7853 30.617 68.6396 30.9106 67.4287 30.9106C63.5867 30.9106 61.1228 27.8299 61.1228 27.8299L58.3667 32.0373C58.3667 32.0373 60.3373 34.5886 64.1956 35.697C65.2842 36.0161 66.5236 36.2222 67.9139 36.2222C70.1251 36.2222 72.3444 35.512 74.1981 34.2371C76.0967 32.9311 77.3049 31.0603 78.2589 28.9594C78.7061 27.9739 79.0553 27.0124 79.5663 25.6965C84.7103 27.9852 89.9372 29.7642 94.861 27.652C95.4127 27.4148 95.9373 27.1395 96.4334 26.8274C101.228 23.8173 103.329 17.5245 101.127 11.9842L101.125 11.9828ZM92.7599 22.3715C89.7374 23.6676 85.7703 22.3701 81.5288 20.4711C83.2357 15.7215 84.8421 12.0534 88.1419 10.7544C91.2609 9.52609 94.7685 10.962 96.042 14.1642C97.3154 17.3663 95.8422 21.0486 92.7599 22.3715Z" fill="white"/>
<path id="Vector_19" d="M73.0158 16.5559L71.0329 21.7841C72.1827 22.26 73.361 22.8487 74.5868 23.3542C74.7227 22.9899 76.5397 18.1697 76.5397 18.1697C75.7515 17.7984 74.4754 17.1305 73.0144 16.5559H73.0158Z" fill="url(#paint0_linear_1720_595)"/>
<path id="Vector_20" d="M85.133 21.9212C83.9655 21.5202 82.7587 21.0204 81.5288 20.4712L79.565 25.6966C80.7555 26.2261 81.9514 26.7287 83.146 27.1622L85.133 21.9226V21.9212Z" fill="url(#paint1_linear_1720_595)"/>
</g>
</g>
<path id="Vector_21" d="M48.8099 0H47.6602V40.9816H48.8099V0Z" fill="white"/>
</g>
<defs>
<linearGradient id="paint0_linear_1720_595" x1="71.991" y1="19.1919" x2="83.6811" y2="23.7389" gradientUnits="userSpaceOnUse">
<stop offset="0.1" stop-color="white" stop-opacity="0"/>
<stop offset="0.34" stop-color="#646162" stop-opacity="0.7"/>
<stop offset="0.5" stop-color="#231F20"/>
</linearGradient>
<linearGradient id="paint1_linear_1720_595" x1="84.1517" y1="24.5742" x2="72.4494" y2="20.0232" gradientUnits="userSpaceOnUse">
<stop offset="0.1" stop-color="white" stop-opacity="0"/>
<stop offset="0.34" stop-color="#646162" stop-opacity="0.7"/>
<stop offset="0.5" stop-color="#231F20"/>
</linearGradient>
</defs>
</svg>
